<svg width="490" height="230" viewBox="0 0 490 230" fill="none" xmlns="http://www.w3.org/2000/svg">
<path d="M6.04768 170.541L5.20958 168.146C5.16401 168.016 5.15672 167.868 5.18822 167.712C5.21973 167.556 5.28932 167.394 5.39292 167.236C5.49652 167.078 5.632 166.928 5.79128 166.794C5.95057 166.659 6.13043 166.544 6.32016 166.454C6.50855 166.361 6.70411 166.294 6.89535 166.258C7.08659 166.223 7.26954 166.219 7.43336 166.247C7.59718 166.275 7.73854 166.335 7.84897 166.422C7.9594 166.51 8.03671 166.623 8.0763 166.756C8.76586 168.727 9.44479 170.668 10.1131 172.578C10.2163 172.833 10.1695 173.153 9.98253 173.472C9.7955 173.791 9.48308 174.083 9.1117 174.287C8.73039 174.477 8.32806 174.559 7.98717 174.517C7.64628 174.474 7.39265 174.311 7.27828 174.059L6.04768 170.541ZM3.64389 162.196C2.95433 160.225 2.74816 158.014 2.41012 155.868C2.38709 155.729 2.40215 155.576 2.4545 155.419C2.50681 155.261 2.59532 155.102 2.71489 154.949C2.83447 154.797 2.9827 154.655 3.15096 154.532C3.31922 154.409 3.50411 154.307 3.69493 154.232C3.88538 154.155 4.07854 154.106 4.26313 154.089C4.44771 154.071 4.62003 154.085 4.77007 154.13C4.9201 154.174 5.04493 154.249 5.13711 154.349C5.22933 154.449 5.28708 154.572 5.30715 154.712C5.63458 156.827 6.04992 158.899 6.54251 160.897C6.59991 161.174 6.50448 161.504 6.27658 161.817C6.04872 162.13 5.70642 162.401 5.32285 162.572C5.13537 162.656 4.94314 162.713 4.75717 162.739C4.5712 162.766 4.39522 162.762 4.23923 162.727C4.08324 162.692 3.95035 162.627 3.84821 162.536C3.74605 162.445 3.67657 162.329 3.64389 162.196ZM9.80753 179.814C9.71897 179.57 9.76424 179.268 9.93466 178.967C10.1051 178.666 10.3888 178.386 10.7318 178.18C11.1035 177.975 11.5058 177.876 11.8526 177.903C12.1994 177.93 12.4633 178.082 12.5879 178.325C13.3486 179.763 14.1321 181.117 15.0353 182.519L15.6581 183.562C15.734 183.675 15.7736 183.808 15.7746 183.956C15.7757 184.103 15.7381 184.261 15.6641 184.421C15.5901 184.58 15.4812 184.738 15.3439 184.884C15.2065 185.031 15.0435 185.164 14.8642 185.274C14.5096 185.491 14.1145 185.61 13.7648 185.604C13.415 185.598 13.1387 185.468 12.9959 185.242L12.3292 184.221C11.4366 182.849 10.6531 181.494 9.83935 179.905L9.80753 179.814ZM1.40511 149.604L1.35205 149.452C1.16705 147.301 1.00482 145.068 0.941031 142.821C0.937823 142.529 1.08181 142.202 1.34323 141.906C1.60464 141.61 1.96349 141.369 2.34555 141.233C2.54112 141.165 2.73649 141.128 2.9198 141.123C3.10307 141.119 3.27047 141.147 3.41185 141.206C3.55325 141.266 3.66565 141.355 3.74232 141.469C3.81898 141.583 3.85822 141.719 3.85777 141.869C3.95489 144.064 4.05198 146.258 4.28092 148.387C4.30516 148.673 4.17669 149.001 3.92356 149.3C3.67045 149.6 3.3134 149.846 2.93095 149.984C2.61476 150.063 2.31566 150.059 2.07965 149.97C1.84364 149.882 1.68386 149.714 1.62481 149.494L1.40511 149.604ZM16.4526 190.109C16.3787 189.883 16.4194 189.61 16.5676 189.335C16.7158 189.061 16.9626 188.801 17.2661 188.601C17.4375 188.479 17.6254 188.381 17.818 188.311C18.0106 188.24 18.2038 188.201 18.3855 188.194C18.5671 188.187 18.7334 188.214 18.8738 188.271C19.0141 188.329 19.1255 188.417 19.2011 188.529C20.4194 190.095 21.7469 191.677 23.1622 193.216C23.2517 193.317 23.3072 193.44 23.3256 193.579C23.344 193.718 23.3249 193.871 23.2695 194.027C23.214 194.184 23.1233 194.341 23.0025 194.491C22.8817 194.642 22.7332 194.781 22.5654 194.902C22.2213 195.149 21.8191 195.307 21.445 195.34C21.0709 195.372 20.7546 195.279 20.5637 195.078C19.1484 193.539 17.8103 191.926 16.5707 190.3L16.4526 190.109ZM0.943655 136.341L0.858798 136.098C0.948048 133.847 1.02669 131.565 1.23715 129.218C1.26267 128.917 1.43857 128.59 1.72625 128.306C2.01394 128.023 2.3899 127.808 2.7719 127.707C2.96313 127.652 3.15108 127.628 3.324 127.637C3.4969 127.646 3.65118 127.687 3.77736 127.757C3.90358 127.828 3.99905 127.927 4.05782 128.048C4.11656 128.169 4.13741 128.31 4.11905 128.461C3.98586 130.734 3.85264 133.008 3.79672 135.207C3.80012 135.353 3.76408 135.51 3.69084 135.669C3.61758 135.827 3.50872 135.984 3.37094 136.129C3.23314 136.275 3.06937 136.405 2.88981 136.513C2.71025 136.621 2.51872 136.704 2.32706 136.757C2.03558 136.812 1.76614 136.792 1.55718 136.697C1.34821 136.603 1.21036 136.44 1.16333 136.232L0.943655 136.341ZM24.7597 199.257C24.6903 199.045 24.7189 198.792 24.8412 198.533C24.9636 198.274 25.1736 198.023 25.4414 197.815C25.7703 197.562 26.1634 197.395 26.5346 197.351C26.9058 197.306 27.2249 197.388 27.4219 197.578C28.9039 199.012 30.4738 200.403 32.1209 201.72C32.325 201.907 32.3982 202.185 32.3261 202.498C32.254 202.811 32.0417 203.136 31.7316 203.409C31.4009 203.676 30.9989 203.859 30.6134 203.917C30.2279 203.975 29.8902 203.905 29.6739 203.72C28.0268 202.403 26.4356 200.951 24.9536 199.517L24.7597 199.257ZM2.00647 122.57L1.88979 122.236C2.20935 119.906 2.57281 117.553 2.99086 115.21C3.01654 115.056 3.07996 114.895 3.17741 114.738C3.27489 114.581 3.40444 114.429 3.55851 114.293C3.71256 114.157 3.88805 114.038 4.07468 113.944C4.26132 113.85 4.45537 113.783 4.64546 113.746C4.83608 113.706 5.0196 113.697 5.18539 113.72C5.3512 113.743 5.49588 113.797 5.61104 113.879C5.72618 113.961 5.80941 114.069 5.85591 114.198C5.90242 114.326 5.91129 114.472 5.88191 114.626C5.45325 116.94 5.07915 119.262 4.80353 121.57C4.75921 121.875 4.56587 122.202 4.26593 122.478C3.96602 122.754 3.58394 122.957 3.20349 123.042C2.96233 123.06 2.74617 123.02 2.57785 122.929C2.4095 122.837 2.29524 122.696 2.24729 122.521L2.00647 122.57ZM34.5426 207.315C34.4803 207.123 34.4955 206.898 34.5867 206.664C34.6778 206.43 34.8414 206.197 35.0592 205.991C35.2221 205.8 35.4273 205.629 35.6569 205.492C35.8865 205.356 36.1334 205.258 36.3757 205.208C36.6181 205.158 36.8486 205.157 37.0468 205.205C37.245 205.253 37.4048 205.348 37.5123 205.483C39.2261 206.695 40.9945 207.917 42.8401 209.064C42.9624 209.138 43.0543 209.24 43.1104 209.362C43.1664 209.485 43.1856 209.626 43.1667 209.778C43.1478 209.93 43.0914 210.089 43.0005 210.247C42.9096 210.404 42.7861 210.556 42.6372 210.695C42.3351 210.97 41.9537 211.174 41.5723 211.264C41.1909 211.354 40.8386 211.324 40.5886 211.18C38.7324 210.002 36.9094 208.773 35.1411 207.552L34.5426 207.315ZM4.5587 108.485C4.47153 108.376 4.42445 108.241 4.42078 108.091C4.98126 105.712 5.58573 103.311 6.2447 100.918C6.28398 100.763 6.36005 100.603 6.46857 100.448C6.57706 100.293 6.71582 100.147 6.87678 100.017C7.03774 99.8876 7.21771 99.7772 7.40623 99.6925C7.59475 99.6079 7.78809 99.5505 7.97498 99.524C8.35878 99.471 8.69249 99.5471 8.90338 99.7357C9.11428 99.9242 9.18526 100.21 9.10089 100.531C8.43129 102.893 7.81627 105.263 7.28912 107.59C7.25831 107.743 7.19077 107.902 7.09037 108.057C6.98994 108.212 6.85864 108.361 6.70397 108.494C6.54928 108.627 6.37424 108.742 6.18894 108.833C6.00361 108.924 5.81165 108.989 5.62399 109.023C5.40805 109.011 5.2204 108.951 5.0769 108.849C4.93341 108.747 4.83833 108.605 4.79967 108.436L4.5587 108.485ZM45.671 214.206C45.6086 214.036 45.6133 213.835 45.6847 213.624C45.756 213.413 45.8913 213.201 46.0769 213.008C46.2185 212.863 46.3851 212.733 46.5668 212.625C46.7484 212.518 46.9416 212.435 47.1347 212.382C47.3278 212.329 47.5169 212.307 47.691 212.317C47.8651 212.327 48.0206 212.369 48.1482 212.441C50.1044 213.461 52.1046 214.46 54.3033 215.29C54.5672 215.425 54.7132 215.666 54.7121 215.964C54.711 216.262 54.5628 216.594 54.2973 216.894C54.1618 217.039 54.0013 217.171 53.8248 217.281C53.6483 217.391 53.4594 217.477 53.2689 217.535C53.0784 217.594 52.8901 217.623 52.7148 217.62C52.5395 217.618 52.3806 217.585 52.2472 217.522C50.1698 216.597 48.159 215.568 46.0497 214.552C45.9134 214.476 45.807 214.371 45.7361 214.245L45.671 214.206ZM8.48983 94.213C8.36843 94.0873 8.30961 93.9192 8.32009 93.7278C9.12148 91.3002 9.93349 88.9029 10.9213 86.4182C11.0526 86.0973 11.3175 85.7831 11.6627 85.5388C12.0079 85.2945 12.4078 85.1383 12.782 85.1015C13.1476 85.0878 13.45 85.1961 13.6282 85.4047C13.8065 85.6133 13.8473 85.9066 13.7426 86.2257C12.8321 88.6364 12.0095 91.0034 11.1096 93.4444C11.0623 93.6027 10.9779 93.7638 10.8613 93.9183C10.7448 94.0728 10.5985 94.2176 10.4312 94.3439C10.2638 94.4703 10.0787 94.5758 9.88683 94.6541C9.695 94.7325 9.5002 94.782 9.31413 94.8C9.16522 94.7386 9.048 94.6444 8.97014 94.5235C8.89229 94.4026 8.8556 94.2579 8.86258 94.0989L8.48983 94.213ZM57.9705 219.874C57.9182 219.708 57.9248 219.517 57.9897 219.318C58.0547 219.118 58.176 218.915 58.3432 218.728C58.6161 218.436 58.98 218.201 59.3636 218.069C59.7473 217.938 60.1226 217.919 60.416 218.017C62.5161 218.86 64.7481 219.637 66.9589 220.353C67.2454 220.459 67.4228 220.675 67.4545 220.958C67.4861 221.24 67.3694 221.567 67.1287 221.871C67.0091 222.022 66.8613 222.162 66.6938 222.285C66.5263 222.407 66.3424 222.508 66.1527 222.582C65.963 222.657 65.7713 222.703 65.5885 222.718C65.4057 222.734 65.2355 222.718 65.0877 222.672C62.8224 221.947 60.5798 221.14 58.4251 220.289C58.232 220.217 58.0961 220.086 58.0357 219.913L57.9705 219.874ZM14.0635 79.6228C14.0008 79.4237 14.0261 79.1877 14.1362 78.9459C15.1451 76.5219 16.2526 74.0845 17.3707 71.6774C17.4417 71.5146 17.5494 71.3528 17.6873 71.2022C17.8253 71.0515 17.9905 70.915 18.1728 70.801C18.3551 70.687 18.5506 70.5981 18.7475 70.5395C18.9444 70.4808 19.1384 70.4538 19.3177 70.4601C19.4924 70.4641 19.6503 70.4992 19.7822 70.5634C19.9141 70.6277 20.0175 70.7198 20.0864 70.8344C20.1552 70.9491 20.1883 71.084 20.1835 71.2315C20.1788 71.3789 20.1364 71.536 20.0588 71.6936C18.9407 74.1007 17.8241 76.3646 16.9014 78.8881C16.754 79.2065 16.4747 79.5119 16.1219 79.7403C15.7692 79.9688 15.3704 80.1027 15.009 80.1139C14.7966 80.1222 14.6057 80.0853 14.4525 80.0066C14.2992 79.9279 14.1881 79.8096 14.1286 79.6617L14.0635 79.6228ZM71.6837 224.127C71.6359 223.98 71.6345 223.813 71.6797 223.637C71.725 223.461 71.8157 223.28 71.9457 223.107C72.0621 222.955 72.2069 222.814 72.3719 222.69C72.537 222.566 72.719 222.463 72.9076 222.385C73.0961 222.308 73.2876 222.259 73.471 222.24C73.6543 222.221 73.8259 222.233 73.9761 222.275C76.2429 222.857 78.6841 223.494 81.0509 223.919C81.3793 223.975 81.614 224.152 81.7051 224.413C81.7962 224.673 81.7366 224.996 81.5389 225.314C81.4405 225.473 81.3095 225.625 81.1536 225.762C80.9978 225.899 80.8203 226.018 80.6317 226.112C80.4432 226.206 80.2473 226.273 80.0559 226.308C79.8645 226.344 79.6814 226.347 79.5176 226.319C77.075 225.825 74.6339 225.187 72.3338 224.658C72.1601 224.626 72.0118 224.56 71.898 224.463C71.7843 224.367 71.7077 224.242 71.6731 224.096L71.6837 224.127ZM20.9038 65.1147C20.8227 64.8958 20.8564 64.627 20.9992 64.3553C22.2598 61.913 23.6294 59.4876 24.9551 57.0841C25.0535 56.9254 25.1845 56.773 25.3404 56.6358C25.4962 56.4987 25.6737 56.3797 25.8623 56.2859C26.0509 56.1922 26.2466 56.1256 26.438 56.0901C26.6294 56.0545 26.8124 56.0508 26.9763 56.0791C27.3001 56.1314 27.5319 56.304 27.6213 56.5594C27.7107 56.8149 27.6504 57.1327 27.4537 57.4438C26.1174 59.817 24.8236 62.3114 23.5312 64.6627C23.3309 64.9732 23.0109 65.2506 22.6407 65.4347C22.2705 65.6187 21.8799 65.6946 21.5539 65.6459C21.3953 65.6229 21.2577 65.5693 21.1495 65.4884C21.0414 65.4075 20.965 65.301 20.925 65.1754L20.9038 65.1147ZM86.3498 227.123C86.283 226.85 86.3522 226.526 86.5453 226.207C86.7598 225.895 87.0866 225.619 87.4609 225.433C87.8352 225.246 88.2298 225.164 88.5666 225.202C91.0213 225.583 93.5638 225.921 96.0852 226.198C96.4091 226.25 96.6409 226.423 96.7302 226.678C96.8196 226.934 96.7594 227.252 96.5626 227.563C96.3546 227.869 96.0349 228.14 95.668 228.323C95.3011 228.505 94.9142 228.585 94.5853 228.546C91.9655 228.282 89.2471 228.032 86.9136 227.554C86.6446 227.488 86.4467 227.336 86.3498 227.123ZM29.317 50.679C29.2314 50.4188 29.2853 50.101 29.4685 49.785C30.9912 47.3547 32.5683 44.9329 34.1668 42.5717C34.3739 42.2556 34.701 41.9738 35.0784 41.7861C35.4558 41.5984 35.8539 41.5197 36.188 41.5667C36.5119 41.6189 36.7436 41.7916 36.833 42.047C36.9224 42.3025 36.8622 42.6203 36.6654 42.9313C35.111 45.2706 33.5671 47.6402 32.0778 50.0183C31.8706 50.3344 31.5436 50.6163 31.1661 50.8039C30.7887 50.9916 30.3906 51.0703 30.0565 51.0233C29.8611 51.0512 29.6776 51.0427 29.5194 50.9982C29.3612 50.9538 29.232 50.8746 29.1412 50.7664L29.317 50.679ZM101.895 228.649C101.807 228.422 101.837 228.143 101.98 227.859C102.187 227.543 102.514 227.261 102.891 227.074C103.269 226.886 103.667 226.807 104.001 226.854C106.578 226.997 109.244 227.095 111.921 227.081C112.271 227.091 112.548 227.222 112.694 227.448C112.841 227.674 112.845 227.976 112.706 228.293C112.639 228.453 112.535 228.612 112.401 228.761C112.267 228.909 112.105 229.044 111.926 229.156C111.747 229.268 111.555 229.356 111.362 229.413C111.169 229.47 110.978 229.496 110.803 229.489C108.071 229.494 105.581 229.308 102.73 229.266C102.459 229.309 102.208 229.288 102.006 229.206C101.805 229.124 101.659 228.984 101.587 228.802L101.895 228.649ZM39.1167 36.3727C39.0543 36.235 39.0415 36.0726 39.0794 35.8991C39.1173 35.7255 39.2049 35.5456 39.3348 35.3742C41.0863 33.0082 42.8483 30.6725 44.7089 28.3234C44.8285 28.1723 44.9763 28.0317 45.1438 27.9095C45.3114 27.7874 45.4952 27.6862 45.6849 27.6117C45.8746 27.5372 46.0664 27.491 46.2491 27.4757C46.4319 27.4603 46.6021 27.4761 46.7499 27.5222C47.0541 27.6171 47.2482 27.8305 47.2902 28.1162C47.3322 28.4019 47.2187 28.7368 46.9743 29.0482C45.1804 31.293 43.4182 33.6286 41.7001 35.9425C41.493 36.2586 41.1659 36.5404 40.7885 36.7281C40.4111 36.9157 40.013 36.9944 39.6789 36.9475C39.4797 36.9457 39.2998 36.9073 39.1502 36.8348C39.0006 36.7622 38.8846 36.657 38.8091 36.5256L39.1167 36.3727ZM118.067 228.725C117.986 228.549 118 228.327 118.106 228.1C118.237 227.778 118.506 227.464 118.855 227.223C119.205 226.983 119.608 226.836 119.978 226.814C122.678 226.717 125.455 226.546 128.201 226.285C128.385 226.267 128.558 226.28 128.708 226.325C128.858 226.369 128.983 226.443 129.076 226.543C129.168 226.643 129.227 226.766 129.247 226.906C129.267 227.046 129.25 227.199 129.195 227.357C129.08 227.673 128.828 227.987 128.491 228.234C128.155 228.481 127.76 228.642 127.389 228.682C124.578 228.905 121.757 229.097 118.99 229.298C118.723 229.337 118.478 229.311 118.284 229.225C118.09 229.139 117.953 228.996 117.891 228.812L118.067 228.725ZM50.1028 22.5087C50.0425 22.3497 50.0411 22.1637 50.0985 21.9673C50.1558 21.771 50.2703 21.5706 50.4315 21.3841C52.3679 19.1042 54.4026 16.8109 56.4586 14.5782C56.726 14.2856 57.0906 14.0522 57.4728 13.9289C57.8549 13.8056 58.2235 13.8025 58.4981 13.9201C58.7751 14.0431 58.9341 14.2775 58.9412 14.5733C58.9483 14.8691 58.803 15.2028 58.5362 15.5032C56.5135 17.6837 54.5226 19.9552 52.5757 22.2048C52.4496 22.3554 52.2958 22.4944 52.1233 22.6135C51.9508 22.7326 51.763 22.8295 51.571 22.8984C51.3789 22.9674 51.1865 23.0071 51.0049 23.0151C50.8233 23.0232 50.6562 22.9995 50.5134 22.9454C50.2189 22.9203 49.9709 22.8223 49.7952 22.6617L50.1028 22.5087ZM134.845 227.288C134.733 227.169 134.678 227.012 134.686 226.834C134.775 226.52 135.008 226.201 135.335 225.945C135.661 225.689 136.054 225.518 136.427 225.47C139.283 225.082 142.129 224.664 144.942 224.155C145.13 224.119 145.31 224.115 145.47 224.143C145.631 224.17 145.769 224.229 145.876 224.316C145.984 224.402 146.058 224.514 146.095 224.645C146.132 224.777 146.131 224.924 146.091 225.079C146.06 225.232 145.993 225.391 145.892 225.546C145.792 225.701 145.661 225.849 145.506 225.982C145.351 226.115 145.176 226.231 144.991 226.322C144.806 226.412 144.614 226.477 144.426 226.512C141.558 227.012 138.668 227.452 135.768 227.862C135.483 227.922 135.216 227.914 134.998 227.839C134.779 227.764 134.62 227.626 134.538 227.441L134.845 227.288ZM62.3844 9.10428C62.3267 8.93199 62.3337 8.73128 62.4048 8.52141C62.4759 8.31155 62.6087 8.09965 62.7905 7.90572C64.9844 5.72315 67.2146 3.54618 69.4813 1.37491C69.6286 1.23524 69.7988 1.11162 69.9819 1.0115C70.165 0.911371 70.3575 0.836772 70.5481 0.791694C70.7386 0.746616 70.9235 0.731992 71.092 0.748936C71.2606 0.765865 71.4095 0.814025 71.53 0.890355C71.6523 0.964929 71.7441 1.06637 71.8002 1.18902C71.8563 1.31169 71.8754 1.45311 71.8566 1.6049C71.8377 1.75667 71.7811 1.91584 71.6903 2.07326C71.5993 2.2307 71.4759 2.38326 71.327 2.522C69.1195 4.61641 66.889 6.79322 64.8012 8.93491C64.6596 9.07993 64.4931 9.21009 64.3114 9.3175C64.1298 9.4249 63.9366 9.50744 63.7435 9.56031C63.5504 9.61318 63.3613 9.63531 63.1872 9.62531C63.0131 9.61531 62.8575 9.5733 62.7299 9.50201C62.4513 9.50131 62.2208 9.41487 62.0769 9.25719L62.3844 9.10428ZM152.131 224.354L152.014 224.02C152.067 223.709 152.268 223.378 152.575 223.099C152.883 222.82 153.271 222.614 153.658 222.527C155.816 222.059 158.007 221.539 160.176 220.959L162.302 220.4C162.684 220.3 163.041 220.324 163.293 220.465C163.546 220.606 163.674 220.854 163.649 221.154C163.642 221.303 163.597 221.462 163.516 221.621C163.436 221.779 163.321 221.935 163.179 222.078C163.037 222.222 162.871 222.35 162.69 222.456C162.509 222.562 162.317 222.643 162.125 222.695L159.999 223.254C157.731 223.848 155.54 224.367 153.295 224.879C152.926 224.995 152.569 225.006 152.29 224.91C152.01 224.814 151.826 224.617 151.77 224.355L152.131 224.354ZM169.631 219.675L169.547 219.432C169.553 219.135 169.708 218.804 169.98 218.51C170.252 218.215 170.62 217.979 171.006 217.852C173.845 216.975 176.762 216.023 179.701 214.988C179.89 214.92 180.078 214.881 180.256 214.873C180.434 214.866 180.597 214.889 180.736 214.943C180.875 214.997 180.988 215.08 181.066 215.186C181.144 215.293 181.187 215.421 181.192 215.564C181.217 215.849 181.088 216.178 180.835 216.477C180.582 216.776 180.225 217.022 179.843 217.161C176.859 218.217 173.898 219.191 171.015 220.091C170.818 220.18 170.615 220.24 170.42 220.267C170.224 220.295 170.04 220.289 169.877 220.25C169.714 220.212 169.576 220.141 169.472 220.042C169.368 219.944 169.3 219.819 169.271 219.676L169.631 219.675ZM187.137 213.534L187.084 213.382C187.05 213.103 187.167 212.777 187.409 212.477C187.652 212.176 188 211.925 188.379 211.777C191.4 210.583 194.297 209.428 197.07 208.31C197.258 208.23 197.449 208.178 197.632 208.158C197.815 208.137 197.987 208.148 198.136 208.19C198.286 208.232 198.411 208.304 198.503 208.402C198.595 208.5 198.652 208.622 198.672 208.76C198.7 208.896 198.69 209.046 198.644 209.202C198.597 209.359 198.514 209.518 198.4 209.671C198.285 209.824 198.142 209.967 197.977 210.093C197.813 210.219 197.631 210.324 197.442 210.404C194.511 211.612 191.614 212.767 188.663 213.915C188.455 214.039 188.231 214.128 188.011 214.177C187.791 214.226 187.58 214.232 187.396 214.195C187.212 214.158 187.06 214.079 186.952 213.964C186.844 213.85 186.784 213.703 186.776 213.535L187.137 213.534ZM204.489 206.366C204.461 206.23 204.47 206.08 204.517 205.923C204.564 205.767 204.647 205.608 204.761 205.455C204.875 205.302 205.019 205.158 205.183 205.033C205.348 204.907 205.53 204.801 205.719 204.722C208.531 203.324 211.428 202.168 214.272 200.861C214.462 200.771 214.658 200.708 214.849 200.677C215.039 200.646 215.22 200.648 215.381 200.681C215.541 200.714 215.679 200.778 215.784 200.869C215.89 200.961 215.962 201.078 215.995 201.214C216.035 201.347 216.036 201.497 215.999 201.654C215.962 201.812 215.887 201.974 215.778 202.131C215.669 202.288 215.529 202.437 215.366 202.568C215.204 202.7 215.021 202.812 214.83 202.897C211.974 204.317 209.043 205.525 206.178 206.772C205.954 206.921 205.707 207.032 205.461 207.094C205.215 207.156 204.978 207.167 204.772 207.127C204.566 207.086 204.399 206.995 204.287 206.862C204.174 206.729 204.119 206.559 204.128 206.367L204.489 206.366ZM221.695 198.487C221.65 198.358 221.643 198.212 221.676 198.057C221.708 197.902 221.779 197.742 221.884 197.586C221.99 197.43 222.127 197.283 222.287 197.152C222.447 197.021 222.627 196.91 222.816 196.826C225.673 195.406 228.485 194.007 231.297 192.609C231.67 192.424 232.063 192.348 232.391 192.399C232.718 192.45 232.952 192.623 233.043 192.88C233.081 193.011 233.083 193.157 233.048 193.311C233.013 193.465 232.941 193.624 232.837 193.778C232.733 193.932 232.598 194.079 232.441 194.21C232.284 194.341 232.107 194.454 231.921 194.541C229.109 195.94 226.253 197.36 223.397 198.78C223.183 198.924 222.947 199.034 222.711 199.099C222.475 199.165 222.245 199.184 222.041 199.155C221.837 199.126 221.667 199.05 221.543 198.934C221.42 198.818 221.349 198.665 221.335 198.488L221.695 198.487ZM238.808 190.192C238.718 189.937 238.773 189.621 238.961 189.309C239.149 188.997 239.456 188.713 239.82 188.514C242.5 187.181 245.312 185.783 248.15 184.016C248.522 183.811 248.924 183.712 249.271 183.739C249.618 183.766 249.882 183.917 250.007 184.161C250.111 184.413 250.071 184.729 249.896 185.047C249.72 185.366 249.422 185.662 249.06 185.878C246.135 187.545 243.267 189.078 240.378 190.55C240.005 190.736 239.611 190.811 239.284 190.76C238.957 190.71 238.722 190.537 238.632 190.279L238.808 190.192ZM255.429 180.788C255.344 180.552 255.387 180.26 255.551 179.968C255.715 179.677 255.989 179.405 256.32 179.206C258.949 177.578 261.611 175.899 264.34 174.115C264.697 173.885 265.1 173.752 265.463 173.744C265.827 173.736 266.122 173.854 266.286 174.073C266.44 174.298 266.449 174.603 266.311 174.925C266.173 175.246 265.899 175.558 265.546 175.793C262.774 177.599 260.067 179.301 257.395 180.95C257.028 181.173 256.621 181.293 256.261 181.286C255.901 181.278 255.618 181.143 255.472 180.909L255.429 180.788ZM271.483 170.35C271.4 170.127 271.436 169.852 271.585 169.575C271.735 169.298 271.987 169.038 272.296 168.842C274.828 167.084 277.437 165.253 280.036 163.391C280.386 163.142 280.795 162.986 281.172 162.959C281.55 162.931 281.865 163.034 282.048 163.245C282.217 163.458 282.244 163.755 282.125 164.074C282.005 164.392 281.748 164.707 281.407 164.952C278.765 166.836 276.156 168.667 273.536 170.468C273.186 170.696 272.79 170.83 272.429 170.843C272.069 170.857 271.773 170.748 271.601 170.54L271.483 170.35ZM286.997 159.254C286.929 159.037 286.963 158.777 287.093 158.513C287.224 158.25 287.444 157.996 287.722 157.79C290.222 155.941 292.745 154.011 295.268 152.08C295.429 151.95 295.609 151.841 295.798 151.759C295.987 151.676 296.18 151.622 296.366 151.6C296.551 151.578 296.725 151.588 296.877 151.629C297.029 151.671 297.155 151.744 297.248 151.843C297.351 151.934 297.421 152.05 297.451 152.185C297.482 152.32 297.474 152.471 297.427 152.627C297.381 152.784 297.296 152.943 297.18 153.096C297.063 153.249 296.917 153.391 296.75 153.514C294.238 155.476 291.715 157.406 289.171 159.276C289.005 159.402 288.821 159.508 288.631 159.586C288.441 159.665 288.247 159.716 288.062 159.735C287.876 159.754 287.703 159.742 287.552 159.699C287.4 159.655 287.274 159.582 287.18 159.483L286.997 159.254ZM302.013 147.622C301.935 147.418 301.955 147.169 302.07 146.913C302.184 146.658 302.388 146.408 302.651 146.202C305.109 144.232 307.512 142.254 309.904 140.246C310.06 140.111 310.237 139.994 310.424 139.902C310.611 139.81 310.805 139.744 310.995 139.71C311.185 139.675 311.366 139.672 311.528 139.7C311.691 139.728 311.831 139.787 311.941 139.874C312.156 140.055 312.235 140.333 312.163 140.649C312.09 140.964 311.871 141.292 311.551 141.563C309.159 143.571 306.723 145.601 304.221 147.592C303.902 147.854 303.512 148.035 303.137 148.095C302.761 148.155 302.431 148.089 302.218 147.912L302.013 147.622ZM316.435 135.468C316.37 135.272 316.388 135.041 316.487 134.802C316.587 134.563 316.763 134.326 316.995 134.121C319.366 132.052 321.683 129.975 323.901 127.911C324.049 127.767 324.221 127.64 324.408 127.537C324.595 127.435 324.792 127.36 324.985 127.318C325.179 127.275 325.366 127.265 325.534 127.289C325.702 127.313 325.847 127.37 325.96 127.456C326.081 127.529 326.172 127.629 326.226 127.749C326.281 127.87 326.299 128.009 326.279 128.159C326.259 128.308 326.202 128.465 326.11 128.619C326.019 128.774 325.895 128.923 325.747 129.058C323.451 131.196 321.135 133.273 318.73 135.394C318.577 135.529 318.404 135.646 318.219 135.739C318.035 135.832 317.843 135.899 317.655 135.937C317.467 135.974 317.286 135.981 317.123 135.957C316.96 135.933 316.817 135.878 316.704 135.797L316.435 135.468ZM318.498 103.471C317.808 101.5 317.504 99.3017 317.176 97.1861C317.146 97.0489 317.157 96.8959 317.207 96.737C317.256 96.5781 317.344 96.4167 317.465 96.263C317.586 96.1093 317.737 95.9667 317.908 95.844C318.079 95.7214 318.268 95.6214 318.461 95.5504C318.651 95.4733 318.845 95.4246 319.029 95.407C319.214 95.3894 319.386 95.4033 319.536 95.4479C319.686 95.4926 319.811 95.5671 319.903 95.6671C319.995 95.7671 320.053 95.8906 320.073 96.0304C320.379 98.0853 320.849 100.166 321.386 102.142C321.426 102.274 321.427 102.424 321.39 102.581C321.353 102.739 321.277 102.901 321.169 103.058C321.06 103.215 320.92 103.364 320.757 103.495C320.594 103.627 320.412 103.739 320.221 103.824C319.998 103.968 319.756 104.075 319.514 104.136C319.272 104.197 319.039 104.211 318.833 104.177C318.628 104.142 318.458 104.06 318.336 103.937C318.215 103.814 318.147 103.655 318.137 103.472L318.498 103.471ZM320.556 109.354C320.455 109.107 320.5 108.797 320.681 108.487C320.862 108.178 321.164 107.895 321.524 107.698C321.898 107.502 322.298 107.413 322.639 107.449C322.979 107.486 323.233 107.646 323.347 107.895C324.036 109.866 325.111 111.61 326.153 113.263C326.283 113.503 326.269 113.816 326.114 114.138C325.958 114.46 325.673 114.767 325.316 114.997C325.137 115.106 324.946 115.191 324.754 115.246C324.562 115.302 324.373 115.328 324.199 115.322C324.024 115.316 323.866 115.279 323.735 115.212C323.605 115.146 323.503 115.051 323.437 114.934C322.373 113.22 321.409 111.35 320.524 109.263L320.556 109.354ZM316.577 90.7557L316.503 90.5434C316.428 88.2901 316.533 85.9794 316.816 83.6238C316.85 83.3165 317.034 82.9843 317.329 82.698C317.624 82.4117 318.007 82.194 318.395 82.0913C318.586 82.0443 318.772 82.0278 318.942 82.043C319.112 82.0582 319.262 82.1046 319.385 82.1797C319.507 82.2547 319.599 82.3569 319.654 82.4802C319.71 82.6034 319.728 82.7453 319.709 82.8976C319.44 85.1765 319.343 87.4118 319.42 89.5915C319.423 89.7383 319.387 89.896 319.315 90.0555C319.243 90.2149 319.135 90.3729 318.999 90.5201C318.863 90.6673 318.702 90.8008 318.523 90.9126C318.345 91.0245 318.153 91.1124 317.961 91.1714C317.765 91.26 317.564 91.3192 317.371 91.3453C317.177 91.3713 316.995 91.3636 316.835 91.3227C316.676 91.2818 316.542 91.2085 316.444 91.1074C316.345 91.0063 316.282 90.8796 316.261 90.7352L316.577 90.7557ZM327.069 119.714C326.994 119.499 327.024 119.238 327.155 118.973C327.287 118.708 327.512 118.454 327.795 118.25C328.136 118.014 328.528 117.866 328.892 117.838C329.256 117.809 329.564 117.901 329.752 118.095C330.433 118.86 331.201 119.582 331.948 120.243C333.671 118.532 335.383 116.791 337.007 115.093C337.293 114.796 337.675 114.563 338.07 114.447C338.464 114.331 338.839 114.341 339.112 114.474C339.359 114.618 339.49 114.862 339.478 115.157C339.467 115.452 339.315 115.777 339.051 116.07C337.306 117.864 335.483 119.731 333.562 121.612L334.365 122.138C334.597 122.306 334.697 122.576 334.643 122.889C334.588 123.202 334.384 123.534 334.074 123.814C333.922 123.948 333.748 124.065 333.563 124.158C333.379 124.251 333.187 124.319 332.999 124.356C332.811 124.393 332.63 124.4 332.467 124.376C332.304 124.352 332.161 124.297 332.048 124.216L330.757 123.327L330.453 123.193C330.332 123.055 330.27 122.878 330.272 122.678C329.254 121.831 328.303 120.881 327.384 119.878L327.069 119.714ZM318.329 76.8908C318.232 76.7631 318.178 76.6083 318.17 76.4359C318.881 73.9381 319.989 71.3999 321.462 68.8896C321.67 68.5735 321.997 68.2916 322.374 68.104C322.751 67.9163 323.15 67.8376 323.484 67.8845C323.651 67.9076 323.797 67.9624 323.912 68.0456C324.028 68.1288 324.111 68.2388 324.156 68.3689C324.202 68.4991 324.209 68.6467 324.177 68.8031C324.145 68.9595 324.076 69.1216 323.972 69.2794C322.653 71.5774 321.645 73.8962 320.97 76.1827C320.927 76.3378 320.847 76.4963 320.734 76.6486C320.621 76.8008 320.479 76.9436 320.315 77.0683C320.151 77.1931 319.97 77.2972 319.781 77.3742C319.593 77.4512 319.401 77.4996 319.219 77.5165C318.896 77.5761 318.602 77.5447 318.383 77.4273C318.164 77.3099 318.033 77.1136 318.013 76.8702L318.329 76.8908ZM337.779 126.884C337.724 126.732 337.722 126.555 337.773 126.369C337.824 126.182 337.928 125.991 338.075 125.812C338.329 125.513 338.684 125.266 339.066 125.122C339.448 124.979 339.828 124.95 340.126 125.041C341.699 125.574 343.427 125.91 345.274 126.041C345.907 126.082 346.551 126.154 347.228 126.173C347.543 126.234 347.768 126.408 347.856 126.662C347.945 126.915 347.891 127.228 347.706 127.537C347.607 127.696 347.476 127.849 347.32 127.986C347.164 128.123 346.987 128.242 346.798 128.336C346.61 128.429 346.414 128.496 346.223 128.532C346.031 128.567 345.848 128.571 345.684 128.542C345.007 128.523 344.363 128.452 343.675 128.402C341.692 128.197 339.825 127.801 338.103 127.221C337.821 127.178 337.597 127.053 337.462 126.863L337.779 126.884ZM342.824 109.602C342.764 109.443 342.762 109.257 342.819 109.061C342.877 108.864 342.991 108.664 343.153 108.477C345.221 106.132 347.157 103.852 348.874 101.681C349.135 101.377 349.496 101.126 349.886 100.979C350.275 100.831 350.662 100.799 350.969 100.889C351.116 100.937 351.237 101.014 351.325 101.117C351.413 101.22 351.467 101.345 351.483 101.486C351.499 101.627 351.476 101.781 351.417 101.939C351.358 102.097 351.264 102.256 351.139 102.406C349.389 104.629 347.551 106.896 345.307 109.328C345.034 109.626 344.663 109.864 344.273 109.991C343.884 110.118 343.507 110.124 343.224 110.008C343.044 110.01 342.884 109.972 342.759 109.897C342.634 109.823 342.547 109.714 342.507 109.582L342.824 109.602ZM327.458 63.025C327.382 62.8099 327.413 62.5492 327.544 62.2841C327.675 62.019 327.9 61.7645 328.184 61.5606C329.139 60.8719 330.155 60.2589 331.208 59.7364C333.332 58.7032 335.537 58.0081 337.666 57.7002C337.853 57.6718 338.031 57.6744 338.189 57.7082C338.346 57.742 338.481 57.8062 338.585 57.897C338.689 57.9878 338.759 58.1035 338.793 58.2373C338.827 58.3711 338.823 58.5204 338.781 58.6765C338.746 58.8289 338.674 58.986 338.569 59.1384C338.465 59.2908 338.33 59.4354 338.172 59.5635C338.015 59.6916 337.838 59.8005 337.653 59.8839C337.468 59.9673 337.278 60.0234 337.095 60.0489C335.378 60.3173 333.607 60.8825 331.897 61.7075C331.079 62.1062 330.291 62.582 329.555 63.1214C329.387 63.2422 329.203 63.3422 329.014 63.4154C328.825 63.4886 328.634 63.5337 328.452 63.548C328.271 63.5624 328.101 63.5458 327.955 63.4991C327.808 63.4524 327.687 63.3766 327.597 63.276L327.458 63.025ZM353.16 128.385C353.088 128.179 353.11 127.932 353.223 127.678C353.291 127.519 353.394 127.361 353.527 127.212C353.659 127.064 353.818 126.929 353.995 126.815C354.171 126.701 354.361 126.61 354.553 126.548C354.746 126.485 354.937 126.453 355.115 126.452C357.792 126.438 360.537 126.32 363.25 125.967C363.432 125.953 363.601 125.971 363.747 126.019C363.894 126.066 364.015 126.143 364.103 126.245C364.191 126.347 364.245 126.471 364.262 126.611C364.279 126.751 364.258 126.904 364.2 127.061C364.144 127.218 364.052 127.376 363.93 127.526C363.808 127.676 363.658 127.815 363.489 127.936C363.321 128.056 363.136 128.155 362.946 128.227C362.757 128.299 362.565 128.343 362.384 128.356C359.584 128.609 356.785 128.719 354.009 128.746C353.742 128.804 353.49 128.799 353.283 128.732C353.076 128.664 352.924 128.536 352.844 128.365L353.16 128.385ZM353.865 95.7466C353.817 95.6081 353.813 95.4501 353.852 95.2832C353.892 95.1162 353.974 94.9442 354.093 94.7785C355.698 92.4663 357.153 90.1258 358.451 87.7706C358.658 87.4544 358.985 87.1726 359.362 86.985C359.74 86.7973 360.138 86.7186 360.472 86.7655C360.796 86.8178 361.027 86.9903 361.117 87.2458C361.206 87.5012 361.146 87.819 360.949 88.1301C359.585 90.5898 358.063 93.0346 356.392 95.4512C356.294 95.6099 356.162 95.7623 356.007 95.8995C355.851 96.0366 355.673 96.1556 355.485 96.2494C355.296 96.3431 355.1 96.4098 354.909 96.4453C354.718 96.4808 354.535 96.4845 354.371 96.4562C354.127 96.4432 353.92 96.3679 353.775 96.2388C353.629 96.1098 353.551 95.9322 353.548 95.7261L353.865 95.7466ZM344.049 59.5811C343.967 59.3361 344.009 59.0388 344.168 58.7392C344.382 58.4274 344.709 58.1511 345.083 57.965C345.457 57.7789 345.852 57.6965 346.189 57.7342C348.847 57.9852 351.386 58.4373 353.78 59.0858C353.931 59.1279 354.057 59.1995 354.151 59.2964C354.245 59.3933 354.306 59.5136 354.33 59.6505C354.354 59.7874 354.34 59.9381 354.29 60.0941C354.24 60.2501 354.154 60.4083 354.038 60.5597C353.796 60.8708 353.444 61.1346 353.056 61.2942C352.668 61.4538 352.276 61.4966 351.964 61.4131C349.718 60.7977 347.327 60.3783 344.819 60.1596C344.544 60.1801 344.297 60.1351 344.105 60.0295C343.914 59.924 343.785 59.7618 343.733 59.5606L344.049 59.5811ZM369.905 127.001C369.815 126.882 369.764 126.737 369.757 126.577C369.796 126.421 369.872 126.261 369.981 126.106C370.089 125.952 370.228 125.805 370.389 125.675C370.55 125.546 370.73 125.435 370.918 125.351C371.107 125.266 371.3 125.209 371.487 125.182C374.322 124.734 377.169 124.172 380.039 123.529C380.419 123.444 380.767 123.483 381.005 123.639C381.243 123.794 381.352 124.052 381.309 124.357C381.292 124.509 381.238 124.668 381.149 124.826C381.059 124.984 380.937 125.137 380.789 125.277C380.641 125.417 380.471 125.54 380.287 125.64C380.103 125.74 379.91 125.815 379.719 125.859C376.751 126.516 373.806 127.091 370.916 127.531C370.58 127.623 370.262 127.619 370.018 127.518C369.774 127.417 369.622 127.226 369.589 126.98L369.905 127.001ZM361.6 81.2917C361.552 81.1139 361.569 80.9092 361.65 80.6973C362.465 78.4081 362.926 76.156 363.021 73.9994C363.024 73.853 363.064 73.6968 363.14 73.5397C363.215 73.3826 363.324 73.2276 363.461 73.0837C363.597 72.9398 363.759 72.8098 363.935 72.701C364.112 72.5922 364.301 72.5069 364.491 72.4498C364.683 72.3873 364.873 72.3555 365.051 72.3561C365.228 72.3568 365.388 72.39 365.522 72.4538C365.655 72.5176 365.759 72.6105 365.827 72.7268C365.895 72.8431 365.925 72.9804 365.915 73.13C365.824 75.494 365.335 77.9629 364.461 80.4744C364.339 80.7976 364.076 81.1169 363.728 81.3633C363.38 81.6097 362.975 81.7634 362.6 81.7912C362.294 81.8626 362.006 81.8568 361.774 81.7745C361.542 81.6923 361.378 81.5377 361.305 81.3318L361.6 81.2917ZM357.657 63.5307C357.594 63.3387 357.61 63.1133 357.701 62.8796C357.792 62.6457 357.955 62.4126 358.173 62.2059C358.476 61.935 358.856 61.7377 359.234 61.6567C359.611 61.5758 359.954 61.6178 360.188 61.7735C362.137 63.0507 363.643 64.711 364.639 66.6804C364.702 66.7989 364.728 66.9369 364.717 67.0865C364.705 67.236 364.656 67.3942 364.572 67.5517C364.488 67.7093 364.371 67.8633 364.228 68.0046C364.084 68.146 363.917 68.2719 363.736 68.3753C363.556 68.4846 363.364 68.5688 363.171 68.6226C362.978 68.6763 362.789 68.6985 362.616 68.6877C362.443 68.677 362.289 68.6335 362.164 68.56C362.039 68.4865 361.946 68.3846 361.89 68.2606C360.977 66.5497 359.65 65.0942 357.958 63.9504C357.679 63.9079 357.468 63.7736 357.361 63.5708L357.657 63.5307ZM387.268 122.96L387.183 122.718C387.198 122.415 387.365 122.081 387.648 121.787C387.931 121.493 388.307 121.263 388.697 121.146C391.547 120.299 394.453 119.316 397.284 118.265C397.476 118.191 397.669 118.146 397.853 118.133C398.038 118.12 398.208 118.139 398.355 118.188C398.502 118.238 398.623 118.317 398.71 118.422C398.797 118.526 398.849 118.654 398.862 118.797C398.887 119.085 398.761 119.415 398.511 119.718C398.262 120.022 397.907 120.275 397.523 120.424C394.605 121.519 391.6 122.515 388.662 123.406C388.277 123.57 387.885 123.62 387.569 123.544C387.254 123.468 387.039 123.273 386.973 123L387.268 122.96ZM404.745 116.442C404.705 116.309 404.703 116.16 404.74 116.002C404.778 115.845 404.853 115.683 404.962 115.526C405.07 115.369 405.21 115.22 405.373 115.088C405.536 114.957 405.719 114.845 405.91 114.759C407.711 113.863 409.469 112.99 411.27 112.094C412.281 111.591 413.292 111.089 414.302 110.586C414.486 110.49 414.677 110.42 414.866 110.379C415.054 110.338 415.236 110.328 415.401 110.348C415.567 110.368 415.712 110.419 415.828 110.498C415.945 110.576 416.031 110.681 416.081 110.805C416.139 110.929 416.158 111.073 416.138 111.226C416.119 111.38 416.06 111.542 415.967 111.701C415.874 111.861 415.747 112.015 415.594 112.154C415.442 112.294 415.267 112.416 415.08 112.514C414.025 113.038 413.014 113.54 411.96 114.065C410.114 114.982 408.269 115.9 406.423 116.818C406.212 116.948 405.984 117.044 405.758 117.098C405.531 117.153 405.313 117.164 405.121 117.132C404.929 117.099 404.768 117.023 404.651 116.91C404.534 116.797 404.465 116.651 404.449 116.482L404.745 116.442ZM421.612 107.593C421.526 107.356 421.569 107.065 421.733 106.773C421.897 106.482 422.171 106.21 422.502 106.011C425.142 104.413 427.794 102.703 430.413 100.902C430.586 100.785 430.773 100.691 430.964 100.624C431.155 100.557 431.346 100.519 431.526 100.512C431.706 100.505 431.871 100.53 432.012 100.585C432.153 100.639 432.268 100.723 432.348 100.83C432.514 101.04 432.539 101.334 432.417 101.648C432.295 101.961 432.036 102.27 431.697 102.507C428.989 104.352 426.26 106.136 423.533 107.777C423.354 107.885 423.163 107.97 422.971 108.026C422.78 108.082 422.591 108.108 422.416 108.102C422.241 108.096 422.084 108.059 421.953 107.992C421.822 107.926 421.72 107.831 421.654 107.714L421.612 107.593ZM437.341 96.8172C437.218 96.6672 437.171 96.4705 437.204 96.2513C437.237 96.0322 437.35 95.8004 437.528 95.5847C439.963 93.6976 442.41 91.6978 444.748 89.681C444.901 89.5464 445.074 89.4292 445.259 89.3361C445.444 89.243 445.635 89.176 445.824 89.1386C446.012 89.1013 446.193 89.0944 446.356 89.1185C446.519 89.1426 446.661 89.197 446.774 89.2788C446.994 89.4583 447.082 89.7339 447.019 90.0493C446.957 90.3647 446.75 90.6962 446.439 90.976C444.068 93.045 441.533 95.0885 439.065 97.0278C438.724 97.2859 438.319 97.4548 437.938 97.4976C437.556 97.5405 437.23 97.4537 437.03 97.2564L437.341 96.8172ZM451.501 84.5076C451.437 84.3334 451.445 84.1268 451.525 83.9111C451.604 83.6954 451.752 83.4792 451.951 83.2871C454.148 81.1623 456.225 78.9903 458.238 76.7795C458.517 76.4821 458.894 76.2473 459.286 76.1258C459.677 76.0042 460.053 76.0057 460.331 76.1299C460.471 76.1876 460.582 76.2751 460.657 76.387C460.733 76.499 460.771 76.633 460.769 76.7807C460.768 76.9284 460.726 77.0867 460.648 77.2456C460.57 77.4045 460.457 77.5607 460.315 77.7045C458.27 79.9675 456.104 82.1832 453.906 84.4511C453.608 84.7373 453.224 84.9538 452.835 85.0542C452.445 85.1545 452.083 85.1307 451.824 84.9879L451.501 84.5076ZM463.739 71.125C463.696 70.9733 463.7 70.8011 463.753 70.6209C463.806 70.4407 463.906 70.257 464.045 70.0829C465.883 67.8163 467.601 65.5023 469.265 63.18C469.472 62.8639 469.799 62.5821 470.176 62.3945C470.553 62.2068 470.952 62.1281 471.286 62.175C471.453 62.1981 471.599 62.2529 471.714 62.3361C471.83 62.4193 471.913 62.5293 471.958 62.6595C472.004 62.7896 472.011 62.9372 471.979 63.0937C471.948 63.2501 471.878 63.4121 471.774 63.57C470.077 65.9445 468.271 68.302 466.4 70.6207C466.152 70.9311 465.794 71.1916 465.403 71.3457C465.013 71.4998 464.622 71.535 464.315 71.4438C463.948 71.4604 463.639 71.3616 463.443 71.1651L463.739 71.125ZM473.766 57.026C473.722 56.9028 473.713 56.763 473.741 56.6148C473.769 56.4665 473.832 56.3128 473.928 56.1622C475.373 53.806 476.754 51.4109 477.991 49.0511C478.072 48.8941 478.186 48.7403 478.326 48.5983C478.466 48.4563 478.63 48.329 478.809 48.2236C478.988 48.1182 479.177 48.0368 479.367 47.9841C479.557 47.9314 479.744 47.9084 479.916 47.9163C480.088 47.9242 480.242 47.9629 480.371 48.0303C480.499 48.0976 480.598 48.1922 480.663 48.3088C480.728 48.4254 480.757 48.5616 480.748 48.7097C480.739 48.8577 480.693 49.0148 480.613 49.1717C479.352 51.6141 477.939 54.0612 476.471 56.4999C476.263 56.816 475.936 57.0979 475.559 57.2855C475.182 57.4732 474.783 57.5519 474.449 57.505C474.226 57.5109 474.024 57.4749 473.855 57.3992C473.686 57.3235 473.555 57.2101 473.47 57.0662L473.766 57.026ZM481.305 42.5979C481.249 42.401 481.259 42.1767 481.334 41.9427C482.353 39.5489 483.274 37.1686 484.009 34.8453C484.056 34.687 484.141 34.5259 484.257 34.3714C484.374 34.2169 484.52 34.0721 484.688 33.9458C484.855 33.8194 485.04 33.714 485.232 33.6357C485.424 33.5574 485.618 33.5077 485.805 33.4898C486.177 33.4548 486.493 33.5449 486.687 33.7409C486.88 33.9368 486.936 34.2233 486.843 34.54C486.041 36.9677 485.141 39.4087 484.22 41.789C484.156 41.9487 484.056 42.1085 483.926 42.2587C483.796 42.409 483.639 42.5467 483.464 42.6639C483.288 42.781 483.098 42.875 482.905 42.9405C482.712 43.006 482.519 43.0416 482.338 43.0451C482.011 43.1513 481.692 43.1703 481.433 43.0987C481.174 43.0272 480.99 42.8695 480.911 42.6513L481.305 42.5979ZM485.925 28.2322L485.798 27.8683C486.316 25.5322 486.679 23.2242 486.887 20.9546C486.932 20.6486 487.122 20.3216 487.418 20.0417C487.714 19.7619 488.093 19.5508 488.477 19.4524C488.864 19.3575 489.223 19.3865 489.476 19.533C489.73 19.6796 489.858 19.9322 489.834 20.2369C489.559 22.5455 489.206 24.9281 488.7 27.3156C488.629 27.632 488.411 27.9617 488.091 28.2337C487.772 28.5058 487.376 28.6986 486.991 28.7706C486.652 28.8654 486.329 28.8643 486.078 28.7677C485.827 28.6711 485.665 28.485 485.619 28.242L485.925 28.2322Z" fill="url(#paint0_linear_3_98)"/>
<defs>
<linearGradient id="paint0_linear_3_98" x1="464.141" y1="-53.4219" x2="-13.8084" y2="113.784" gradientUnits="userSpaceOnUse">
<stop stop-color="#0D0CB5"/>
<stop offset="1" stop-color="#C0242A"/>
</linearGradient>
</defs>
</svg>
