<svg width="1730" height="3179" viewBox="0 0 1730 3179" fill="none" xmlns="http://www.w3.org/2000/svg">
<path fill-rule="evenodd" clip-rule="evenodd" d="M-5.43617 1724.5C-5.43662 1434.5 -5.4365 1669.5 -5.4365 1243C-5.43618 847.322 -5.4365 1298 -5.43618 847.322C390.741 561.928 516.091 56.6588 1035 6.31405C1548.02 -43.4599 1730 236 1730 657C1730 941 1730 817 1730 1101C1730 1429 1730 1560.5 1730 1861C1730 2435 1730 2260 1730 2801.5C1325.97 3044.7 833.674 3254.41 427.327 3151.64C-5.93815 3042.07 319.049 2497.3 -5.43639 2293C-5.43671 1986.5 -5.4354 1992 -5.43617 1724.5Z" fill="#BAB2A2" fill-opacity="0.28"/>
</svg>
