<svg width="1846" height="1946" viewBox="0 0 1846 1946" fill="none" xmlns="http://www.w3.org/2000/svg">
<path fill-rule="evenodd" clip-rule="evenodd" d="M1341 34.1369C1427 -27.3784 1628.56 -5.61978 1842.5 117.5C1842.5 460.5 1842.24 347.5 1842.5 510.503C1843 821.932 1842.5 510.503 1845.5 821.5C1845.5 1133.86 1840.4 1324.36 1834 1856.64C1565.3 1950.43 1570.81 1976.94 1341 1904.5C1111.19 1832.07 768.827 1773.48 502.196 1668.42C210.56 1553.52 140.825 1469.13 0 1269.32C0.000897272 996.782 9.56244e-06 949.775 0.000256263 648.228C5.52973e-10 385.687 517.077 614.766 850.003 496.905C1111.32 404.393 1070.65 212.159 1341 34.1369Z" fill="#E3F5FE"/>
</svg>
