<svg width="1619" height="396" viewBox="0 0 1619 396" fill="none" xmlns="http://www.w3.org/2000/svg">
<path fill-rule="evenodd" clip-rule="evenodd" d="M1083.07 239.683C1077.31 245.228 1078.95 244.58 1065.55 240.524C1053.79 236.683 1059.37 235.411 1048.85 241.58C1039.37 247.341 1023.89 253.078 1016.69 257.543C1019.39 263.712 1042.46 283.947 1048.03 292.253C1045.97 293.309 1044.32 294.173 1042.06 295.229C1038.55 296.934 1039.39 296.934 1035.26 294.389C1026.19 289.06 997.109 272.017 991.347 269.473C983.727 272.881 963.515 283.539 956.522 283.107C953.223 282.891 947.857 282.051 948.902 277.778C951.574 267.336 969.718 261.599 981.473 256.27C986.213 254.134 984.981 254.35 986.004 249.021C987.258 243.284 995.087 201.54 996.923 199.404C997.736 198.756 1004.12 195.995 1005.38 195.347C1006.01 199.188 1006.4 203.437 1006.61 207.494L1008.68 231.138C1008.68 234.979 1009.31 239.443 1009.91 243.068C1015.28 240.308 1020.62 237.955 1026.19 235.195C1053.82 221.56 1048.87 230.73 1055.26 215.391C1058.98 206.869 1058.98 201.757 1067.01 203.029C1065.55 220.096 1070.08 230.73 1083.07 239.683ZM848.494 74.6295C855.928 76.9819 854.255 77.198 864.57 67.3802C873.631 58.8587 868.078 60.1309 880.229 61.2111C890.939 62.0512 907.433 60.563 915.89 61.4271C916.099 68.0283 903.53 96.5695 901.881 106.579C904.157 106.579 905.993 106.579 908.479 106.579C912.405 106.579 911.568 107.011 914.449 102.955C920.42 94.001 939.4 65.6759 943.721 60.995C952.178 60.779 974.643 61.2111 980.823 58.0185C983.704 56.3142 988.234 52.9056 985.562 49.497C978.755 41.4075 960.007 44.168 947.23 44.6001C942.072 44.6001 943.327 44.384 940.004 40.1353C936.496 35.4544 912.172 1.15221 909.71 0.0960174C908.688 -0.120022 901.672 0.0960174 900.44 0.0960174C901.277 3.93671 902.717 7.7534 904.157 11.5941L912.196 33.9421C913.636 37.3508 915.076 41.8156 916.122 45.2242C910.151 45.0081 904.157 45.2242 897.978 45.2242C867.474 45.2242 875.931 51.3933 863.548 40.3273C856.764 34.1582 854.697 29.6694 847.89 34.3742C856.137 49.0889 856.532 60.779 848.494 74.6295ZM845.195 52.9056C848.285 52.4735 849.33 57.3704 845.799 58.0185L840.85 58.6666C837.761 59.3147 836.506 54.2018 840.014 53.5537L845.195 52.9056ZM407.412 393.671C405.763 397.08 401.232 394.511 402.673 391.535L403.904 388.774C405.553 385.582 410.084 388.126 408.434 391.127L407.412 393.671ZM415.241 376.844C413.592 380.037 409.061 377.708 410.711 374.492L412.988 369.811C414.428 366.618 418.958 369.163 417.518 372.139L415.241 376.844ZM424.511 358.097C423.07 361.073 418.331 358.937 419.98 355.744L422.443 351.064C423.883 348.087 428.414 350.223 426.973 353.632L424.511 358.097ZM434.408 339.781C432.549 342.974 428.228 339.998 429.877 337.213L432.549 332.532C434.408 329.34 438.52 332.316 436.87 335.077L434.408 339.781ZM444.723 321.682C442.864 324.659 438.543 321.898 440.401 318.922L443.073 314.457C444.723 311.48 449.253 314.241 447.394 317.217L444.723 321.682ZM455.642 303.799C453.992 306.559 449.462 304.015 451.32 301.039L454.201 296.574C455.851 293.813 460.381 296.358 458.313 299.55L455.642 303.799ZM466.979 286.54C464.911 289.3 461.008 286.108 462.867 283.347L465.747 279.099C467.815 276.338 471.927 279.531 469.859 282.291L466.979 286.54ZM478.92 269.497C476.852 272.257 472.949 269.065 474.994 266.304L478.084 262.055C480.151 259.295 484.054 262.704 481.987 265.248L478.92 269.497ZM490.884 253.534C489.026 254.59 486.772 252.886 486.958 250.773C486.749 249.501 487.771 247.797 489.235 247.581L490.884 245.444C492.952 242.9 497.064 246.093 494.811 248.853L494.392 249.501L495.206 249.717C498.504 250.989 496.437 255.886 493.347 254.614L490.884 253.534ZM504.707 236.923C502.222 239.491 498.737 235.867 500.99 233.298L504.289 229.458C506.752 226.697 510.26 230.514 508.006 232.866L504.707 236.923ZM518.507 221.368C516.23 223.913 512.327 220.312 514.79 217.743L518.298 213.903C520.575 211.358 524.269 214.959 522.015 217.527L518.507 221.368ZM532.725 206.461C530.053 208.814 526.755 204.757 529.217 202.621L532.725 198.996C535.397 196.428 538.696 200.484 536.442 202.837L532.725 206.461ZM547.57 191.987C545.085 194.339 541.6 190.498 544.062 188.146L547.989 184.521C550.451 182.169 553.959 186.226 551.287 188.578L547.57 191.987ZM562.81 178.352C560.534 180.489 557.049 176.648 559.721 174.32L563.647 170.911C566.528 168.559 569.408 173.047 566.737 174.968L562.81 178.352ZM578.887 165.15C576.006 167.286 573.125 163.014 575.797 161.093L579.723 157.901C582.604 155.764 585.485 160.037 582.813 161.957L578.887 165.15ZM595.173 152.788C592.71 154.708 589.411 150.651 592.292 148.539C593.732 147.483 595.173 146.402 596.613 145.562C599.076 143.642 602.375 147.699 599.494 149.811C598.077 150.867 596.636 151.731 595.173 152.788ZM612.086 141.074C609.205 142.994 606.719 138.313 609.414 136.609L613.735 133.848C616.616 131.928 619.311 136.609 616.407 138.313L612.086 141.074ZM629.393 130.224C626.722 131.928 623.841 127.463 626.931 125.543L631.461 122.998C634.133 121.294 637.013 125.759 633.924 127.679L629.393 130.224ZM647.328 119.998C644.029 121.702 641.962 116.805 644.843 115.317L649.373 112.772C652.463 111.284 654.739 116.181 651.859 117.669L647.328 119.998ZM665.473 110.636C662.592 112.124 660.106 107.443 663.196 105.739C664.845 105.091 666.286 104.251 667.935 103.603C670.816 102.114 673.093 106.795 670.003 108.284C668.562 109.124 666.913 109.772 665.473 110.636ZM684.012 101.898C680.713 103.171 679.063 98.2738 681.944 97.0016L686.683 94.8652C689.982 93.5929 691.632 98.6819 688.542 99.7621L684.012 101.898ZM702.783 94.001C699.693 95.2732 697.835 90.3764 700.924 89.1041L705.873 87.1838C708.754 85.9116 710.821 90.8084 707.522 92.0807L702.783 94.001ZM721.949 86.7757C718.859 87.8319 717.001 82.935 720.3 81.8788C721.949 81.2307 723.599 80.6066 725.248 80.1745C728.129 78.9023 729.988 83.7992 726.689 85.0714C725.039 85.6955 723.599 86.1276 721.949 86.7757ZM741.325 80.3905C737.817 81.2307 736.795 76.1418 739.884 75.2776L744.833 73.7894C748.132 72.9492 749.363 78.0381 746.064 78.9023L741.325 80.3905ZM760.909 74.6295C757.61 75.4937 756.379 70.3807 759.678 69.5166L764.626 68.2444C767.716 67.4042 769.157 72.4931 765.858 73.3573L760.909 74.6295ZM780.68 69.7326C777.59 70.5728 775.94 65.4838 779.448 64.4037L784.606 63.3475C788.114 62.6993 788.741 68.0283 785.628 68.4604L780.68 69.7326ZM800.473 65.2678C797.174 65.9159 796.361 60.803 799.66 60.1549L804.609 59.3147C808.117 58.6666 808.93 63.7795 805.631 64.4277L800.473 65.2678ZM820.662 61.6432C817.363 62.2913 816.341 57.1783 819.849 56.5302L824.797 55.6901C828.096 55.042 829.118 60.3709 825.61 61.019L820.662 61.6432ZM134.297 267.792C128.513 273.337 130.185 272.689 116.78 268.441C105.025 264.816 110.601 263.328 100.077 269.713C90.598 275.258 75.1256 281.211 67.9237 285.676C70.5953 291.845 93.6879 312.081 99.2635 320.386C97.1959 321.442 95.5464 322.09 93.2929 323.146C89.7849 325.067 90.6213 325.067 86.486 322.498C77.4255 317.169 48.3624 299.91 42.5776 297.582C34.9575 300.99 14.7457 311.648 7.75293 311.216C4.45399 311 -0.912587 309.944 0.13285 305.671C2.80452 295.229 20.9487 289.492 32.704 284.163C37.4434 282.027 36.2121 282.459 37.2343 277.13C38.4656 271.177 46.318 229.65 48.1533 227.513C48.7805 226.865 55.3552 223.889 56.6097 223.456C57.237 227.297 57.6551 231.33 57.841 235.387L59.9086 259.247C59.9086 262.872 60.5359 267.552 61.1399 270.961C66.5065 268.393 71.8499 265.848 77.4255 263.304C105.048 249.669 99.8908 258.839 106.489 243.5C110.206 234.979 109.997 229.866 118.244 231.138C116.78 248.205 121.311 258.863 134.297 267.792ZM128.327 246.717C125.237 247.773 126.468 252.67 129.976 251.83L134.716 250.125C137.596 249.261 136.574 244.172 133.066 245.012L128.327 246.717ZM665.263 361.289C667.935 363.642 670.816 359.369 668.353 357.257L666.286 355.552C663.405 353.2 660.524 357.473 662.987 359.609L665.263 361.289ZM651.045 349.575C653.717 351.712 656.807 347.655 654.344 345.519L650.232 342.11C647.561 339.974 644.471 344.246 647.143 346.359L651.045 349.575ZM634.969 336.805C637.432 338.941 640.73 334.885 638.059 332.556L633.947 329.364C631.275 327.443 627.976 331.5 630.857 333.636L634.969 336.805ZM618.474 324.443C621.355 326.579 624.05 321.898 621.355 320.194L617.034 317.217C614.153 315.081 611.458 319.786 614.153 321.466L618.474 324.443ZM601.561 312.729C604.442 314.649 607.137 310.184 604.442 308.264L600.121 305.503C597.24 303.583 594.359 307.856 597.24 309.776L601.561 312.729ZM584.463 301.447C587.134 303.151 590.015 298.902 586.925 296.982L582.604 294.221C579.932 292.517 577.052 296.766 579.932 298.686L584.463 301.447ZM566.737 290.789C570.036 292.493 572.103 287.812 569.408 286.108L564.878 283.563C561.788 281.859 559.512 286.54 562.416 288.244L566.737 290.789ZM549.011 280.779C552.101 282.267 554.168 277.586 551.287 276.098L546.757 273.529C543.667 272.041 541.391 276.722 544.48 278.21L549.011 280.779ZM530.657 271.417C533.747 272.905 536.024 268.225 532.911 266.52L528.381 264.384C525.5 262.896 523.014 267.36 526.104 269.065L530.657 271.417ZM512.327 262.68C515.626 263.952 517.276 259.055 514.186 257.783L509.447 255.646C506.357 254.374 504.498 259.271 507.588 260.543L512.327 262.68ZM474.39 247.341C477.898 248.397 478.92 243.284 476.039 242.444L471.091 240.74C467.583 239.683 466.561 244.796 469.441 245.636L474.39 247.341ZM455.014 240.956C458.104 242.012 459.545 236.899 456.455 235.843L451.506 234.354C448.207 233.49 446.767 238.603 450.066 239.467L455.014 240.956ZM435.43 235.435C438.31 236.275 440.169 231.402 436.661 230.322L431.713 229.049C427.996 228.209 427.392 233.514 430.481 234.162L435.43 235.435ZM415.659 230.538C418.958 231.186 419.771 226.073 416.682 225.425L411.524 224.369C408.225 223.72 407.203 228.833 410.479 229.482L415.659 230.538ZM395.657 226.697C398.747 227.345 399.978 222.232 396.47 221.368C394.82 221.152 392.962 220.72 391.312 220.528C388.222 219.88 386.991 224.993 390.499 225.857C392.149 226.049 394.007 226.265 395.657 226.697ZM375.468 223.504C378.976 223.937 379.394 218.608 376.095 218.392L371.147 217.743C367.639 217.311 367.221 222.64 370.52 222.856L375.468 223.504ZM355.256 221.368C358.555 221.584 359.183 216.471 355.674 216.039L350.517 215.607C347.427 215.175 346.614 220.504 350.308 220.936L355.256 221.368ZM335.068 219.88C338.576 220.096 338.367 214.767 335.277 214.767L330.119 214.551C326.611 214.335 326.611 219.664 329.91 219.664L335.068 219.88ZM314.647 219.448C317.946 219.448 318.155 214.119 314.647 214.119C312.997 214.119 311.139 214.119 309.489 214.119C306.4 214.119 305.981 219.448 309.489 219.448C311.371 219.448 312.997 219.448 314.647 219.448ZM294.249 219.88C297.966 219.448 297.339 214.335 294.04 214.551L289.092 214.767C285.584 214.983 286.002 220.312 289.301 220.096L294.249 219.88ZM274.061 220.936C277.36 220.72 276.941 215.391 273.643 215.607L268.485 216.039C265.186 216.255 265.604 221.584 268.903 221.368L274.061 220.936ZM253.849 222.856C256.939 222.64 256.73 217.311 253.222 217.743C251.572 217.959 249.714 218.175 248.064 218.392C244.974 218.608 245.183 223.937 248.691 223.504C250.341 223.288 251.99 223.072 253.849 222.856ZM233.66 225.617C237.168 224.969 235.937 219.88 232.847 220.504L227.667 221.152C224.368 222.016 225.39 227.129 228.48 226.481L233.66 225.617ZM213.449 229.242C216.747 228.593 215.934 223.288 212.635 223.913L207.478 224.969C204.388 225.617 205.201 230.73 208.5 230.082L213.449 229.242ZM193.655 233.298C196.745 232.866 195.932 227.561 192.424 228.185L187.475 229.458C183.967 230.322 185.617 235.411 188.707 234.57L193.655 233.298ZM173.885 238.411C177.183 237.355 175.743 232.242 172.444 233.298L167.496 234.57C164.197 235.411 165.637 240.524 168.936 239.683L173.885 238.411ZM154.091 243.956C157.39 243.116 156.159 237.787 152.651 238.843L147.911 240.332C144.821 241.172 145.844 246.285 149.352 245.444L154.091 243.956ZM1077.07 218.608C1073.98 219.664 1075.21 224.561 1078.72 223.72L1083.46 222.016C1086.34 221.152 1085.53 216.063 1081.81 217.119L1077.07 218.608ZM1614.01 333.396C1616.68 335.533 1619.77 331.26 1617.1 329.34L1615.03 327.419C1612.15 325.067 1609.27 329.556 1611.73 331.476L1614.01 333.396ZM1599.79 321.682C1602.49 323.819 1605.55 319.546 1603.09 317.433L1598.96 314.241C1596.28 312.105 1593.17 316.161 1595.87 318.298L1599.79 321.682ZM1583.72 308.696C1586.18 310.832 1589.48 306.776 1586.8 304.639L1582.69 301.447C1580.02 299.31 1576.72 303.367 1579.6 305.695L1583.72 308.696ZM1567.22 296.55C1570.1 298.47 1572.8 294.005 1570.1 292.085L1565.99 289.108C1562.9 287.188 1560.2 291.677 1563.11 293.573L1567.22 296.55ZM1550.33 284.62C1553.21 286.54 1555.88 282.075 1553.21 280.155L1548.89 277.394C1546.01 275.474 1543.31 279.963 1546.01 281.859L1550.33 284.62ZM1533.21 273.337C1535.9 275.258 1538.78 270.985 1535.9 268.873L1531.37 266.112C1528.91 264.408 1525.82 268.657 1528.91 270.793L1533.21 273.337ZM1515.69 262.68C1518.78 264.384 1520.85 259.703 1518.18 258.215L1513.65 255.454C1510.56 253.966 1508.28 258.647 1511.18 260.135L1515.69 262.68ZM1497.78 252.67C1500.87 254.158 1503.15 249.693 1500.03 247.989L1495.5 245.636C1492.41 243.932 1490.35 248.829 1493.23 250.317L1497.78 252.67ZM1479.43 243.308C1482.52 244.796 1484.79 240.115 1481.7 238.627L1477.17 236.275C1474.29 234.786 1471.83 239.467 1474.9 240.956L1479.43 243.308ZM1461.07 234.57C1464.37 235.843 1466.02 230.946 1462.93 229.674L1458.4 227.537C1455.1 226.265 1453.24 231.378 1456.33 232.434L1461.07 234.57ZM1442.12 226.697C1445.21 227.969 1447.25 223.072 1443.97 221.584L1439.24 219.88C1436.15 218.608 1434.29 223.504 1437.38 224.777L1442.12 226.697ZM1423.16 219.448C1426.67 220.504 1427.69 215.199 1424.81 214.335L1419.86 212.63C1416.35 211.574 1415.33 216.687 1418.21 217.743L1423.16 219.448ZM1403.78 212.847C1407.08 213.903 1408.31 208.814 1405.22 207.95L1400.28 206.461C1396.98 205.405 1395.54 210.518 1398.84 211.358L1403.78 212.847ZM1384.2 207.326C1387.08 208.166 1388.94 203.269 1385.43 202.213L1380.48 200.94C1376.76 200.1 1376.14 205.405 1379.25 206.053L1384.2 207.326ZM1364.41 202.621C1367.7 203.269 1368.52 197.94 1365.43 197.292L1360.27 196.236C1356.97 195.587 1356.13 200.7 1359.46 201.348L1364.41 202.621ZM1344.43 198.588C1347.52 199.236 1348.77 194.123 1345.24 193.475C1343.59 193.043 1341.94 192.827 1340.08 192.419C1337.2 191.987 1335.76 197.1 1339.27 197.748C1341.13 197.94 1342.78 198.372 1344.43 198.588ZM1324.21 195.395C1327.72 195.827 1328.14 190.715 1324.84 190.282L1319.89 189.634C1316.39 189.202 1315.97 194.531 1319.27 194.747L1324.21 195.395ZM1304.03 193.259C1307.32 193.691 1307.93 188.362 1304.44 187.93L1299.29 187.498C1296.2 187.282 1295.36 192.395 1299.08 192.827L1304.03 193.259ZM1283.81 191.987C1287.32 191.987 1287.11 186.658 1284.02 186.658L1278.87 186.442C1275.36 186.442 1275.36 191.555 1278.66 191.771L1283.81 191.987ZM1263.42 191.339C1266.72 191.339 1266.92 186.226 1263.42 186.01C1261.77 186.01 1259.91 186.01 1258.26 186.01C1255.17 186.01 1254.75 191.339 1258.26 191.339C1260.12 191.339 1261.77 191.339 1263.42 191.339ZM1243.02 191.771C1246.74 191.555 1246.11 186.226 1242.81 186.442L1237.86 186.658C1234.35 186.874 1234.77 192.203 1238.07 191.987L1243.02 191.771ZM1222.81 192.827C1226.11 192.611 1225.9 187.282 1222.39 187.714L1217.23 188.146C1213.93 188.362 1214.35 193.475 1217.65 193.259L1222.81 192.827ZM1202.62 194.963C1205.71 194.531 1205.5 189.202 1201.99 189.634C1200.34 189.85 1198.48 190.066 1196.83 190.282C1193.74 190.498 1193.95 195.827 1197.46 195.395C1199.11 195.179 1200.76 194.963 1202.62 194.963ZM1182.41 197.508C1185.91 196.86 1184.66 191.771 1181.59 192.395L1176.44 193.235C1173.14 193.883 1174.16 198.996 1177.25 198.348L1182.41 197.508ZM1162.19 201.132C1165.49 200.484 1164.68 195.395 1161.38 196.019L1156.25 196.86C1153.16 197.508 1153.97 202.813 1157.27 202.189L1162.19 201.132ZM1142.42 205.405C1145.51 204.757 1144.7 199.452 1141.19 200.292L1136.24 201.348C1132.74 202.405 1134.39 207.326 1137.48 206.461L1142.42 205.405ZM1122.63 210.302C1125.93 209.246 1124.49 204.349 1121.4 205.189L1116.24 206.461C1112.94 207.518 1114.38 212.414 1117.68 211.574L1122.63 210.302ZM1103.05 215.823C1106.14 214.983 1104.9 209.87 1101.61 210.71L1096.66 212.198C1093.57 213.039 1094.59 218.368 1098.1 217.311L1103.05 215.823Z" fill="#DADADA"/>
</svg>
