<svg width="139" height="60" viewBox="0 0 139 60" fill="none" xmlns="http://www.w3.org/2000/svg">
<path d="M2.73744 49.3914L2.45698 48.8753C2.44173 48.8473 2.43709 48.8142 2.44337 48.778C2.44966 48.7417 2.46672 48.703 2.49353 48.6643C2.52035 48.6255 2.55637 48.5874 2.59947 48.5522C2.64258 48.5171 2.69188 48.4856 2.74444 48.4596C2.79655 48.4328 2.85118 48.4118 2.9051 48.398C2.95902 48.3842 3.01114 48.3778 3.05834 48.3792C3.10554 48.3807 3.14689 48.3899 3.1799 48.4063C3.21291 48.4227 3.23693 48.446 3.25051 48.4749C3.48128 48.8995 3.70848 49.3176 3.93215 49.7292C3.96598 49.7836 3.95818 49.8575 3.91036 49.9352C3.86254 50.0129 3.77849 50.0883 3.67608 50.1454C3.57063 50.1999 3.45731 50.2306 3.35936 50.2313C3.2614 50.232 3.18625 50.2027 3.14927 50.1492L2.73744 49.3914ZM1.90751 47.578C1.67674 47.1534 1.57968 46.6599 1.44615 46.1851C1.43718 46.1545 1.43884 46.1195 1.45104 46.0823C1.46324 46.0451 1.48572 46.0064 1.51719 45.9684C1.54866 45.9304 1.58848 45.8939 1.63434 45.861C1.6802 45.8281 1.73116 45.7995 1.78428 45.7768C1.83727 45.7536 1.89151 45.7368 1.94385 45.7272C1.99618 45.7177 2.04556 45.7157 2.08912 45.7212C2.13269 45.7268 2.16957 45.7399 2.1976 45.7597C2.22563 45.7795 2.24424 45.8057 2.25238 45.8367C2.38236 46.3049 2.53666 46.7605 2.71171 47.1971C2.73288 47.258 2.71137 47.3355 2.65179 47.413C2.59222 47.4906 2.49927 47.5621 2.39284 47.6123C2.34082 47.637 2.28698 47.6556 2.23441 47.6673C2.18183 47.6789 2.13157 47.6832 2.08649 47.6801C2.0414 47.6769 2.00238 47.6662 1.97166 47.6487C1.94095 47.6312 1.91914 47.6072 1.90751 47.578ZM3.97018 51.3736C3.9407 51.3211 3.94838 51.2515 3.99177 51.1783C4.03517 51.1051 4.11125 51.0332 4.2055 50.9764C4.30798 50.919 4.42099 50.8844 4.52036 50.8801C4.61974 50.8758 4.69762 50.902 4.73736 50.9533C4.97919 51.2552 5.22607 51.5377 5.50791 51.8273L5.70361 52.0443C5.72717 52.0673 5.7408 52.0963 5.74364 52.1296C5.74648 52.1629 5.73848 52.1997 5.72015 52.238C5.70182 52.2763 5.67349 52.3152 5.63685 52.3525C5.6002 52.3897 5.55599 52.4246 5.50681 52.455C5.40944 52.5148 5.2988 52.5534 5.19894 52.5626C5.09908 52.5718 5.01805 52.5507 4.97342 52.5041L4.76559 52.2934C4.48729 52.0103 4.24041 51.7277 3.98083 51.3932L3.97018 51.3736ZM1.05115 44.7999L1.03339 44.7672C0.943423 44.2868 0.858511 43.787 0.801453 43.2812C0.795481 43.2154 0.830889 43.137 0.900328 43.0623C0.969767 42.9876 1.06794 42.9223 1.17453 42.88C1.22914 42.8587 1.28421 42.8444 1.3364 42.8379C1.38859 42.8313 1.43684 42.8326 1.47819 42.8418C1.51954 42.851 1.55315 42.8678 1.57698 42.8913C1.60082 42.9147 1.61436 42.9443 1.61681 42.9782C1.68248 43.4712 1.74816 43.9642 1.85028 44.4384C1.86214 44.5021 1.83117 44.5801 1.76416 44.6554C1.69715 44.7307 1.59959 44.797 1.4929 44.8399C1.4041 44.8673 1.31871 44.8753 1.24987 44.8624C1.18102 44.8495 1.13257 44.8165 1.11192 44.7686L1.05115 44.7999ZM6.04344 53.4997C6.01848 53.451 6.02533 53.388 6.06286 53.3214C6.10039 53.2548 6.16627 53.1888 6.24937 53.1344C6.29613 53.1018 6.34801 53.0738 6.40173 53.0521C6.45545 53.0305 6.50987 53.0157 6.56157 53.0087C6.61327 53.0017 6.66113 53.0026 6.70216 53.0114C6.74319 53.0202 6.77648 53.0367 6.79997 53.0598C7.17453 53.3769 7.58049 53.6946 8.01077 53.9997C8.03801 54.0197 8.05598 54.0459 8.06364 54.0768C8.0713 54.1077 8.06849 54.1426 8.05539 54.1796C8.04228 54.2167 8.01914 54.2551 7.98727 54.2926C7.9554 54.3302 7.91548 54.3662 7.8697 54.3985C7.77586 54.4649 7.66387 54.5125 7.55776 54.5312C7.45164 54.5499 7.35979 54.5383 7.30188 54.4987C6.8716 54.1936 6.4621 53.8694 6.08043 53.5392L6.04344 53.4997ZM0.690083 41.8167L0.661686 41.7645C0.648189 41.253 0.631126 40.735 0.65054 40.1982C0.65263 40.1296 0.697106 40.0502 0.774258 39.9775C0.851411 39.9049 0.954911 39.8448 1.06212 39.8105C1.11571 39.7924 1.16888 39.7814 1.21835 39.7781C1.26782 39.7749 1.31253 39.7795 1.34975 39.7916C1.38696 39.8038 1.4159 39.8233 1.43475 39.8489C1.4536 39.8744 1.46197 39.9056 1.45937 39.9404C1.46071 40.4581 1.46204 40.9759 1.48414 41.4745C1.48764 41.5074 1.48007 41.544 1.46193 41.582C1.44379 41.6201 1.41545 41.6588 1.37867 41.6958C1.34189 41.7328 1.29744 41.7672 1.2481 41.797C1.19877 41.8268 1.14556 41.8513 1.09182 41.869C1.00965 41.8904 0.932448 41.8938 0.871219 41.8788C0.809989 41.8638 0.767859 41.8311 0.750839 41.7854L0.690083 41.8167ZM8.57087 55.3166C8.54743 55.2708 8.55118 55.2126 8.5816 55.1504C8.61202 55.0882 8.66754 55.0252 8.74034 54.9701C8.82977 54.9031 8.93899 54.8535 9.04409 54.8323C9.14919 54.8111 9.24158 54.8199 9.30104 54.8568C9.74853 55.1364 10.2203 55.4034 10.7129 55.6514C10.7743 55.6875 10.8 55.748 10.7849 55.8209C10.7697 55.8938 10.7148 55.9737 10.6311 56.0447C10.5414 56.1151 10.4299 56.1685 10.321 56.1933C10.212 56.218 10.1145 56.2122 10.0496 56.177C9.55706 55.9291 9.07817 55.649 8.63068 55.3694L8.57087 55.3166ZM0.754932 38.6727L0.715885 38.6009C0.766707 38.0646 0.829654 37.5221 0.908333 36.9799C0.912986 36.9443 0.928312 36.9061 0.953382 36.8676C0.978452 36.8291 1.01279 36.7911 1.05437 36.7556C1.09595 36.7202 1.14395 36.6881 1.19555 36.6613C1.24715 36.6344 1.30132 36.6134 1.35489 36.5993C1.40856 36.5845 1.46076 36.577 1.50844 36.5772C1.55612 36.5773 1.59832 36.5852 1.63258 36.6002C1.66684 36.6153 1.69245 36.6373 1.70793 36.6649C1.72342 36.6925 1.72846 36.7251 1.72276 36.761C1.64053 37.2967 1.57402 37.8326 1.53535 38.3626C1.52799 38.4329 1.47849 38.5125 1.39773 38.5838C1.31697 38.6552 1.21152 38.7126 1.1045 38.7435C1.03601 38.7547 0.973682 38.7523 0.924088 38.7366C0.874495 38.721 0.839469 38.6926 0.822771 38.6545L0.754932 38.6727ZM11.5003 56.8428C11.4793 56.8013 11.4797 56.7499 11.5016 56.6943C11.5236 56.6387 11.5662 56.5811 11.6248 56.5278C11.6679 56.4798 11.7235 56.435 11.7866 56.3973C11.8497 56.3595 11.9184 56.33 11.9867 56.3114C12.055 56.2927 12.1207 56.2855 12.178 56.2904C12.2354 56.2952 12.2826 56.312 12.3156 56.3392C12.8254 56.5616 13.3508 56.7842 13.897 56.9878C13.9332 57.001 13.9612 57.0211 13.9793 57.0472C13.9974 57.0732 14.0053 57.1046 14.0025 57.1394C13.9998 57.1743 13.9864 57.212 13.9632 57.2503C13.94 57.2886 13.9074 57.3268 13.8674 57.3626C13.786 57.4339 13.6807 57.4914 13.5735 57.5233C13.4663 57.5552 13.3653 57.5589 13.2915 57.5339C12.7417 57.3237 12.2006 57.1008 11.6751 56.8782L11.5003 56.8428ZM1.23914 35.413C1.21239 35.391 1.19664 35.362 1.19298 35.3281C1.31167 34.7736 1.4425 34.2128 1.58905 33.6524C1.59756 33.616 1.61649 33.5775 1.64476 33.5393C1.67304 33.5011 1.71008 33.4638 1.75374 33.4297C1.7974 33.3955 1.84682 33.3651 1.89912 33.3403C1.95143 33.3155 2.00556 33.2967 2.05842 33.2851C2.16695 33.2616 2.26344 33.2687 2.32684 33.305C2.39024 33.3412 2.41543 33.4036 2.39692 33.4786C2.24682 34.0326 2.11244 34.5868 2.00235 35.1285C1.99622 35.1641 1.97969 35.202 1.95375 35.2401C1.9278 35.2782 1.89292 35.3156 1.8511 35.3504C1.80929 35.3851 1.76137 35.4164 1.71009 35.4426C1.65881 35.4687 1.60517 35.4891 1.55225 35.5026C1.49046 35.5063 1.43593 35.4984 1.39323 35.4797C1.35053 35.4609 1.32097 35.4318 1.30701 35.3948L1.23914 35.413ZM14.7933 58.0646C14.7726 58.0279 14.7705 57.9824 14.7872 57.9326C14.8039 57.8829 14.8388 57.8308 14.8884 57.7815C14.9263 57.7445 14.9715 57.7101 15.0215 57.6803C15.0714 57.6506 15.1251 57.6261 15.1792 57.6083C15.2334 57.5906 15.287 57.5799 15.3368 57.5769C15.3866 57.5739 15.4317 57.5787 15.4693 57.5909C16.0449 57.7627 16.6326 57.9282 17.274 58.0493C17.3516 58.072 17.3974 58.1221 17.4022 58.1894C17.4071 58.2567 17.3706 58.3363 17.3001 58.4121C17.2639 58.4489 17.2204 58.4834 17.172 58.5136C17.1235 58.5438 17.0712 58.569 17.0178 58.588C16.9645 58.6069 16.9113 58.6191 16.8613 58.6239C16.8113 58.6286 16.7654 58.6259 16.7262 58.6158C16.1178 58.4693 15.5265 58.2973 14.9073 58.1313C14.8671 58.1182 14.835 58.0978 14.8126 58.0714L14.7933 58.0646ZM2.11334 32.0694C2.07655 32.0447 2.05687 32.0085 2.05654 31.9649C2.2431 31.3922 2.4332 30.826 2.67192 30.2347C2.70381 30.1582 2.77392 30.0793 2.86815 30.0136C2.96239 29.948 3.07373 29.9007 3.1798 29.8811C3.28385 29.867 3.37196 29.8824 3.42641 29.9241C3.48086 29.9659 3.49759 30.0309 3.47324 30.1062C3.25528 30.6784 3.06163 31.2381 2.84721 31.8168C2.83645 31.854 2.81515 31.8929 2.78459 31.9314C2.75403 31.9698 2.71482 32.0069 2.66927 32.0405C2.62373 32.0741 2.57275 32.1035 2.5194 32.127C2.46604 32.1505 2.41135 32.1676 2.35859 32.1772C2.31506 32.1679 2.27999 32.1501 2.25569 32.1251C2.2314 32.1002 2.21844 32.0686 2.21768 32.0324L2.11334 32.0694ZM18.3992 58.9747C18.3814 58.9389 18.38 58.8955 18.395 58.8484C18.4101 58.8013 18.4412 58.7519 18.4856 58.7044C18.5584 58.6302 18.6582 58.5662 18.7653 58.5249C18.8724 58.4837 18.9791 58.4682 19.0645 58.4815C19.678 58.6086 20.328 58.7169 20.9709 58.8121C21.0545 58.8273 21.1088 58.8709 21.1227 58.9338C21.1366 58.9967 21.109 59.0741 21.0456 59.1499C21.0141 59.1877 20.9744 59.2239 20.9287 59.2566C20.8831 59.2892 20.8324 59.3177 20.7796 59.3402C20.7268 59.3627 20.6729 59.379 20.621 59.388C20.5692 59.3969 20.5204 59.3985 20.4774 59.3925C19.8188 59.297 19.1653 59.1821 18.536 59.0548C18.4797 59.0445 18.4387 59.019 18.4184 58.9816L18.3992 58.9747ZM3.45051 28.6044C3.42917 28.5613 3.43232 28.5072 3.45953 28.4493C3.70535 27.8711 3.97901 27.2869 4.25625 26.7093C4.27369 26.6704 4.30161 26.6306 4.33834 26.5924C4.37506 26.5542 4.41981 26.5183 4.46983 26.4871C4.51985 26.4558 4.57407 26.4298 4.62921 26.4107C4.68434 26.3915 4.73923 26.3795 4.79047 26.3755C4.84036 26.3712 4.88598 26.3744 4.92472 26.3849C4.96345 26.3954 4.99452 26.4132 5.01615 26.437C5.03778 26.4608 5.04954 26.4903 5.05074 26.5238C5.05194 26.5572 5.04257 26.594 5.02316 26.632C4.74592 27.2096 4.46664 27.7548 4.24716 28.3529C4.21062 28.4293 4.13624 28.5067 4.0396 28.569C3.94296 28.6312 3.83154 28.6735 3.72866 28.6869C3.66824 28.6952 3.61315 28.6926 3.56808 28.6794C3.523 28.6663 3.48927 28.6429 3.46975 28.6113L3.45051 28.6044ZM22.3837 59.5226C22.3675 59.4909 22.3643 59.4531 22.3741 59.4119C22.384 59.3708 22.4067 59.3271 22.4408 59.2841C22.4714 59.2464 22.5102 59.21 22.5551 59.1771C22.6001 59.1441 22.6502 59.1153 22.7026 59.0921C22.7551 59.069 22.8088 59.052 22.8608 59.0422C22.9128 59.0324 22.9619 59.03 23.0055 59.035C23.662 59.0981 24.3693 59.1686 25.0516 59.1934C25.1463 59.1961 25.2162 59.229 25.2467 59.2851C25.2772 59.3413 25.2658 59.4161 25.2149 59.4939C25.1896 59.5327 25.1549 59.5711 25.1128 59.6068C25.0707 59.6424 25.0222 59.6747 24.97 59.7016C24.9179 59.7284 24.8632 59.7494 24.8092 59.7632C24.7552 59.777 24.7031 59.7833 24.6559 59.7819C23.9507 59.7438 23.2435 59.6733 22.5783 59.623C22.5282 59.621 22.4848 59.6105 22.4507 59.5921C22.4165 59.5737 22.3925 59.5478 22.3802 59.516L22.3837 59.5226ZM5.15034 25.1198C5.12342 25.0728 5.12837 25.011 5.16439 24.9453C5.48163 24.3554 5.83031 23.7661 6.1668 23.183C6.19211 23.1442 6.22684 23.1058 6.26892 23.0701C6.31099 23.0344 6.35955 23.0022 6.41171 22.9753C6.46387 22.9484 6.51857 22.9275 6.57254 22.9137C6.62651 22.8999 6.67864 22.8935 6.72586 22.895C6.81912 22.897 6.88821 22.9291 6.91812 22.9841C6.94803 23.0391 6.93635 23.1128 6.88562 23.189C6.54558 23.7655 6.21973 24.3682 5.89183 24.9385C5.84006 25.0147 5.75361 25.087 5.65121 25.1398C5.54883 25.1925 5.43876 25.2214 5.34493 25.2203C5.29929 25.2198 5.25911 25.2119 5.22686 25.1969C5.19462 25.1818 5.171 25.1601 5.15744 25.1329L5.15034 25.1198ZM26.6183 59.7576C26.5945 59.6979 26.6086 59.6227 26.6582 59.5447C26.714 59.4678 26.8024 59.3955 26.9059 59.3422C27.0094 59.2888 27.1205 59.2583 27.2173 59.2567C27.9239 59.2689 28.6549 59.2686 29.3788 59.2552C29.472 59.2573 29.5411 59.2893 29.571 59.3443C29.601 59.3994 29.5893 59.473 29.5385 59.5492C29.4845 59.6247 29.398 59.6957 29.2966 59.748C29.1951 59.8003 29.0861 59.8299 28.9916 59.831C28.2399 59.8503 27.4603 59.8757 26.7865 59.8381C26.7087 59.8312 26.6496 59.803 26.6183 59.7576ZM7.3 21.6042C7.27108 21.5479 7.28094 21.4745 7.32773 21.3976C7.71994 20.8025 8.12784 20.2077 8.54285 19.626C8.59646 19.5483 8.68486 19.4747 8.78925 19.421C8.89365 19.3672 9.00581 19.3374 9.10193 19.3379C9.19519 19.34 9.26426 19.372 9.29417 19.4271C9.32408 19.4821 9.31242 19.5557 9.26169 19.6319C8.85883 20.2074 8.45953 20.7894 8.07592 21.3717C8.02231 21.4493 7.9339 21.5229 7.82951 21.5767C7.72512 21.6305 7.61296 21.6602 7.51684 21.6597C7.46159 21.6719 7.40913 21.6755 7.36324 21.6702C7.31734 21.6649 7.27913 21.6509 7.25137 21.6292L7.3 21.6042ZM31.0781 59.6341C31.0492 59.5854 31.0529 59.5215 31.0886 59.4531C31.1422 59.3754 31.2306 59.3019 31.335 59.2481C31.4394 59.1943 31.5516 59.1645 31.6477 59.1651C32.3852 59.1196 33.147 59.0615 33.9104 58.9777C34.0105 58.9693 34.0917 58.9906 34.1373 59.0372C34.1829 59.0838 34.1893 59.1521 34.1552 59.2278C34.1389 59.266 34.112 59.3051 34.0763 59.3427C34.0405 59.3803 33.9968 59.4155 33.9478 59.4463C33.8987 59.4771 33.8455 59.5026 33.7913 59.5214C33.7372 59.5402 33.6833 59.5517 33.6332 59.5553C32.8541 59.6389 32.1409 59.6719 31.3269 59.7484C31.2503 59.7662 31.1785 59.769 31.1195 59.7565C31.0605 59.7441 31.0167 59.7169 30.993 59.6779L31.0781 59.6341ZM9.8473 18.076C9.82712 18.0467 9.82067 18.0104 9.82848 17.9701C9.8363 17.9297 9.85813 17.8864 9.89223 17.8438C10.3508 17.2563 10.8129 16.6754 11.3029 16.0885C11.3344 16.0507 11.3741 16.0145 11.4198 15.9819C11.4655 15.9492 11.5161 15.9208 11.569 15.8983C11.6218 15.8757 11.6757 15.8595 11.7275 15.8505C11.7794 15.8415 11.8282 15.84 11.8711 15.8459C11.9595 15.8582 12.0186 15.9006 12.0355 15.9639C12.0524 16.0272 12.0259 16.1063 11.9615 16.184C11.4888 16.7453 11.0266 17.3262 10.5766 17.9009C10.523 17.9786 10.4346 18.0521 10.3303 18.1059C10.2259 18.1597 10.1137 18.1895 10.0176 18.1889C9.96076 18.1945 9.90877 18.1913 9.86485 18.1794C9.82093 18.1675 9.78602 18.1472 9.76223 18.1198L9.8473 18.076ZM35.6916 59.1638C35.6655 59.1265 35.6656 59.0761 35.692 59.0214C35.7237 58.9448 35.7949 58.8657 35.8905 58.8008C35.986 58.736 36.0984 58.6906 36.2034 58.6744C36.9719 58.5712 37.761 58.4489 38.5395 58.3071C38.5919 58.2975 38.6413 58.2953 38.6849 58.3008C38.7285 58.3063 38.7655 58.3193 38.7936 58.3391C38.8217 58.3589 38.8404 58.385 38.8487 58.4159C38.8569 58.4469 38.8545 58.482 38.8416 58.5194C38.8142 58.5944 38.7478 58.673 38.6561 58.7389C38.5644 58.8048 38.4546 58.8529 38.3494 58.8733C37.5517 59.0083 36.7503 59.1368 35.9647 59.2656C35.8893 59.2824 35.8191 59.284 35.7622 59.2704C35.7053 59.2569 35.6639 59.2286 35.643 59.1888L35.6916 59.1638ZM12.7406 14.612C12.7207 14.5779 12.7171 14.5359 12.73 14.4898C12.743 14.4437 12.7722 14.3949 12.8149 14.3479C13.3277 13.7744 13.8683 13.1948 14.4161 12.6283C14.4873 12.5542 14.5872 12.4904 14.6941 12.4511C14.8009 12.4117 14.906 12.3999 14.9864 12.4182C15.0675 12.4376 15.1169 12.4858 15.124 12.5524C15.1312 12.619 15.0955 12.6988 15.0246 12.7748C14.4855 13.3285 13.957 13.9017 13.4406 14.4688C13.4073 14.5066 13.3658 14.5427 13.3187 14.5748C13.2716 14.6069 13.2197 14.6344 13.1661 14.6558C13.1125 14.6772 13.0583 14.6919 13.0067 14.6992C12.955 14.7065 12.907 14.7062 12.8653 14.6983C12.7809 14.7015 12.7084 14.6868 12.6555 14.6558L12.7406 14.612ZM40.4518 58.3337C40.4178 58.3101 40.3994 58.2763 40.3986 58.2357C40.4186 58.1622 40.4796 58.083 40.5683 58.0153C40.6569 57.9477 40.766 57.8972 40.8715 57.875C41.6794 57.7013 42.4837 57.521 43.2773 57.3212C43.3302 57.3075 43.3814 57.3012 43.4277 57.3026C43.4739 57.304 43.5144 57.3131 43.5465 57.3294C43.5786 57.3457 43.6018 57.3688 43.6146 57.3974C43.6274 57.4259 43.6296 57.4593 43.6209 57.4954C43.6148 57.531 43.5983 57.5689 43.5723 57.607C43.5464 57.645 43.5115 57.6825 43.4697 57.7173C43.4279 57.752 43.38 57.7833 43.3287 57.8094C43.2774 57.8356 43.2237 57.8559 43.1708 57.8694C42.3614 58.069 41.545 58.2555 40.725 58.4355C40.6448 58.4575 40.5684 58.4637 40.5049 58.4535C40.4414 58.4432 40.3934 58.4168 40.3668 58.3775L40.4518 58.3337ZM16.0114 11.2128C15.9919 11.1756 15.9905 11.13 16.0071 11.0805C16.0238 11.0309 16.058 10.979 16.1065 10.9297C16.6944 10.3704 17.2928 9.81123 17.9017 9.25228C17.9413 9.21627 17.9877 9.18322 18.0382 9.15507C18.0886 9.12693 18.1423 9.10427 18.1958 9.08834C18.2494 9.07241 18.3019 9.06354 18.3502 9.06228C18.3986 9.06103 18.4419 9.06743 18.4776 9.08105C18.5137 9.09421 18.5417 9.11436 18.5598 9.14039C18.5779 9.16642 18.5858 9.1978 18.5831 9.23267C18.5803 9.26754 18.5669 9.30521 18.5437 9.34352C18.5205 9.38184 18.488 9.42003 18.4479 9.45587C17.8546 9.99568 17.2561 10.5548 16.6977 11.1017C16.6598 11.1387 16.6146 11.1732 16.5647 11.2029C16.5147 11.2326 16.4611 11.2571 16.4069 11.2749C16.3527 11.2927 16.2992 11.3034 16.2494 11.3063C16.1995 11.3093 16.1544 11.3045 16.1168 11.2923C16.0373 11.3005 15.9701 11.2879 15.9263 11.2566L16.0114 11.2128ZM45.3309 57.1496L45.2918 57.0778C45.3015 57.0057 45.3532 56.9249 45.436 56.8526C45.5188 56.7802 45.626 56.7222 45.7348 56.6907C46.3421 56.52 46.958 56.3365 47.5667 56.1399L48.1634 55.9496C48.2706 55.9156 48.3726 55.9101 48.447 55.9344C48.5215 55.9588 48.5623 56.0109 48.5606 56.0794C48.5612 56.1134 48.551 56.1506 48.5307 56.1889C48.5104 56.2271 48.4804 56.2657 48.4424 56.3024C48.4044 56.3391 48.3592 56.3732 48.3095 56.4026C48.2597 56.432 48.2064 56.4561 48.1526 56.4736L47.5559 56.6639C46.9193 56.8665 46.3034 57.05 45.6719 57.2332C45.5688 57.2705 45.4673 57.2837 45.3858 57.2704C45.3043 57.2571 45.2484 57.2182 45.2281 57.1608L45.3309 57.1496ZM50.2411 55.5649L50.2127 55.5126C50.2092 55.4453 50.2478 55.3659 50.3203 55.2911C50.3928 55.2163 50.4936 55.152 50.6015 55.1117C51.3961 54.8277 52.2115 54.5247 53.0319 54.2024C53.0844 54.1814 53.1375 54.1668 53.188 54.1597C53.2386 54.1526 53.2856 54.153 53.3263 54.161C53.3669 54.169 53.4003 54.1843 53.4245 54.206C53.4487 54.2278 53.4632 54.2555 53.4671 54.2876C53.479 54.3513 53.448 54.4294 53.381 54.5047C53.314 54.5799 53.2164 54.6463 53.1097 54.6891C52.2771 55.0177 51.4496 55.3269 50.6428 55.6172C50.5881 55.6432 50.5314 55.6629 50.4761 55.675C50.4208 55.6871 50.3681 55.6914 50.321 55.6875C50.2739 55.6837 50.2334 55.6719 50.202 55.6527C50.1706 55.6336 50.1489 55.6075 50.1383 55.5761L50.2411 55.5649ZM55.1273 53.6497L55.1095 53.6171C55.095 53.5549 55.1227 53.4778 55.1866 53.4026C55.2506 53.3274 55.3457 53.26 55.4512 53.2153C56.2922 52.8545 57.0984 52.506 57.8699 52.1699C57.9219 52.1462 57.9755 52.1287 58.0274 52.1185C58.0793 52.1083 58.1284 52.1056 58.1718 52.1106C58.2153 52.1156 58.2521 52.1282 58.28 52.1475C58.308 52.1669 58.3265 52.1926 58.3344 52.2232C58.3448 52.2531 58.3447 52.2874 58.3341 52.3241C58.3234 52.3609 58.3026 52.3994 58.2726 52.4373C58.2426 52.4753 58.2041 52.5121 58.1594 52.5455C58.1147 52.5788 58.0646 52.6082 58.012 52.6318C57.1972 52.9931 56.3909 53.3415 55.569 53.6897C55.5118 53.724 55.4497 53.7511 55.3878 53.7687C55.3258 53.7864 55.2658 53.7941 55.2127 53.7913C55.1595 53.7885 55.1147 53.7752 55.082 53.7525C55.0493 53.7298 55.0295 53.6984 55.0244 53.6609L55.1273 53.6497ZM59.952 51.507C59.9416 51.4771 59.9417 51.4428 59.9524 51.4061C59.963 51.3693 59.9839 51.3309 60.0138 51.2929C60.0438 51.2549 60.0823 51.2181 60.127 51.1848C60.1717 51.1514 60.2218 51.122 60.2744 51.0984C61.0522 50.6977 61.8585 50.3492 62.647 49.9681C62.6996 49.942 62.7544 49.922 62.8081 49.9093C62.8619 49.8966 62.9136 49.8914 62.96 49.894C63.0064 49.8966 63.0466 49.907 63.0783 49.9245C63.11 49.9421 63.1325 49.9664 63.1444 49.9961C63.1581 50.0249 63.1611 50.0587 63.1532 50.0954C63.1453 50.1321 63.1266 50.171 63.0983 50.2097C63.07 50.2485 63.0327 50.2863 62.9886 50.321C62.9444 50.3557 62.8943 50.3864 62.8413 50.4115C62.0513 50.8185 61.2364 51.1797 60.4408 51.5478C60.3795 51.5882 60.3109 51.6208 60.2418 51.6422C60.1727 51.6637 60.1052 51.6734 60.0459 51.6704C59.9866 51.6674 59.9374 51.6519 59.903 51.6252C59.8685 51.5986 59.85 51.5617 59.8491 51.5181L59.952 51.507ZM64.7229 49.208C64.7077 49.1803 64.7033 49.1475 64.7099 49.1115C64.7165 49.0755 64.734 49.0371 64.7613 48.9988C64.7885 48.9604 64.825 48.9229 64.8685 48.8885C64.912 48.8541 64.9615 48.8236 65.0139 48.7989C65.8039 48.3919 66.5817 47.9912 67.3596 47.5904C67.4627 47.5373 67.5736 47.5084 67.6679 47.51C67.7621 47.5116 67.832 47.5437 67.8621 47.5991C67.8754 47.6274 67.8785 47.6604 67.8711 47.6963C67.8637 47.7321 67.846 47.7701 67.8189 47.8081C67.7919 47.8461 67.7561 47.8834 67.7136 47.9177C67.6711 47.952 67.6226 47.9828 67.5711 48.0083C66.7932 48.409 66.0033 48.816 65.2133 49.2229C65.1547 49.262 65.0895 49.2939 65.0232 49.3158C64.9569 49.3377 64.8916 49.3489 64.833 49.3485C64.7745 49.3482 64.7244 49.3362 64.6873 49.3136C64.6502 49.2911 64.6271 49.2586 64.6201 49.2192L64.7229 49.208ZM69.4598 46.8178C69.4298 46.7629 69.4399 46.6899 69.4881 46.6138C69.5364 46.5376 69.6191 46.4641 69.7194 46.4081C70.4608 46.0262 71.2386 45.6255 72.0174 45.1407C72.1199 45.0832 72.2329 45.0486 72.3323 45.0443C72.4317 45.04 72.5096 45.0662 72.5493 45.1175C72.5834 45.1713 72.5776 45.244 72.5331 45.3212C72.4885 45.3984 72.4085 45.4743 72.309 45.534C71.5038 45.9989 70.7123 46.4318 69.9137 46.8516C69.8106 46.9047 69.6997 46.9336 69.6055 46.932C69.5112 46.9304 69.4414 46.8983 69.4112 46.8429L69.4598 46.8178ZM74.0375 44.1919C74.009 44.1411 74.0163 44.0739 74.0581 44.003C74.0998 43.9322 74.1732 43.8626 74.2642 43.8075C74.9858 43.3605 75.716 42.9008 76.4634 42.4154C76.5611 42.3527 76.6738 42.3105 76.7773 42.2978C76.8808 42.2851 76.967 42.3029 77.0175 42.3473C77.0655 42.3935 77.0734 42.4622 77.0396 42.539C77.0058 42.6158 76.9329 42.6945 76.8364 42.7584C76.0769 43.25 75.3346 43.716 74.6008 44.1693C74.5002 44.2307 74.3862 44.2702 74.2834 44.2793C74.1806 44.2885 74.0973 44.2664 74.0517 44.218L74.0375 44.1919ZM78.4353 41.3493C78.4078 41.3014 78.4134 41.2382 78.4512 41.1712C78.489 41.1041 78.5564 41.0377 78.6412 40.984C79.3329 40.5106 80.0453 40.0182 80.7542 39.5192C80.8498 39.4522 80.9637 39.4047 81.0709 39.3872C81.178 39.3696 81.2696 39.3834 81.3256 39.4255C81.3773 39.4686 81.3903 39.5349 81.3617 39.6104C81.3332 39.686 81.2653 39.7649 81.1723 39.8306C80.4513 40.3358 79.7389 40.8283 79.0229 41.3142C78.927 41.3762 78.8163 41.4185 78.7138 41.4324C78.6114 41.4463 78.5249 41.4307 78.4723 41.3888L78.4353 41.3493ZM82.6678 38.3745C82.6447 38.3274 82.6499 38.2677 82.6826 38.2042C82.7153 38.1407 82.7738 38.0767 82.8494 38.0217C83.5305 37.5287 84.2165 37.0164 84.9026 36.504C84.9463 36.47 84.9959 36.4398 85.0483 36.4155C85.1008 36.3911 85.1549 36.3731 85.2074 36.3625C85.26 36.3519 85.3098 36.3489 85.3538 36.3538C85.3978 36.3586 85.4351 36.3712 85.4633 36.3908C85.4943 36.4082 85.5161 36.4325 85.5272 36.4621C85.5383 36.4916 85.5386 36.5259 85.528 36.5627C85.5173 36.5995 85.4961 36.6381 85.4655 36.6761C85.4349 36.7141 85.3956 36.7506 85.3501 36.7836C84.6676 37.3024 83.9815 37.8148 83.2883 38.314C83.2432 38.3475 83.1927 38.3768 83.1397 38.4004C83.0868 38.4239 83.0324 38.4411 82.9799 38.451C82.9274 38.461 82.8777 38.4634 82.8338 38.4582C82.7899 38.453 82.7526 38.4403 82.7241 38.4208L82.6678 38.3745ZM86.7493 35.2935C86.7235 35.2496 86.7248 35.1928 86.7531 35.1316C86.7814 35.0704 86.8352 35.0078 86.9066 34.9532C87.5734 34.4341 88.2246 33.9147 88.8721 33.3887C88.9142 33.3535 88.9626 33.3218 89.0144 33.2953C89.0662 33.2689 89.1205 33.2483 89.1739 33.2347C89.2274 33.2212 89.2791 33.215 89.3259 33.2165C89.3727 33.2179 89.4137 33.2271 89.4465 33.2433C89.511 33.2778 89.5385 33.3383 89.5232 33.4118C89.5079 33.4853 89.451 33.566 89.3647 33.6367C88.7171 34.1626 88.0574 34.6948 87.3784 35.2202C87.292 35.289 87.1839 35.3416 87.0779 35.3664C86.9718 35.3913 86.8765 35.3864 86.8127 35.3528L86.7493 35.2935ZM90.6519 32.1123C90.63 32.07 90.6312 32.0172 90.6554 31.9602C90.6797 31.9031 90.7259 31.8444 90.7885 31.791C91.4289 31.2521 92.0537 30.7128 92.6506 30.1795C92.6902 30.1425 92.7373 30.1086 92.7887 30.0799C92.8402 30.0512 92.895 30.0284 92.9496 30.0129C93.0041 29.9973 93.0572 29.9895 93.1055 29.9898C93.1538 29.9902 93.1962 29.9987 93.23 30.0148C93.2657 30.0276 93.2932 30.0474 93.3109 30.073C93.3286 30.0986 93.3362 30.1296 93.3331 30.1639C93.33 30.1983 93.3163 30.2354 93.2929 30.2731C93.2695 30.3107 93.2368 30.3482 93.1968 30.3831C92.5792 30.9354 91.9544 31.4747 91.3053 32.0265C91.2641 32.0615 91.2166 32.0932 91.1656 32.1198C91.1146 32.1464 91.061 32.1673 91.008 32.1815C90.955 32.1956 90.9035 32.2026 90.8566 32.202C90.8097 32.2015 90.7682 32.1935 90.7345 32.1784L90.6519 32.1123ZM90.6867 24.8195C90.456 24.3949 90.331 23.9074 90.2011 23.4392C90.1902 23.409 90.1905 23.3742 90.202 23.3368C90.2134 23.2994 90.2357 23.2602 90.2675 23.2219C90.2992 23.1835 90.3398 23.1467 90.3866 23.1138C90.4333 23.0809 90.4853 23.0527 90.5392 23.0308C90.5922 23.0077 90.6464 22.9908 90.6987 22.9813C90.7511 22.9717 90.8005 22.9697 90.844 22.9753C90.8876 22.9808 90.9245 22.9939 90.9525 23.0137C90.9805 23.0335 90.9991 23.0597 91.0073 23.0907C91.1302 23.5458 91.3002 24.0018 91.4874 24.4321C91.5011 24.461 91.5041 24.4947 91.4961 24.5314C91.4882 24.5681 91.4696 24.607 91.4413 24.6458C91.413 24.6845 91.3756 24.7224 91.3315 24.757C91.2873 24.7917 91.2372 24.8225 91.1842 24.8475C91.1232 24.8866 91.0559 24.9181 90.988 24.9392C90.9202 24.9604 90.8538 24.9705 90.7947 24.9689C90.7356 24.9672 90.6855 24.9538 90.6487 24.9297C90.612 24.9056 90.5898 24.8716 90.5839 24.8307L90.6867 24.8195ZM91.3755 26.0869C91.3426 26.0343 91.35 25.9627 91.3962 25.8874C91.4424 25.812 91.5237 25.7389 91.6229 25.6835C91.7263 25.6279 91.8388 25.5957 91.9365 25.5938C92.0343 25.5919 92.1095 25.6203 92.1462 25.6731C92.377 26.0978 92.7136 26.4595 93.0395 26.8017C93.0807 26.8521 93.082 26.9231 93.0433 27.0006C93.0045 27.078 92.9284 27.1559 92.8306 27.2187C92.7814 27.2487 92.7284 27.2736 92.6747 27.292C92.621 27.3104 92.5676 27.3219 92.5176 27.3259C92.4676 27.3298 92.4221 27.3261 92.3836 27.315C92.3452 27.3039 92.3146 27.2856 92.2936 27.2612C91.9606 26.9059 91.6533 26.5123 91.3648 26.0673L91.3755 26.0869ZM89.919 22.0041L89.8941 21.9584C89.8338 21.4514 89.8236 20.9261 89.8637 20.3853C89.8682 20.3148 89.9149 20.2342 89.9941 20.1606C90.0733 20.087 90.1786 20.0263 90.2875 19.9914C90.3412 19.975 90.394 19.9657 90.4427 19.964C90.4914 19.9623 90.5351 19.9682 90.5713 19.9815C90.6075 19.9948 90.6354 20.0151 90.6534 20.0413C90.6714 20.0675 90.6791 20.099 90.6761 20.134C90.6388 20.6571 90.6499 21.1651 90.7095 21.6554C90.7129 21.6884 90.7054 21.7252 90.6876 21.7634C90.6698 21.8016 90.642 21.8405 90.6057 21.8779C90.5695 21.9152 90.5256 21.9503 90.4767 21.9809C90.4277 22.0116 90.3747 22.0372 90.3207 22.0563C90.2665 22.0823 90.2103 22.1017 90.1555 22.1134C90.1007 22.1251 90.0486 22.1289 90.0024 22.1244C89.9562 22.12 89.9169 22.1075 89.887 22.0876C89.857 22.0677 89.8371 22.041 89.8283 22.009L89.919 22.0041ZM93.4122 28.2318C93.387 28.1855 93.3912 28.1257 93.424 28.0618C93.4569 27.9979 93.5167 27.9337 93.5939 27.879C93.687 27.8155 93.7964 27.7704 93.8997 27.7529C94.003 27.7354 94.0924 27.7469 94.1495 27.7851C94.3568 27.9375 94.5884 28.0774 94.8129 28.2043C95.2746 27.7657 95.7328 27.3206 96.1666 26.8881C96.2431 26.8123 96.348 26.7483 96.4585 26.7102C96.569 26.6721 96.676 26.6629 96.7561 26.6847C96.8291 26.71 96.8706 26.7611 96.8725 26.8281C96.8744 26.8951 96.8366 26.9732 96.7665 27.0473C96.2997 27.5052 95.8122 27.9821 95.2968 28.465L95.535 28.5597C95.6042 28.5907 95.6373 28.6487 95.6272 28.7211C95.6171 28.7935 95.5646 28.8747 95.481 28.9471C95.4398 28.9821 95.3923 29.0138 95.3413 29.0404C95.2903 29.067 95.2367 29.088 95.1837 29.1021C95.1307 29.1162 95.0792 29.1232 95.0323 29.1227C94.9854 29.1221 94.9439 29.1141 94.9102 29.099L94.5267 28.9371L94.4375 28.9161C94.4007 28.8884 94.38 28.8503 94.3771 28.8051C94.0721 28.6445 93.7842 28.4583 93.505 28.2593L93.4122 28.2318ZM90.1788 18.8181C90.1488 18.7922 90.1307 18.7589 90.1256 18.7202C90.2852 18.1343 90.5571 17.5273 90.9339 16.9157C90.9875 16.838 91.0759 16.7644 91.1803 16.7107C91.2847 16.6569 91.3969 16.6271 91.493 16.6276C91.5411 16.6278 91.5836 16.6358 91.618 16.6511C91.6523 16.6664 91.6779 16.6888 91.6931 16.7168C91.7084 16.7449 91.713 16.778 91.7066 16.8143C91.7003 16.8506 91.6832 16.8893 91.6563 16.9281C91.3199 17.4872 91.0725 18.0415 90.9198 18.5786C90.9101 18.6149 90.8899 18.6532 90.8604 18.6909C90.8309 18.7287 90.7927 18.7653 90.7482 18.7984C90.7036 18.8316 90.6536 18.8606 90.6012 18.8836C90.5488 18.9067 90.4951 18.9234 90.4433 18.9327C90.3524 18.9559 90.2678 18.9577 90.2033 18.9378C90.1388 18.9179 90.0982 18.8774 90.0882 18.823L90.1788 18.8181ZM96.5908 29.5293C96.5724 29.4966 96.5687 29.4567 96.5802 29.413C96.5916 29.3694 96.6177 29.3231 96.6565 29.2781C96.724 29.2029 96.821 29.1364 96.9274 29.0924C97.0339 29.0485 97.1416 29.0305 97.2283 29.0421C97.6861 29.1151 98.1848 29.1389 98.7136 29.113C98.8949 29.1032 99.0798 29.1 99.2733 29.0839C99.3642 29.0881 99.4312 29.1208 99.4609 29.1754C99.4905 29.2299 99.4806 29.3023 99.4331 29.3779C99.4078 29.4167 99.373 29.4551 99.331 29.4908C99.2889 29.5265 99.2403 29.5587 99.1882 29.5856C99.136 29.6125 99.0813 29.6334 99.0273 29.6472C98.9734 29.661 98.9212 29.6673 98.874 29.6659C98.6805 29.6819 98.4956 29.6852 98.2986 29.6947C97.7294 29.7081 97.19 29.675 96.6891 29.5957C96.6077 29.5945 96.5418 29.573 96.5001 29.5342L96.5908 29.5293ZM97.7305 25.472C97.7106 25.4379 97.7069 25.3959 97.7199 25.3498C97.7329 25.3037 97.7621 25.255 97.8048 25.208C98.3541 24.6156 98.8668 24.042 99.3189 23.4998C99.388 23.4232 99.4869 23.3555 99.5953 23.3105C99.7038 23.2655 99.8137 23.2465 99.9028 23.2575C99.9455 23.264 99.9814 23.2778 100.008 23.2984C100.035 23.3189 100.053 23.3456 100.06 23.3771C100.067 23.4085 100.063 23.444 100.049 23.4814C100.035 23.5189 100.01 23.5576 99.9775 23.5953C99.5168 24.1504 99.0319 24.7179 98.4341 25.3353C98.3612 25.4108 98.2594 25.4757 98.1506 25.5161C98.0418 25.5566 97.9345 25.5693 97.8516 25.5518C97.8002 25.5575 97.754 25.5538 97.717 25.5407C97.6801 25.5276 97.6536 25.5057 97.6398 25.4769L97.7305 25.472ZM92.5423 15.4097C92.5171 15.3634 92.5212 15.3036 92.5541 15.2397C92.587 15.1758 92.6467 15.1116 92.724 15.0569C92.9845 14.8725 93.2637 14.7034 93.5549 14.5536C94.143 14.2561 94.7598 14.0325 95.3614 13.8989C95.4144 13.8868 95.4652 13.882 95.5107 13.8849C95.5563 13.8878 95.5958 13.8982 95.627 13.9156C95.6582 13.933 95.6803 13.957 95.6923 13.9862C95.7042 14.0155 95.7056 14.0493 95.6964 14.0858C95.689 14.1214 95.6712 14.159 95.644 14.1966C95.6168 14.2342 95.5808 14.271 95.5381 14.3046C95.4955 14.3383 95.447 14.3683 95.3957 14.3927C95.3443 14.4171 95.2911 14.4355 95.2392 14.4468C94.7543 14.5592 94.2591 14.7403 93.7857 14.9782C93.5592 15.093 93.3426 15.2243 93.1421 15.3683C93.0963 15.4007 93.0457 15.4288 92.993 15.451C92.9403 15.4733 92.8866 15.4892 92.835 15.498C92.7834 15.5067 92.7349 15.508 92.6922 15.5019C92.6496 15.4958 92.6136 15.4823 92.5864 15.4623L92.5423 15.4097ZM101.003 29.405C100.979 29.3606 100.981 29.3042 101.009 29.2433C101.026 29.2053 101.052 29.1665 101.088 29.129C101.123 29.0915 101.166 29.0562 101.214 29.0251C101.263 28.994 101.315 28.9677 101.369 28.9478C101.423 28.928 101.477 28.9149 101.527 28.9093C102.291 28.8254 103.071 28.716 103.839 28.5545C103.891 28.546 103.939 28.5449 103.982 28.5512C104.024 28.5576 104.06 28.5713 104.087 28.5916C104.114 28.612 104.132 28.6384 104.139 28.6696C104.146 28.7007 104.143 28.7359 104.129 28.7731C104.116 28.8103 104.092 28.8488 104.06 28.8864C104.028 28.9239 103.988 28.9599 103.941 28.9922C103.895 29.0245 103.844 29.0524 103.792 29.0744C103.739 29.0964 103.685 29.1121 103.633 29.1205C102.839 29.262 102.043 29.3712 101.252 29.4611C101.176 29.4823 101.104 29.4887 101.044 29.4796C100.984 29.4706 100.939 29.4464 100.913 29.4099L101.003 29.405ZM100.64 22.0083C100.624 21.9784 100.62 21.9428 100.628 21.9039C100.636 21.865 100.657 21.8237 100.688 21.7826C101.106 21.2118 101.48 20.639 101.809 20.0677C101.863 19.99 101.951 19.9165 102.056 19.8627C102.16 19.8089 102.272 19.7791 102.369 19.7797C102.462 19.7817 102.531 19.8137 102.561 19.8687C102.591 19.9238 102.579 19.9974 102.528 20.0736C102.182 20.6706 101.79 21.2689 101.355 21.8654C101.33 21.9042 101.295 21.9426 101.253 21.9783C101.211 22.014 101.162 22.0462 101.11 22.0731C101.058 22.0999 101.003 22.1209 100.95 22.1347C100.896 22.1485 100.843 22.1548 100.796 22.1534C100.726 22.1578 100.666 22.147 100.622 22.1222C100.579 22.0974 100.553 22.0597 100.549 22.0132L100.64 22.0083ZM97.2146 14.1315C97.1869 14.0786 97.1936 14.0102 97.2337 13.9377C97.2895 13.8608 97.3779 13.7885 97.4815 13.7352C97.585 13.6818 97.6961 13.6513 97.7928 13.6497C98.5553 13.6263 99.2872 13.652 99.9813 13.7264C100.025 13.7313 100.062 13.7437 100.091 13.7628C100.119 13.7818 100.139 13.8072 100.148 13.8374C100.157 13.8676 100.156 13.9021 100.144 13.9388C100.133 13.9756 100.111 14.0139 100.08 14.0517C100.017 14.1292 99.9207 14.1995 99.8128 14.2472C99.7049 14.295 99.5938 14.3165 99.5034 14.307C98.8522 14.2356 98.1633 14.2129 97.4442 14.239C97.3659 14.252 97.2947 14.2493 97.2382 14.2312C97.1818 14.2131 97.1423 14.1803 97.1239 14.1364L97.2146 14.1315ZM105.755 28.5877C105.727 28.5634 105.71 28.5323 105.705 28.4962C105.714 28.4598 105.733 28.4214 105.761 28.3832C105.789 28.345 105.826 28.3077 105.87 28.2735C105.914 28.2393 105.963 28.209 106.015 28.1842C106.068 28.1594 106.122 28.1406 106.175 28.129C106.976 27.9422 107.778 27.7296 108.585 27.4976C108.692 27.467 108.792 27.4654 108.862 27.4934C108.933 27.5213 108.969 27.5764 108.962 27.6465C108.959 27.6813 108.947 27.7189 108.924 27.7573C108.901 27.7957 108.869 27.834 108.829 27.8701C108.79 27.9061 108.743 27.9392 108.692 27.9673C108.642 27.9954 108.588 28.018 108.534 28.0339C107.699 28.2718 106.869 28.4905 106.053 28.6769C105.958 28.708 105.867 28.7165 105.796 28.701C105.725 28.6855 105.678 28.647 105.664 28.5926L105.755 28.5877ZM102.596 18.5087C102.579 18.47 102.58 18.4232 102.6 18.3729C102.792 17.831 102.885 17.3082 102.875 16.818C102.873 16.7848 102.882 16.7483 102.901 16.7105C102.919 16.6728 102.948 16.6345 102.984 16.5978C103.021 16.5612 103.064 16.5269 103.113 16.497C103.162 16.4671 103.214 16.4422 103.267 16.4235C103.321 16.4036 103.374 16.3907 103.425 16.3855C103.476 16.3803 103.522 16.383 103.561 16.3934C103.6 16.4038 103.632 16.4216 103.653 16.4459C103.674 16.4701 103.685 16.5002 103.685 16.5343C103.7 17.0713 103.603 17.6439 103.397 18.2378C103.368 18.3145 103.299 18.3946 103.204 18.4608C103.109 18.5269 102.996 18.5739 102.89 18.5914C102.804 18.6168 102.721 18.6242 102.654 18.6126C102.586 18.601 102.537 18.571 102.512 18.5267L102.596 18.5087ZM101.164 14.614C101.143 14.5725 101.143 14.5211 101.165 14.4655C101.187 14.4099 101.23 14.3523 101.288 14.299C101.37 14.2287 101.475 14.1726 101.581 14.143C101.687 14.1133 101.786 14.1125 101.855 14.1406C102.433 14.3705 102.891 14.7003 103.21 15.1153C103.229 15.1402 103.239 15.1706 103.239 15.2047C103.238 15.2389 103.227 15.2761 103.206 15.3142C103.184 15.3524 103.154 15.3907 103.115 15.427C103.077 15.4632 103.031 15.4967 102.981 15.5255C102.932 15.5557 102.878 15.5805 102.824 15.5984C102.77 15.6164 102.717 15.6271 102.667 15.6299C102.618 15.6327 102.573 15.6275 102.536 15.6146C102.499 15.6018 102.471 15.5816 102.453 15.5553C102.163 15.1961 101.759 14.9072 101.257 14.6997C101.177 14.6985 101.114 14.6746 101.08 14.632L101.164 14.614ZM110.637 27.1513L110.609 27.099C110.608 27.0302 110.649 26.9497 110.725 26.8748C110.801 26.7999 110.904 26.7365 111.013 26.6983C111.811 26.4209 112.623 26.1114 113.412 25.7885C113.466 25.766 113.52 25.7501 113.572 25.7415C113.625 25.733 113.674 25.7321 113.716 25.7389C113.759 25.7456 113.795 25.7599 113.822 25.781C113.848 25.802 113.865 25.8292 113.872 25.8612C113.884 25.9254 113.853 26.0038 113.787 26.0799C113.721 26.156 113.625 26.2239 113.518 26.2692C112.704 26.6046 111.865 26.9201 111.042 27.2101C110.935 27.2588 110.824 27.2818 110.733 27.2742C110.642 27.2666 110.577 27.2289 110.553 27.1693L110.637 27.1513ZM115.508 25.1517C115.495 25.1229 115.492 25.0891 115.5 25.0524C115.508 25.0157 115.526 24.9768 115.555 24.9381C115.583 24.8993 115.62 24.8615 115.664 24.8268C115.708 24.7922 115.759 24.7614 115.812 24.7363C116.31 24.4796 116.796 24.2292 117.294 23.9725C117.574 23.8285 117.853 23.6844 118.133 23.5404C118.184 23.5132 118.237 23.4916 118.29 23.4766C118.343 23.4617 118.395 23.4539 118.442 23.4535C118.49 23.4531 118.532 23.4602 118.567 23.4744C118.601 23.4886 118.628 23.5097 118.644 23.5363C118.663 23.5626 118.671 23.5944 118.668 23.6298C118.665 23.6652 118.651 23.7034 118.627 23.7422C118.603 23.7811 118.57 23.8197 118.529 23.8558C118.488 23.892 118.44 23.9249 118.388 23.9525C118.096 24.1028 117.817 24.2468 117.525 24.3971C117.015 24.6601 116.504 24.923 115.994 25.186C115.936 25.2218 115.872 25.2504 115.809 25.2695C115.745 25.2886 115.683 25.2978 115.628 25.2962C115.572 25.2946 115.525 25.2823 115.49 25.2604C115.455 25.2384 115.432 25.2073 115.425 25.1697L115.508 25.1517ZM120.166 22.6437C120.137 22.5929 120.144 22.5257 120.186 22.4548C120.228 22.384 120.301 22.3144 120.392 22.2593C121.118 21.8189 121.844 21.3525 122.56 20.8666C122.607 20.835 122.659 20.8079 122.712 20.7871C122.766 20.7662 122.82 20.7518 122.871 20.7449C122.922 20.7379 122.969 20.7385 123.011 20.7466C123.052 20.7547 123.086 20.7701 123.111 20.792C123.162 20.8344 123.174 20.9001 123.145 20.9746C123.115 21.0492 123.047 21.1268 122.954 21.1905C122.214 21.689 121.466 22.1744 120.717 22.6273C120.668 22.6573 120.615 22.6823 120.561 22.7007C120.507 22.7191 120.454 22.7306 120.404 22.7345C120.354 22.7385 120.308 22.7348 120.27 22.7237C120.232 22.7126 120.201 22.6943 120.18 22.6698L120.166 22.6437ZM124.465 19.7347C124.428 19.7045 124.411 19.6615 124.416 19.6109C124.422 19.5604 124.45 19.5046 124.497 19.4505C125.159 18.9507 125.822 18.4251 126.454 17.8989C126.496 17.8638 126.543 17.8321 126.594 17.8055C126.645 17.7789 126.699 17.758 126.752 17.7439C126.805 17.7298 126.856 17.7228 126.903 17.7233C126.95 17.7238 126.991 17.7318 127.025 17.7469C127.091 17.7809 127.121 17.8405 127.108 17.9136C127.096 17.9868 127.043 18.068 126.959 18.1406C126.319 18.6796 125.631 19.2177 124.961 19.7303C124.868 19.7989 124.755 19.8493 124.647 19.8705C124.539 19.8916 124.445 19.8819 124.384 19.8433L124.465 19.7347ZM128.291 16.5263C128.269 16.4889 128.268 16.4419 128.287 16.3908C128.306 16.3397 128.344 16.2864 128.398 16.2369C128.988 15.6906 129.543 15.1372 130.078 14.5769C130.153 14.5013 130.256 14.4369 130.366 14.3976C130.475 14.3583 130.583 14.3474 130.664 14.3671C130.705 14.3759 130.738 14.3923 130.762 14.4153C130.785 14.4384 130.798 14.4675 130.8 14.5009C130.802 14.5343 130.793 14.5713 130.774 14.6096C130.754 14.6479 130.725 14.6866 130.687 14.7234C130.143 15.2964 129.563 15.8623 128.976 16.4411C128.896 16.5147 128.79 16.5752 128.681 16.6096C128.571 16.644 128.467 16.6496 128.391 16.6251L128.291 16.5263ZM131.549 13.1334C131.534 13.1004 131.533 13.0613 131.545 13.019C131.557 12.9767 131.582 12.9322 131.619 12.8887C132.104 12.3211 132.554 11.7464 132.988 11.1715C133.041 11.0938 133.13 11.0203 133.234 10.9665C133.339 10.9127 133.451 10.8829 133.547 10.8835C133.595 10.8836 133.637 10.8916 133.672 10.907C133.706 10.9223 133.732 10.9446 133.747 10.9727C133.762 11.0007 133.767 11.0339 133.761 11.0702C133.754 11.1065 133.737 11.1452 133.71 11.184C133.267 11.7717 132.793 12.3589 132.299 12.9392C132.234 13.0169 132.136 13.0865 132.028 13.1331C131.919 13.1797 131.808 13.1994 131.719 13.1881C131.615 13.2029 131.525 13.1899 131.466 13.1513L131.549 13.1334ZM134.165 9.64517C134.15 9.61866 134.146 9.58732 134.151 9.55299C134.156 9.51866 134.172 9.482 134.196 9.4451C134.568 8.86909 134.92 8.28627 135.232 7.71571C135.252 7.67781 135.282 7.63962 135.32 7.60331C135.357 7.56699 135.402 7.53327 135.451 7.50407C135.5 7.47487 135.553 7.45076 135.606 7.43312C135.659 7.41549 135.712 7.40467 135.761 7.40129C135.811 7.39787 135.855 7.40197 135.893 7.41332C135.931 7.42467 135.961 7.44306 135.981 7.46746C136.002 7.49185 136.012 7.52177 136.012 7.55549C136.013 7.5892 136.002 7.62608 135.982 7.66397C135.665 8.25386 135.304 8.84945 134.927 9.44479C134.874 9.52246 134.785 9.59601 134.681 9.64979C134.577 9.70357 134.464 9.73336 134.368 9.73282C134.305 9.74089 134.246 9.73885 134.197 9.72683C134.147 9.71482 134.108 9.69312 134.082 9.66316L134.165 9.64517ZM136.066 6.15758C136.046 6.11476 136.045 6.06378 136.062 6.00865C136.312 5.437 136.533 4.87135 136.703 4.3242C136.713 4.28701 136.735 4.24806 136.765 4.20963C136.796 4.1712 136.835 4.13408 136.881 4.10048C136.926 4.06688 136.977 4.03748 137.03 4.014C137.084 3.99052 137.139 3.97343 137.191 3.96377C137.297 3.94466 137.389 3.95548 137.447 3.99393C137.506 4.03238 137.527 4.09544 137.505 4.16982C137.319 4.74255 137.105 5.32129 136.883 5.88695C136.868 5.92497 136.842 5.96407 136.807 6.00194C136.773 6.03981 136.73 6.07569 136.682 6.10744C136.634 6.13919 136.582 6.16616 136.528 6.18678C136.474 6.20741 136.419 6.22126 136.368 6.22751C136.277 6.26136 136.186 6.27525 136.111 6.2669C136.036 6.25855 135.98 6.22845 135.954 6.18152L136.066 6.15758ZM137.135 2.77205L137.092 2.69366C137.199 2.15014 137.263 1.61764 137.283 1.0985C137.291 1.02799 137.339 0.948359 137.419 0.876199C137.498 0.804038 137.603 0.744926 137.71 0.711141C137.819 0.678025 137.922 0.673757 137.997 0.699229C138.072 0.724701 138.113 0.777911 138.111 0.84751C138.073 1.3775 138.013 1.92655 137.91 2.48132C137.896 2.55492 137.839 2.63601 137.752 2.70713C137.666 2.77825 137.557 2.83373 137.448 2.86162C137.353 2.89323 137.261 2.90273 137.188 2.88845C137.114 2.87418 137.065 2.837 137.048 2.78348L137.135 2.77205Z" fill="url(#paint0_linear_3_3594)"/>
<defs>
<linearGradient id="paint0_linear_3_3594" x1="129.509" y1="-15.0234" x2="4.61592" y2="52.8481" gradientUnits="userSpaceOnUse">
<stop stop-color="#0D0CB5"/>
<stop offset="1" stop-color="#C0242A"/>
</linearGradient>
</defs>
</svg>
