<svg width="105" height="23" viewBox="0 0 105 23" fill="none" xmlns="http://www.w3.org/2000/svg">
<path d="M16.032 21.392L16.104 22.688L15.528 22.64C15.512 22.624 15.48 22.608 15.432 22.592C15.4 22.576 15.392 22.584 15.408 22.616L15.024 22.4C15.04 22.4 15.048 22.384 15.048 22.352C15.048 22.304 14.976 22.248 14.832 22.184C14.688 22.12 14.608 22.096 14.592 22.112C14.496 21.776 14.4 21.4 14.304 20.984C14.224 20.584 14.184 20.192 14.184 19.808C14.184 19.728 14.184 19.656 14.184 19.592C14.184 19.512 14.192 19.44 14.208 19.376H14.04L14.016 18.944L14.136 18.8L13.968 18.248L14.04 18.32C13.976 18.112 13.936 17.872 13.92 17.6C13.92 17.328 13.92 17.064 13.92 16.808C13.92 16.536 13.88 16.328 13.8 16.184L13.752 16.352C13.784 15.92 13.776 15.488 13.728 15.056C13.696 14.624 13.68 14.192 13.68 13.76L13.8 13.688L13.752 13.016L13.68 12.992V12.08C13.568 12.08 13.448 12.088 13.32 12.104C13.208 12.104 13.088 12.104 12.96 12.104C12.816 12.104 12.664 12.096 12.504 12.08C12.36 12.064 12.216 12.024 12.072 11.96C12.072 12.104 12 12.176 11.856 12.176C11.776 12.176 11.672 12.168 11.544 12.152C11.432 12.12 11.336 12.096 11.256 12.08C11.192 12.112 11.104 12.152 10.992 12.2C10.88 12.232 10.776 12.248 10.68 12.248C10.552 12.248 10.44 12.2 10.344 12.104C10.232 12.152 10.096 12.2 9.936 12.248C9.792 12.28 9.648 12.296 9.504 12.296C9.344 12.296 9.208 12.264 9.096 12.2V12.248C9.096 12.344 9.144 12.392 9.24 12.392H8.232C8.216 12.44 8.184 12.464 8.136 12.464C8.104 12.464 8.064 12.456 8.016 12.44C7.968 12.424 7.928 12.408 7.896 12.392C7.88 12.392 7.872 12.408 7.872 12.44C7.888 12.472 7.88 12.488 7.848 12.488L6.696 12.728L6.648 12.608L6.072 12.728C6.088 12.84 6.096 12.968 6.096 13.112C6.112 13.256 6.12 13.408 6.12 13.568C6.12 13.776 6.112 13.976 6.096 14.168C6.096 14.36 6.088 14.528 6.072 14.672H5.88C5.88 14.688 5.888 14.744 5.904 14.84C5.936 14.92 5.96 14.944 5.976 14.912L6.024 14.744C6.04 14.872 6.048 15.008 6.048 15.152C6.048 15.28 6.048 15.408 6.048 15.536C6.048 15.664 6.04 15.792 6.024 15.92C6.024 16.048 6.008 16.176 5.976 16.304C6.024 16.384 6.056 16.472 6.072 16.568C6.088 16.664 6.096 16.752 6.096 16.832C6.096 16.944 6.08 17.048 6.048 17.144C6.032 17.24 6.008 17.344 5.976 17.456L6.216 17.744V17.648C6.36 17.568 6.448 17.448 6.48 17.288C6.528 17.112 6.536 16.952 6.504 16.808C6.536 17.032 6.552 17.304 6.552 17.624C6.552 17.736 6.544 17.848 6.528 17.96C6.512 18.072 6.488 18.16 6.456 18.224C6.488 18.384 6.512 18.544 6.528 18.704C6.544 18.848 6.552 19 6.552 19.16C6.552 19.384 6.544 19.616 6.528 19.856C6.512 20.08 6.504 20.304 6.504 20.528H6.456C6.36 20.528 6.264 20.512 6.168 20.48L6.072 20.576L5.256 20.24V20.096L4.872 19.808C4.856 19.776 4.848 19.728 4.848 19.664C4.848 19.584 4.848 19.512 4.848 19.448C4.864 19.384 4.872 19.32 4.872 19.256C4.872 19.128 4.84 19.072 4.776 19.088L4.872 18.464L4.704 18.368L4.824 17.96H4.704C4.688 17.912 4.68 17.832 4.68 17.72C4.68 17.448 4.744 17.2 4.872 16.976C4.76 16.736 4.704 16.448 4.704 16.112C4.704 15.84 4.728 15.56 4.776 15.272C4.824 14.984 4.84 14.712 4.824 14.456L4.968 14.432L4.824 14.168L4.968 13.76C4.92 13.664 4.912 13.552 4.944 13.424C4.992 13.296 4.984 13.192 4.92 13.112C4.856 13.048 4.776 12.992 4.68 12.944C4.584 12.88 4.496 12.88 4.416 12.944V13.184C4.304 13.248 4.176 13.28 4.032 13.28C3.936 13.28 3.84 13.272 3.744 13.256C3.648 13.224 3.56 13.2 3.48 13.184C3.512 13.248 3.528 13.28 3.528 13.28C3.528 13.36 3.456 13.4 3.312 13.4C3.184 13.384 3.16 13.424 3.24 13.52C3.064 13.504 2.904 13.512 2.76 13.544C2.6 13.56 2.456 13.632 2.328 13.76V13.856H2.448L2.952 13.76C2.952 13.808 2.936 13.848 2.904 13.88L2.112 13.976L2.04 13.856C2.04 13.856 2.04 13.92 2.04 14.048L1.416 14.168L1.296 14.096L0.432 14.216L0.6 14.144V14.12C0.584 14.12 0.544 14.136 0.48 14.168C0.416 14.184 0.368 14.2 0.336 14.216C0.336 14.104 0.368 13.928 0.432 13.688C0.48 13.432 0.544 13.176 0.624 12.92C0.704 12.664 0.776 12.488 0.84 12.392C0.888 12.344 0.928 12.32 0.96 12.32C1.024 12.32 1.072 12.368 1.104 12.464C1.12 12.544 1.168 12.568 1.248 12.536L1.824 12.152L2.16 12.2L2.28 12.08L3.024 12.104C3.28 11.96 3.528 11.912 3.768 11.96V11.816C3.816 11.832 3.896 11.864 4.008 11.912C4.136 11.96 4.176 11.92 4.128 11.792L5.064 11.576L4.992 11.432L5.256 11.288V11.24L5.064 10.952C5.096 10.92 5.128 10.8 5.16 10.592C5.192 10.368 5.216 10.112 5.232 9.824C5.264 9.536 5.288 9.272 5.304 9.032C5.336 8.776 5.352 8.6 5.352 8.504C5.416 8.536 5.448 8.552 5.448 8.552C5.528 8.552 5.56 8.504 5.544 8.408C5.528 8.296 5.48 8.28 5.4 8.36L5.592 7.88L5.496 7.688L5.688 6.848L5.784 6.968C5.8 6.952 5.808 6.928 5.808 6.896C5.808 6.832 5.776 6.768 5.712 6.704C5.664 6.624 5.624 6.576 5.592 6.56L5.76 6.368C5.712 6.416 5.688 6.392 5.688 6.296C5.688 6.184 5.72 6.168 5.784 6.248C5.784 5.96 5.792 5.664 5.808 5.36C5.824 5.04 5.88 4.744 5.976 4.472L5.952 4.448C5.936 4.448 5.912 4.48 5.88 4.544C5.864 4.608 5.848 4.648 5.832 4.664L5.448 4.592L5.592 4.904L5.352 5.096C5.32 5.032 5.304 4.984 5.304 4.952C5.304 4.888 5.328 4.84 5.376 4.808C5.44 4.76 5.432 4.688 5.352 4.592L5.736 4.136L5.688 3.848H5.784L5.832 3.56H5.88C5.912 3.624 5.92 3.672 5.904 3.704C5.904 3.736 5.912 3.744 5.928 3.728C5.944 3.728 5.952 3.712 5.952 3.68C5.952 3.648 5.936 3.616 5.904 3.584C5.888 3.536 5.88 3.488 5.88 3.44C5.88 3.424 5.912 3.368 5.976 3.272C6.056 3.176 6.136 3.08 6.216 2.984C6.312 2.872 6.376 2.816 6.408 2.816C6.424 2.816 6.432 2.824 6.432 2.84L6.456 2.696C6.344 2.6 6.32 2.528 6.384 2.48C6.464 2.432 6.504 2.448 6.504 2.528L6.552 2.24C6.664 2.336 6.704 2.344 6.672 2.264C6.656 2.184 6.648 2.152 6.648 2.168L7.032 1.88V1.904C7.032 1.936 7 1.976 6.936 2.024C6.888 2.056 6.872 2.088 6.888 2.12H7.08L7.512 2C7.704 2.096 7.832 2.208 7.896 2.336C7.976 2.448 8.016 2.576 8.016 2.72C8.016 2.928 7.96 3.152 7.848 3.392C7.736 3.632 7.656 3.864 7.608 4.088L7.368 4.184L7.416 4.208L7.512 4.232L7.176 4.808C7.24 4.904 7.24 5.064 7.176 5.288C7.128 5.496 7.064 5.72 6.984 5.96C6.92 6.2 6.888 6.4 6.888 6.56H6.696L6.744 6.632L6.792 7.016L6.648 7.208L6.696 7.544L6.504 7.88L6.6 8.072C6.6 8.072 6.568 8.072 6.504 8.072L6.408 7.976V8.072C6.408 8.184 6.4 8.296 6.384 8.408C6.368 8.52 6.36 8.632 6.36 8.744C6.36 8.808 6.36 8.864 6.36 8.912C6.376 8.96 6.392 9.016 6.408 9.08L6.216 9.2L6.408 9.416L6.264 10.52C6.232 10.552 6.208 10.544 6.192 10.496C6.176 10.448 6.168 10.424 6.168 10.424V10.52L6.12 10.568H6.264C6.264 10.584 6.248 10.632 6.216 10.712C6.2 10.776 6.192 10.864 6.192 10.976C6.192 11.008 6.192 11.048 6.192 11.096C6.192 11.144 6.2 11.184 6.216 11.216L6.024 11.504C6.056 11.52 6.08 11.496 6.096 11.432C6.128 11.368 6.152 11.352 6.168 11.384V11.576H6.936C7.128 11.576 7.32 11.576 7.512 11.576C7.704 11.56 7.896 11.544 8.088 11.528L8.232 11.432H9.192L9.24 11.576C9.272 11.56 9.288 11.528 9.288 11.48C9.304 11.432 9.328 11.4 9.36 11.384H9.432C9.544 11.384 9.648 11.392 9.744 11.408C9.84 11.408 9.936 11.408 10.032 11.408C10.08 11.408 10.128 11.408 10.176 11.408C10.24 11.408 10.296 11.4 10.344 11.384L10.584 11.504L10.968 11.384V11.408C10.968 11.472 11.008 11.504 11.088 11.504C11.168 11.488 11.192 11.448 11.16 11.384L11.496 11.432L11.544 11.576L11.784 11.384C11.88 11.432 11.992 11.456 12.12 11.456C12.264 11.456 12.408 11.44 12.552 11.408C12.712 11.36 12.864 11.336 13.008 11.336C13.152 11.336 13.28 11.368 13.392 11.432H13.344C13.248 11.432 13.2 11.448 13.2 11.48C13.2 11.512 13.248 11.528 13.344 11.528C13.376 11.528 13.424 11.52 13.488 11.504C13.568 11.488 13.648 11.448 13.728 11.384C13.712 11.096 13.72 10.8 13.752 10.496C13.8 10.192 13.896 9.912 14.04 9.656L13.8 9.32C13.832 9 13.904 8.712 14.016 8.456C13.952 8.424 13.92 8.368 13.92 8.288C13.936 8.192 13.976 8.152 14.04 8.168L13.968 7.832L14.04 7.736C14.024 7.704 14.016 7.632 14.016 7.52C14.016 7.36 14.032 7.16 14.064 6.92C14.112 6.68 14.16 6.464 14.208 6.272C14.256 6.064 14.288 5.928 14.304 5.864L14.208 5.816L14.424 4.664L14.328 4.592L14.496 3.56L14.088 3.896L14.256 4.016L13.968 4.232C13.92 4.088 13.928 3.928 13.992 3.752C14.072 3.576 14.144 3.432 14.208 3.32L14.088 3.224C14.216 3.176 14.304 2.992 14.352 2.672C14.416 2.352 14.48 2.096 14.544 1.904L14.616 2C14.744 1.872 14.84 1.72 14.904 1.544C14.968 1.368 15.008 1.2 15.024 1.04L15.072 1.136V0.8C15.088 0.831999 15.12 0.847999 15.168 0.847999C15.248 0.847999 15.336 0.799999 15.432 0.704C15.544 0.591999 15.648 0.527999 15.744 0.511999C15.856 0.671999 16 0.775999 16.176 0.823999C16.352 0.871999 16.496 0.975999 16.608 1.136V1.232C16.608 1.392 16.632 1.52 16.68 1.616C16.552 1.696 16.488 1.784 16.488 1.88C16.504 1.96 16.504 2.048 16.488 2.144C16.488 2.24 16.4 2.344 16.224 2.456L16.32 2.744C16.304 2.792 16.264 2.816 16.2 2.816C16.168 2.816 16.128 2.808 16.08 2.792C16.048 2.776 16.016 2.768 15.984 2.768C16.064 2.864 16.104 3.016 16.104 3.224C16.104 3.528 16.04 3.88 15.912 4.28C15.784 4.68 15.712 5 15.696 5.24L15.648 5.168V5.12C15.632 5.184 15.616 5.328 15.6 5.552C15.6 5.76 15.6 5.904 15.6 5.984L15.528 5.96L15.504 6.056V6.536H15.36L15.312 7.256L15.408 7.304C15.424 7.352 15.432 7.44 15.432 7.568C15.432 7.712 15.408 7.856 15.36 8C15.328 8.144 15.28 8.28 15.216 8.408L15.36 8.456L15.168 9.704C15.2 9.736 15.216 9.8 15.216 9.896C15.216 10.008 15.184 10.064 15.12 10.064C15.152 10.32 15.176 10.576 15.192 10.832C15.208 11.072 15.216 11.32 15.216 11.576L15.528 11.528C15.544 11.544 15.552 11.56 15.552 11.576C15.552 11.608 15.528 11.64 15.48 11.672C15.432 11.704 15.392 11.728 15.36 11.744H15.936L16.032 11.624L16.32 11.744L16.464 12.08C16.32 12.128 16.144 12.152 15.936 12.152C15.728 12.136 15.552 12.136 15.408 12.152L15.36 11.912H15.312C15.248 11.976 15.208 12.056 15.192 12.152C15.176 12.232 15.168 12.312 15.168 12.392C15.168 12.52 15.184 12.648 15.216 12.776L15.072 12.896L15.216 13.304L15.072 13.688L15.216 14.264H15.12L15.24 14.84L15.168 14.912C15.264 15.12 15.312 15.344 15.312 15.584C15.312 15.712 15.304 15.84 15.288 15.968C15.272 16.096 15.264 16.224 15.264 16.352C15.264 16.56 15.296 16.736 15.36 16.88L15.216 17.072C15.296 17.216 15.352 17.472 15.384 17.84C15.432 18.192 15.456 18.504 15.456 18.776C15.456 18.984 15.44 19.104 15.408 19.136L15.696 19.232L15.816 18.992L15.936 19.088C15.952 19.152 15.96 19.216 15.96 19.28C15.976 19.344 15.984 19.416 15.984 19.496C15.984 19.576 15.976 19.664 15.96 19.76C15.96 19.84 15.952 19.92 15.936 20C15.872 19.968 15.856 20.04 15.888 20.216C15.92 20.392 15.96 20.576 16.008 20.768C16.056 20.976 16.064 21.12 16.032 21.2L15.936 21.392H16.032ZM23.8187 19.016C23.7067 19.032 23.5707 18.984 23.4107 18.872C23.2507 18.744 23.1387 18.64 23.0747 18.56L23.0987 18.344C23.0827 18.344 23.0667 18.352 23.0507 18.368C23.0347 18.384 23.0187 18.392 23.0027 18.392L23.0987 17.792C23.1307 17.792 23.1387 17.752 23.1227 17.672C23.1227 17.592 23.1227 17.544 23.1227 17.528L23.0987 17.504L23.1227 17.096H23.2187L23.0987 16.976L23.1467 16.616L23.1947 16.592L23.1467 16.52L23.1947 16.256L23.2907 16.208C23.2907 16.176 23.2747 16.144 23.2427 16.112C23.2267 16.064 23.2187 16.024 23.2187 15.992C23.2187 15.928 23.2747 15.84 23.3867 15.728L23.2907 15.68L23.4347 15.56L23.3147 15.512C23.3947 15.448 23.4187 15.392 23.3867 15.344C23.3547 15.28 23.3547 15.216 23.3867 15.152L23.5547 14.912L23.4347 14.792L23.4587 14.648C23.5387 14.648 23.5787 14.624 23.5787 14.576C23.5787 14.544 23.5707 14.504 23.5547 14.456C23.5387 14.408 23.5307 14.36 23.5307 14.312H23.5547L23.5787 14.36L23.6507 13.88L23.6987 13.856V13.496H23.8187L23.7467 13.232L23.7227 13.256L23.2187 14.072L23.0747 14.096L22.8827 14.36L23.0027 14.408L22.9307 14.528H22.7387C22.7707 14.592 22.7867 14.64 22.7867 14.672C22.7867 14.736 22.7467 14.792 22.6667 14.84C22.5867 14.872 22.5307 14.896 22.4987 14.912L22.5467 15.056L22.3547 15.368L22.2347 15.32C22.2347 15.32 22.2267 15.336 22.2107 15.368C22.2107 15.4 22.1947 15.416 22.1627 15.416L22.0427 15.368L21.9947 15.56L22.1147 15.584C22.0507 15.648 22.0027 15.704 21.9707 15.752C21.9387 15.8 21.8587 15.824 21.7307 15.824C21.7147 15.872 21.7307 15.92 21.7787 15.968C21.6507 16.144 21.5067 16.32 21.3467 16.496C21.2027 16.672 21.0427 16.824 20.8667 16.952H20.7947L20.6027 17.144L20.5067 17.096L20.4587 17.264L20.0027 17.456L19.9547 17.576L19.7867 17.528L19.6907 17.672H19.5947C19.2107 17.672 18.8907 17.568 18.6347 17.36C18.5867 17.264 18.5627 17.152 18.5627 17.024C18.5307 17.024 18.5067 17.04 18.4907 17.072C18.4747 17.088 18.4587 17.104 18.4427 17.12L18.2987 16.52L18.3707 16.376L18.3227 16.328L18.3467 16.136H18.4187L18.6107 15.272C18.6267 15.272 18.6347 15.28 18.6347 15.296C18.6507 15.312 18.6667 15.32 18.6827 15.32C18.7147 15.32 18.7307 15.296 18.7307 15.248C18.7307 15.2 18.7227 15.168 18.7067 15.152L18.6587 15.176C18.6907 14.936 18.8107 14.76 19.0187 14.648C18.9867 14.616 18.9707 14.576 18.9707 14.528C18.9707 14.48 18.9787 14.44 18.9947 14.408C19.0267 14.36 19.0507 14.312 19.0667 14.264L19.1387 14.288V14.264L19.1147 14.216L19.2107 14.168C19.2267 14.168 19.2187 14.144 19.1867 14.096C19.1707 14.048 19.1947 14.056 19.2587 14.12V13.952H19.4027C19.4507 13.888 19.4907 13.816 19.5227 13.736C19.5547 13.656 19.5867 13.576 19.6187 13.496H19.8587L19.7867 13.328L19.9067 13.184L20.0507 13.232L20.1227 12.92L20.5067 12.632L20.3867 12.56L20.5307 12.512L20.5547 12.656C20.5547 12.48 20.6267 12.352 20.7707 12.272H20.7947L20.8187 12.392L20.8427 12.344L20.8187 12.224L21.0827 12.032L21.1067 12.128C21.1227 11.968 21.2107 11.848 21.3707 11.768C21.5307 11.672 21.6987 11.584 21.8747 11.504C22.0507 11.424 22.1467 11.336 22.1627 11.24L22.3547 11.264C22.3707 11.248 22.3787 11.224 22.3787 11.192C22.3947 11.144 22.3867 11.12 22.3547 11.12C22.5147 11.104 22.6987 11.048 22.9067 10.952H23.1467L23.0267 10.88L23.0507 10.856C23.3387 10.776 23.6347 10.736 23.9387 10.736C24.1467 10.736 24.3387 10.8 24.5147 10.928L24.9947 11.12C25.0107 11.136 24.9947 11.144 24.9467 11.144C24.9147 11.144 24.8987 11.16 24.8987 11.192C24.8987 11.208 24.9227 11.232 24.9707 11.264C25.0187 11.28 25.0587 11.288 25.0907 11.288L25.1147 11.216C25.1307 11.216 25.1387 11.248 25.1387 11.312C25.1547 11.36 25.1707 11.368 25.1867 11.336L25.3787 11.528H25.2827L25.2347 12.224H25.1387L25.0907 12.344L25.1627 12.512C25.1627 12.528 25.1547 12.56 25.1387 12.608C25.1387 12.64 25.1307 12.632 25.1147 12.584V12.536L25.0427 12.56C25.0587 12.592 25.0667 12.64 25.0667 12.704C25.0667 12.752 25.0587 12.808 25.0427 12.872C25.0427 12.92 25.0347 12.976 25.0187 13.04C24.9547 13.04 24.9147 13.048 24.8987 13.064L24.8267 13.256C24.8107 13.32 24.8187 13.36 24.8507 13.376C24.8827 13.376 24.8987 13.384 24.8987 13.4L24.8507 13.496C24.8507 13.56 24.8507 13.624 24.8507 13.688C24.8667 13.752 24.8667 13.824 24.8507 13.904H24.6587L24.3947 13.928C24.4587 14.024 24.5307 14.104 24.6107 14.168C24.6907 14.216 24.7307 14.24 24.7307 14.24C24.7627 14.272 24.7707 14.304 24.7547 14.336C24.7227 14.416 24.6907 14.496 24.6587 14.576C24.6267 14.656 24.5947 14.736 24.5627 14.816L24.6347 14.84C24.6507 14.856 24.6427 14.864 24.6107 14.864C24.5947 14.864 24.5947 14.872 24.6107 14.888L24.6347 14.912C24.6507 14.928 24.6587 14.952 24.6587 14.984C24.6587 15.048 24.6347 15.112 24.5867 15.176C24.5387 15.24 24.4987 15.312 24.4667 15.392H24.5387C24.5387 15.52 24.5307 15.696 24.5147 15.92C24.4987 16.128 24.4507 16.28 24.3707 16.376H24.3467V16.256H24.2267L24.3947 16.496C24.3307 16.704 24.2907 16.928 24.2747 17.168C24.2587 17.392 24.2347 17.616 24.2027 17.84L24.3707 18.056H24.3947V17.888L24.5387 17.792H24.6587L24.7067 17.96L24.7547 17.672C24.7547 17.688 24.7547 17.688 24.7547 17.672C24.7707 17.656 24.7787 17.648 24.7787 17.648H24.8267C24.8587 17.536 24.8667 17.456 24.8507 17.408C24.9467 17.28 25.0587 17.112 25.1867 16.904C25.3307 16.68 25.4667 16.464 25.5947 16.256C25.7227 16.032 25.8027 15.856 25.8347 15.728C25.8667 15.728 25.8907 15.744 25.9067 15.776C25.9227 15.808 25.9387 15.824 25.9547 15.824C25.9707 15.824 25.9707 15.792 25.9547 15.728C25.9547 15.648 25.9387 15.616 25.9067 15.632C25.9547 15.568 25.9867 15.496 26.0027 15.416C26.0187 15.32 26.0587 15.272 26.1227 15.272C26.2027 15.272 26.2427 15.296 26.2427 15.344C26.2427 15.376 26.2347 15.416 26.2187 15.464C26.2027 15.496 26.1947 15.528 26.1947 15.56L26.1707 16.064L26.0267 16.184L26.0747 16.208H26.0987L26.0267 16.256L26.0987 16.328H26.0267C26.0267 16.408 26.0107 16.488 25.9787 16.568C25.9627 16.648 25.9387 16.728 25.9067 16.808L25.7627 16.856L25.8107 16.952L25.6907 17.12L25.5467 17.144L25.2347 17.936L25.0907 17.912L25.1147 18.104L24.4907 18.824L24.3707 18.8L24.3467 18.944L24.2507 19.016H23.8187ZM19.4747 16.856H19.5227L20.0507 16.592C20.0827 16.624 20.0907 16.64 20.0747 16.64C20.0587 16.64 20.0507 16.64 20.0507 16.64C20.0507 16.688 20.0667 16.728 20.0987 16.76C20.1307 16.776 20.1547 16.784 20.1707 16.784L20.1227 16.544C20.1547 16.448 20.2187 16.424 20.3147 16.472L20.2907 16.52L20.4587 16.448H20.3387C20.3227 16.4 20.3387 16.376 20.3867 16.376L20.7707 16.28C20.7867 16.264 20.7627 16.256 20.6987 16.256C20.6347 16.24 20.6027 16.224 20.6027 16.208L20.7467 16.136C20.8587 16.056 20.9547 15.984 21.0347 15.92C21.1307 15.84 21.1787 15.8 21.1787 15.8C21.2107 15.848 21.2587 15.872 21.3227 15.872H21.3467V15.56L21.5147 15.392L21.6107 15.416L21.5867 15.296L21.7787 15.224C21.8107 15.08 21.8827 14.976 21.9947 14.912C22.1067 14.832 22.1947 14.744 22.2587 14.648H22.2107C22.2427 14.568 22.3067 14.52 22.4027 14.504C22.4987 14.472 22.5547 14.408 22.5707 14.312L22.5227 14.216L22.7867 14L22.7387 13.976C22.7707 13.944 22.7867 13.912 22.7867 13.88C22.8027 13.832 22.8427 13.816 22.9067 13.832L23.0267 13.856V13.616L23.1227 13.448H23.3147C23.3467 13.352 23.3147 13.304 23.2187 13.304L23.5547 12.848L23.6987 12.92V12.872L23.5547 12.824L23.6507 12.68L23.7467 12.656L23.7707 12.632C23.7227 12.632 23.7067 12.616 23.7227 12.584C23.7387 12.536 23.7707 12.52 23.8187 12.536L23.8427 12.344L23.9627 12.296H23.9147L23.9627 12.176H24.1307L24.0827 11.816L24.1307 11.768L24.0587 11.696C24.0267 11.808 23.9467 11.872 23.8187 11.888C23.6907 11.904 23.5787 11.912 23.4827 11.912C23.5147 11.928 23.5227 11.96 23.5067 12.008C23.4907 12.04 23.4667 12.048 23.4347 12.032L23.2907 11.96H23.2187L23.2907 12.128L23.0747 12.08L23.1227 12.176H23.0027V12.272L22.7867 12.416C22.7707 12.416 22.6987 12.408 22.5707 12.392C22.4587 12.376 22.4347 12.4 22.4987 12.464H22.5467C22.5467 12.544 22.5227 12.576 22.4747 12.56C22.4267 12.544 22.3947 12.536 22.3787 12.536L22.4267 12.56C22.1227 12.704 21.8507 12.912 21.6107 13.184C21.6427 13.2 21.6347 13.224 21.5867 13.256C21.5547 13.288 21.5227 13.28 21.4907 13.232V13.376L21.4427 13.328C21.4427 13.408 21.3947 13.48 21.2987 13.544C21.2027 13.592 21.1147 13.632 21.0347 13.664C20.9867 13.76 20.9307 13.856 20.8667 13.952C20.8027 14.048 20.7307 14.12 20.6507 14.168L20.6027 14.144L20.3387 14.312V14.384C20.3707 14.544 20.3307 14.688 20.2187 14.816C20.1227 14.928 20.0267 15.048 19.9307 15.176L19.8587 15.104L19.7867 15.416H19.6187V15.728H19.4027C19.4667 15.728 19.5067 15.768 19.5227 15.848V15.872C19.5227 15.872 19.5227 15.864 19.5227 15.848L19.4747 15.824C19.4747 15.952 19.4427 16.08 19.3787 16.208C19.3147 16.336 19.2747 16.464 19.2587 16.592H19.3787C19.3467 16.72 19.3947 16.776 19.5227 16.76L19.4747 16.856ZM30.2288 18.704H29.7008L29.6528 18.56C29.5728 18.56 29.4848 18.568 29.3888 18.584C29.2928 18.584 29.2048 18.576 29.1248 18.56C29.0448 18.368 28.9328 18.216 28.7888 18.104C28.6608 17.976 28.5808 17.792 28.5488 17.552L28.6448 17.6C28.5648 17.392 28.5088 17.184 28.4768 16.976C28.4448 16.768 28.4208 16.56 28.4048 16.352C28.3568 16.304 28.3248 16.248 28.3088 16.184C28.3088 16.104 28.3088 16.032 28.3088 15.968C28.3088 15.952 28.3008 15.944 28.2848 15.944C28.2848 15.944 28.2848 15.936 28.2848 15.92C28.2848 15.856 28.3088 15.784 28.3568 15.704C28.4048 15.608 28.4048 15.504 28.3568 15.392H28.2608C28.2608 15.344 28.2528 15.272 28.2368 15.176C28.2368 15.064 28.2368 14.952 28.2368 14.84C28.2368 14.712 28.2448 14.584 28.2608 14.456C28.2768 14.312 28.2928 14.208 28.3088 14.144L28.4528 14.048V14.024C28.4528 13.96 28.4128 13.912 28.3328 13.88C28.2688 13.848 28.2608 13.776 28.3088 13.664C28.3408 13.6 28.3568 13.48 28.3568 13.304C28.3728 13.128 28.3808 12.96 28.3808 12.8C28.3808 12.704 28.3808 12.616 28.3808 12.536C28.3808 12.456 28.3728 12.4 28.3568 12.368C28.1648 12.416 27.9648 12.4 27.7568 12.32C27.5648 12.224 27.3808 12.16 27.2048 12.128C27.1888 12.24 27.1488 12.312 27.0848 12.344C27.0208 12.36 26.9488 12.4 26.8688 12.464H26.9648L26.9168 12.752H26.9648L27.0128 12.896C26.9488 12.944 26.8848 12.992 26.8208 13.04C26.7568 13.088 26.7728 13.152 26.8688 13.232L26.7248 13.424L26.7728 13.52C26.7248 13.6 26.6768 13.664 26.6288 13.712C26.5968 13.744 26.5808 13.792 26.5808 13.856C26.5808 13.936 26.5968 14 26.6288 14.048C26.6128 14.064 26.5808 14.064 26.5328 14.048C26.5008 14.016 26.4848 13.984 26.4848 13.952C26.4688 14.064 26.4528 14.168 26.4368 14.264C26.4208 14.36 26.4208 14.464 26.4368 14.576L26.2928 14.624L26.3408 14.72L26.0527 14.912C26.1008 15.056 26.1248 15.152 26.1248 15.2C26.1248 15.28 26.1008 15.392 26.0527 15.536L25.8128 15.584L25.9088 15.776L25.7168 15.92L25.7648 16.064C25.7168 16.176 25.6688 16.272 25.6208 16.352H25.5248L25.4768 16.16H25.4288V16.256L25.4768 16.448C25.4608 16.464 25.4288 16.48 25.3808 16.496C25.3328 16.496 25.3168 16.512 25.3328 16.544L25.4768 16.592C25.3808 16.608 25.3248 16.632 25.3088 16.664C25.3088 16.696 25.2688 16.72 25.1888 16.736C25.1888 16.656 25.1728 16.6 25.1408 16.568C25.1088 16.52 25.0768 16.464 25.0448 16.4C25.0768 16.368 25.1248 16.28 25.1888 16.136C25.2688 15.992 25.3328 15.84 25.3808 15.68C25.4448 15.504 25.4768 15.392 25.4768 15.344L25.6688 15.248V14.912H25.8128L25.7168 14.84C25.7968 14.808 25.8528 14.688 25.8848 14.48C25.9168 14.272 25.9888 14.112 26.1008 14L26.1488 14.144C26.1488 13.616 26.2928 13.152 26.5808 12.752L26.4848 12.656C26.5648 12.576 26.6208 12.456 26.6528 12.296C26.6848 12.136 26.7088 12 26.7248 11.888C26.5808 11.84 26.5168 11.784 26.5328 11.72C26.5488 11.656 26.5328 11.568 26.4848 11.456L26.4368 11.504C26.3248 11.344 26.2688 11.2 26.2688 11.072C26.2688 10.992 26.2848 10.912 26.3168 10.832C26.3488 10.736 26.3808 10.632 26.4128 10.52C26.3648 10.44 26.3408 10.352 26.3408 10.256C26.3408 10.16 26.3568 10.064 26.3888 9.968H26.4848L26.5328 9.584C26.5648 9.552 26.5888 9.544 26.6048 9.56C26.6208 9.56 26.6448 9.536 26.6768 9.488V9.416C26.8368 8.968 26.9728 8.728 27.0848 8.696C27.1968 8.664 27.2688 8.624 27.3008 8.576C27.3168 8.592 27.3488 8.6 27.3968 8.6C27.4288 8.6 27.4528 8.592 27.4688 8.576C27.5008 8.544 27.5488 8.52 27.6128 8.504L27.6848 8.48C27.7168 8.464 27.7168 8.488 27.6848 8.552C27.6688 8.6 27.6688 8.624 27.6848 8.624L27.7808 8.48L27.9248 8.672C27.8608 8.752 27.8288 8.848 27.8288 8.96H27.9728L27.8768 9.56L27.7328 9.584C27.8128 9.616 27.8528 9.664 27.8528 9.728C27.8528 9.792 27.8288 9.856 27.7808 9.92C27.7328 9.984 27.6848 10.032 27.6367 10.064L27.7328 10.16L27.4928 10.208V10.256L27.6848 10.304H27.5888L27.4928 10.4L27.3968 10.88C27.3488 10.864 27.3328 10.896 27.3488 10.976C27.3808 11.056 27.3328 11.2 27.2048 11.408V11.504L27.2528 11.6C27.2848 11.68 27.3568 11.712 27.4688 11.696C27.5968 11.68 27.7008 11.68 27.7808 11.696C28.0528 11.424 28.2768 11.2 28.4528 11.024C28.6288 10.848 28.8208 10.72 29.0288 10.64C29.2528 10.544 29.5728 10.496 29.9888 10.496V10.52C29.9888 10.552 29.9808 10.592 29.9648 10.64C29.9488 10.672 29.9408 10.704 29.9408 10.736H30.2288V10.832L30.0848 10.88C30.1008 10.912 30.1088 10.952 30.1088 11C30.1088 11.048 30.1168 11.088 30.1328 11.12L29.9888 11.168C30.0208 11.2 30.0368 11.248 30.0368 11.312C30.0368 11.36 30.0208 11.408 29.9888 11.456C29.9728 11.504 29.9728 11.552 29.9888 11.6L29.8448 11.648C29.9248 11.712 29.9568 11.768 29.9408 11.816C29.9408 11.864 29.9408 11.944 29.9408 12.056L29.7968 12.08C29.8288 12.128 29.8608 12.216 29.8928 12.344L29.7008 12.368V12.512H29.8448V12.8L29.7008 12.848L29.7968 12.944L29.6528 12.992C29.6688 13.008 29.7088 13.04 29.7728 13.088C29.8368 13.12 29.8288 13.136 29.7488 13.136C29.7008 13.184 29.6928 13.208 29.7248 13.208C29.7568 13.208 29.7808 13.248 29.7968 13.328L29.6048 13.472C29.7168 13.504 29.7648 13.552 29.7488 13.616C29.7488 13.68 29.7488 13.76 29.7488 13.856L29.5568 13.904C29.6688 13.968 29.7248 14.04 29.7248 14.12C29.7248 14.2 29.7008 14.288 29.6528 14.384C29.6048 14.464 29.5728 14.544 29.5568 14.624C29.6048 14.624 29.6288 14.664 29.6288 14.744C29.6448 14.808 29.6528 14.848 29.6528 14.864C29.7168 14.928 29.7488 15.024 29.7488 15.152H29.5568C29.5728 15.184 29.6048 15.216 29.6528 15.248C29.7168 15.264 29.7648 15.28 29.7968 15.296C29.7968 15.376 29.7968 15.464 29.7968 15.56C29.8128 15.656 29.8208 15.744 29.8208 15.824C29.8208 15.952 29.8048 16.08 29.7728 16.208C29.7408 16.336 29.6848 16.464 29.6048 16.592H29.9408C29.9408 16.704 29.9648 16.824 30.0128 16.952C30.0768 17.064 30.1328 17.168 30.1808 17.264L30.0368 17.36C30.1168 17.36 30.1648 17.368 30.1808 17.384C30.2128 17.4 30.2608 17.432 30.3248 17.48L30.1808 17.6C30.2608 17.6 30.3248 17.608 30.3728 17.624C30.4208 17.624 30.4848 17.616 30.5648 17.6L30.5168 17.744H30.6608V17.6C30.6928 17.6 30.7488 17.608 30.8288 17.624C30.9088 17.624 30.9488 17.6 30.9488 17.552C30.8848 17.552 30.8448 17.544 30.8288 17.528C30.8128 17.512 30.8368 17.504 30.9008 17.504C31.0768 17.232 31.2688 16.984 31.4768 16.76C31.6848 16.536 31.8288 16.256 31.9088 15.92L32.1488 15.968C32.1168 15.824 32.1248 15.648 32.1728 15.44C32.2368 15.232 32.3328 15.048 32.4608 14.888C32.6048 14.728 32.7568 14.64 32.9168 14.624C32.9168 14.624 32.9248 14.632 32.9408 14.648C32.9728 14.664 32.9888 14.696 32.9888 14.744C32.9888 14.792 32.9648 14.864 32.9168 14.96C32.8688 14.976 32.8368 14.992 32.8208 15.008C32.8048 15.024 32.7808 15.048 32.7488 15.08C32.7488 15.128 32.7488 15.176 32.7488 15.224C32.7488 15.272 32.7568 15.312 32.7728 15.344L32.6288 15.392L32.6768 15.488C32.6128 15.552 32.5728 15.576 32.5568 15.56C32.5568 15.544 32.5488 15.6 32.5328 15.728C32.5168 16.048 32.3968 16.352 32.1728 16.64C31.9488 16.928 31.7808 17.168 31.6688 17.36V17.504C31.6048 17.616 31.5088 17.696 31.3808 17.744V17.936C31.3328 17.952 31.2768 17.968 31.2128 17.984C31.1648 18 31.1728 18.032 31.2368 18.08C31.1088 18.08 31.0128 18.104 30.9488 18.152C30.9008 18.184 30.8368 18.24 30.7568 18.32L30.8528 18.416C30.7888 18.432 30.7168 18.448 30.6367 18.464C30.5728 18.464 30.5008 18.464 30.4208 18.464L30.2288 18.704ZM33.7393 21.464C33.4353 21.48 33.1713 21.392 32.9473 21.2C32.7393 21.024 32.5793 20.792 32.4673 20.504C32.3713 20.216 32.3153 19.944 32.2993 19.688L32.2513 19.736C32.2353 19.752 32.2193 19.744 32.2033 19.712C32.1873 19.68 32.1793 19.656 32.1793 19.64C32.2113 19.576 32.2273 19.536 32.2273 19.52C32.2273 19.472 32.2113 19.432 32.1793 19.4C32.1633 19.352 32.1553 19.304 32.1553 19.256C32.1553 19.176 32.1873 19.112 32.2513 19.064C32.3153 19 32.3553 18.936 32.3713 18.872C32.4033 18.84 32.4113 18.8 32.3953 18.752C32.3793 18.688 32.3713 18.64 32.3713 18.608C32.3233 18.576 32.2753 18.536 32.2273 18.488C32.1793 18.44 32.1393 18.4 32.1073 18.368C32.1553 18.288 32.1793 18.208 32.1793 18.128C32.1793 18.016 32.1633 17.904 32.1313 17.792C32.0993 17.68 32.0913 17.568 32.1073 17.456C32.1073 17.408 32.1233 17.352 32.1553 17.288C32.2033 17.224 32.2113 17.16 32.1793 17.096C32.1793 17.064 32.1633 17.04 32.1313 17.024C32.0993 17.008 32.0833 16.976 32.0833 16.928C32.0833 16.848 32.0993 16.792 32.1313 16.76C32.1633 16.712 32.1793 16.656 32.1793 16.592H32.1553C32.1393 16.608 32.1313 16.632 32.1313 16.664C32.1313 16.68 32.1233 16.704 32.1073 16.736V16.448C32.1553 16.432 32.1793 16.384 32.1793 16.304C32.1793 16.256 32.1713 16.208 32.1553 16.16C32.1393 16.096 32.1233 16.048 32.1073 16.016C32.1873 15.984 32.2353 15.952 32.2513 15.92C32.2673 15.888 32.2833 15.824 32.2993 15.728C32.2033 15.696 32.1553 15.648 32.1553 15.584C32.1553 15.504 32.1553 15.424 32.1553 15.344L32.2513 15.392C32.2353 15.296 32.2353 15.216 32.2513 15.152C32.1713 15.136 32.1313 15.112 32.1313 15.08C32.1473 15.032 32.1553 14.976 32.1553 14.912C32.2193 14.848 32.2513 14.76 32.2513 14.648C32.2513 14.568 32.2353 14.48 32.2033 14.384C32.1873 14.288 32.1713 14.208 32.1553 14.144C32.1873 14.112 32.2193 14.096 32.2513 14.096C32.2993 14.08 32.3313 14.048 32.3473 14C32.2353 13.968 32.1793 13.904 32.1793 13.808C32.1793 13.696 32.1793 13.6 32.1793 13.52C32.2593 13.472 32.2993 13.392 32.2993 13.28C32.2993 13.136 32.2753 12.976 32.2273 12.8C32.1793 12.624 32.1633 12.48 32.1793 12.368C32.2113 12.32 32.2433 12.28 32.2753 12.248C32.3073 12.2 32.3313 12.152 32.3473 12.104C32.3633 12.072 32.3713 12.032 32.3713 11.984C32.3713 11.904 32.3473 11.832 32.2993 11.768C32.2673 11.688 32.2513 11.608 32.2513 11.528V11.36C32.2513 11.232 32.2513 11.112 32.2513 11C32.2673 10.872 32.2753 10.752 32.2753 10.64C32.2753 10.512 32.2673 10.384 32.2513 10.256C32.2353 10.128 32.2033 10.008 32.1553 9.896C32.0753 9.896 31.9473 9.864 31.7713 9.8C31.6113 9.736 31.5153 9.664 31.4833 9.584C31.6273 9.536 31.7553 9.448 31.8673 9.32C31.9313 9.32 32.0273 9.336 32.1553 9.368C32.2833 9.4 32.3713 9.4 32.4193 9.368V9.272C32.4833 9.24 32.5553 9.224 32.6353 9.224C32.7313 9.224 32.8113 9.216 32.8753 9.2C32.8753 9.264 32.8673 9.304 32.8513 9.32C32.8353 9.32 32.8593 9.336 32.9233 9.368C32.9393 9.368 32.9473 9.376 32.9473 9.392C32.9473 9.392 32.9553 9.392 32.9713 9.392C33.0033 9.392 33.0353 9.376 33.0673 9.344C33.0993 9.296 33.1473 9.272 33.2113 9.272C33.3393 9.272 33.4513 9.328 33.5473 9.44C33.6593 9.552 33.7713 9.64 33.8833 9.704C33.9153 9.976 33.8993 10.256 33.8353 10.544C33.7873 10.816 33.7553 11.088 33.7393 11.36L33.6913 11.336C33.6753 11.304 33.6593 11.304 33.6433 11.336C33.6273 11.368 33.6193 11.392 33.6193 11.408C33.6193 11.424 33.6193 11.448 33.6193 11.48C33.6353 11.496 33.6433 11.52 33.6433 11.552C33.6433 11.632 33.6353 11.736 33.6193 11.864C33.6033 11.976 33.5873 12.064 33.5713 12.128C33.5073 12.144 33.4753 12.16 33.4753 12.176C33.4913 12.176 33.4993 12.216 33.4993 12.296C33.5633 12.408 33.5553 12.592 33.4753 12.848C33.4113 13.088 33.3793 13.28 33.3793 13.424L33.3073 13.376V13.424C33.3393 13.472 33.3553 13.56 33.3553 13.688C33.3553 13.848 33.3393 14.024 33.3073 14.216C33.2753 14.392 33.2513 14.544 33.2353 14.672H33.3793L33.3313 14.72C33.3153 14.72 33.3233 14.728 33.3553 14.744C33.3873 14.76 33.4113 14.768 33.4273 14.768C33.4753 14.704 33.5393 14.672 33.6193 14.672C33.6993 14.672 33.7713 14.688 33.8353 14.72C33.8993 14.736 33.9553 14.752 34.0033 14.768C34.1153 14.672 34.2593 14.624 34.4353 14.624C34.5153 14.624 34.5953 14.632 34.6753 14.648C34.7553 14.648 34.8353 14.656 34.9153 14.672L35.0113 14.384C35.1073 14.368 35.1713 14.352 35.2033 14.336C35.2513 14.32 35.3153 14.336 35.3953 14.384C35.5713 14.304 35.7393 14.192 35.8993 14.048C36.0593 13.888 36.2433 13.824 36.4513 13.856V13.712C36.5153 13.712 36.5793 13.68 36.6433 13.616C36.5473 13.552 36.4993 13.464 36.4993 13.352C36.4993 13.272 36.5073 13.184 36.5233 13.088C36.5553 12.992 36.5793 12.912 36.5953 12.848C36.6273 12.848 36.6753 12.832 36.7393 12.8C36.5953 12.736 36.5233 12.624 36.5233 12.464C36.5233 12.32 36.5553 12.168 36.6193 12.008C36.6993 11.848 36.7393 11.712 36.7393 11.6C36.7393 11.552 36.7233 11.504 36.6913 11.456C36.6753 11.408 36.6673 11.352 36.6673 11.288C36.6673 11.192 36.7073 11.144 36.7873 11.144C36.8673 11.128 36.9153 11.088 36.9313 11.024C36.9633 10.976 36.9793 10.912 36.9793 10.832C36.9793 10.736 36.9793 10.656 36.9793 10.592H36.9313C36.9153 10.672 36.9073 10.712 36.9073 10.712C36.9233 10.696 36.8993 10.712 36.8353 10.76V10.568C36.8833 10.504 36.9153 10.416 36.9313 10.304C36.9633 10.192 37.0113 10.12 37.0753 10.088C37.1073 10.056 37.1393 10.048 37.1713 10.064C37.2193 10.064 37.2513 10.008 37.2673 9.896C37.2193 9.864 37.1953 9.84 37.1953 9.824C37.1953 9.792 37.1873 9.752 37.1713 9.704C37.2833 9.608 37.3713 9.528 37.4353 9.464C37.5153 9.4 37.6353 9.368 37.7953 9.368C37.8273 9.432 37.8753 9.488 37.9393 9.536C38.0033 9.568 38.0513 9.624 38.0833 9.704C38.1953 9.944 38.2513 10.224 38.2513 10.544C38.2513 10.896 38.1953 11.256 38.0833 11.624C37.9873 11.976 37.8913 12.304 37.7953 12.608C37.8113 12.704 37.8193 12.8 37.8193 12.896C37.8353 12.976 37.8433 13.056 37.8433 13.136C37.8433 13.248 37.8273 13.376 37.7953 13.52C37.7793 13.648 37.7713 13.776 37.7713 13.904C37.7713 14.256 37.7953 14.608 37.8433 14.96C37.9073 15.312 37.9873 15.664 38.0833 16.016C38.1473 16.224 38.2113 16.472 38.2753 16.76C38.3393 17.048 38.4433 17.304 38.5873 17.528C38.7313 17.736 38.9473 17.84 39.2353 17.84C39.3153 17.712 39.4033 17.648 39.4993 17.648C39.6113 17.648 39.6993 17.552 39.7633 17.36C39.6993 17.328 39.6513 17.304 39.6193 17.288L39.6673 17.216C39.7153 17.184 39.7313 17.176 39.7153 17.192C39.7153 17.192 39.7313 17.16 39.7633 17.096C39.8113 17.128 39.8273 17.152 39.8113 17.168C39.8113 17.184 39.8353 17.184 39.8833 17.168C39.9153 17.136 39.9393 17.072 39.9553 16.976C39.9713 16.864 39.9873 16.784 40.0033 16.736C40.0353 16.608 40.0913 16.544 40.1713 16.544C40.2513 16.528 40.3233 16.48 40.3873 16.4C40.3873 16.368 40.3873 16.328 40.3873 16.28C40.4033 16.216 40.4033 16.176 40.3873 16.16C40.4193 16.112 40.4593 16.08 40.5073 16.064C40.5713 16.048 40.6113 16.016 40.6273 15.968V15.632C40.6593 15.664 40.6833 15.68 40.6993 15.68C40.7313 15.68 40.7713 15.648 40.8193 15.584C40.8673 15.504 40.9153 15.456 40.9633 15.44V15.392C40.8673 15.36 40.8193 15.344 40.8193 15.344H40.8913C40.9233 15.312 40.9473 15.296 40.9633 15.296C40.9953 15.28 41.0193 15.264 41.0353 15.248C41.0033 15.248 40.9553 15.232 40.8913 15.2L41.1313 15.152V15.584C41.0993 15.648 41.0673 15.728 41.0353 15.824L40.9633 15.728C40.9473 15.888 40.9073 16.04 40.8433 16.184C40.7953 16.312 40.7473 16.448 40.6993 16.592C40.6033 16.592 40.5553 16.632 40.5553 16.712C40.5553 16.776 40.5633 16.848 40.5793 16.928C40.4673 17.04 40.3393 17.216 40.1953 17.456C40.0673 17.696 39.9633 17.896 39.8833 18.056H39.8593C39.8433 18.04 39.8353 18.024 39.8353 18.008C39.8353 17.992 39.8273 18 39.8113 18.032C39.6513 18.224 39.5153 18.352 39.4033 18.416C39.3073 18.48 39.1233 18.504 38.8513 18.488C38.8513 18.472 38.8353 18.432 38.8033 18.368L38.6593 18.488C38.6273 18.456 38.5793 18.44 38.5153 18.44C38.4673 18.44 38.4193 18.432 38.3713 18.416L38.3233 18.248L38.1793 18.296C38.1473 18.28 38.0593 18.208 37.9153 18.08C37.7873 17.936 37.6593 17.792 37.5313 17.648C37.4033 17.504 37.3313 17.424 37.3153 17.408C37.2993 17.328 37.2993 17.264 37.3153 17.216C37.3313 17.152 37.3313 17.088 37.3153 17.024L37.1713 17.096C37.1553 16.92 37.1153 16.744 37.0513 16.568C37.0033 16.392 36.9633 16.224 36.9313 16.064L36.8353 16.16V16.016C36.9153 15.984 36.9313 15.912 36.8833 15.8C36.8353 15.688 36.7873 15.56 36.7393 15.416C36.6913 15.272 36.6913 15.136 36.7393 15.008L36.6913 15.056C36.6913 15.072 36.6833 15.064 36.6673 15.032C36.6513 15 36.6433 14.976 36.6433 14.96L36.5953 14.912H36.7393V14.768H36.5473C36.5313 14.688 36.5233 14.656 36.5233 14.672C36.5393 14.672 36.5153 14.656 36.4513 14.624C36.2593 14.752 36.0033 14.84 35.6833 14.888C35.3793 14.92 35.0673 14.944 34.7473 14.96C34.4273 14.96 34.1553 14.992 33.9313 15.056C33.9153 14.976 33.9073 14.944 33.9073 14.96C33.9073 14.96 33.8753 14.944 33.8113 14.912C33.7793 14.928 33.7393 14.944 33.6913 14.96C33.6433 14.96 33.6033 14.976 33.5713 15.008C33.6513 15.024 33.6913 15.032 33.6913 15.032C33.7073 15.016 33.7313 15.04 33.7633 15.104L33.4993 15.152L33.4273 15.008H33.3793V15.104C33.2993 15.216 33.2593 15.304 33.2593 15.368C33.2593 15.432 33.2673 15.504 33.2833 15.584C33.3153 15.664 33.3313 15.752 33.3313 15.848C33.3313 15.928 33.3233 16.016 33.3073 16.112C33.3073 16.192 33.3073 16.272 33.3073 16.352C33.3073 16.544 33.3153 16.736 33.3313 16.928C33.3473 17.104 33.3473 17.288 33.3313 17.48C33.3793 17.496 33.4113 17.536 33.4273 17.6C33.4433 17.648 33.4513 17.704 33.4513 17.768C33.4513 17.832 33.4433 17.888 33.4273 17.936C33.4273 17.968 33.4273 18 33.4273 18.032C33.3793 18.128 33.3793 18.272 33.4273 18.464C33.4753 18.64 33.5233 18.824 33.5713 19.016C33.6193 19.192 33.6193 19.352 33.5713 19.496C33.5713 19.528 33.5553 19.56 33.5233 19.592C33.4913 19.608 33.4833 19.64 33.4993 19.688L33.6193 19.808C33.6353 19.824 33.6433 19.856 33.6433 19.904C33.6433 19.968 33.6273 20.032 33.5953 20.096C33.5793 20.16 33.5553 20.216 33.5233 20.264C33.5553 20.296 33.5873 20.304 33.6193 20.288C33.6513 20.288 33.6753 20.32 33.6913 20.384V20.408C33.6913 20.456 33.6673 20.496 33.6193 20.528C33.5873 20.576 33.5713 20.632 33.5713 20.696C33.5713 20.824 33.6033 20.936 33.6673 21.032C33.7313 21.144 33.7633 21.272 33.7633 21.416L33.7393 21.464ZM45.3426 19.976C45.2466 19.976 45.1106 19.928 44.9346 19.832C44.7586 19.72 44.5986 19.576 44.4546 19.4C44.3266 19.224 44.2626 19.04 44.2626 18.848C44.2626 18.704 44.3026 18.584 44.3826 18.488C44.3666 18.392 44.3346 18.248 44.2866 18.056C44.2386 17.864 44.2466 17.728 44.3106 17.648C44.3426 17.648 44.3746 17.624 44.4066 17.576C44.4546 17.528 44.4626 17.48 44.4306 17.432L44.3106 17.312L44.3586 16.664H44.4306C44.4626 16.6 44.4786 16.536 44.4786 16.472C44.4786 16.392 44.4626 16.312 44.4306 16.232C44.4146 16.152 44.3906 16.08 44.3586 16.016H44.3826V15.896C44.3826 15.752 44.3826 15.616 44.3826 15.488C44.3986 15.36 44.4146 15.224 44.4306 15.08C44.4946 15.112 44.5106 15.096 44.4786 15.032C44.4466 14.968 44.4306 14.968 44.4306 15.032C44.3826 14.856 44.3986 14.656 44.4786 14.432C44.5586 14.208 44.5986 14.008 44.5986 13.832C44.5986 13.72 44.5746 13.632 44.5266 13.568C44.5266 13.648 44.5026 13.736 44.4546 13.832C44.4226 13.928 44.3906 14.016 44.3586 14.096V13.976H44.3106C44.3106 14.088 44.2866 14.168 44.2386 14.216L44.3826 14.264C44.2066 14.456 44.1186 14.712 44.1186 15.032H43.9506L44.0226 15.248L43.7346 15.272L44.0226 15.32C43.9586 15.4 43.9106 15.488 43.8786 15.584C43.8626 15.68 43.8466 15.768 43.8306 15.848L43.5906 15.896C43.6386 15.944 43.6626 16.016 43.6626 16.112C43.6626 16.288 43.5906 16.488 43.4466 16.712C43.3026 16.936 43.1826 17.088 43.0866 17.168C43.1506 17.2 43.1826 17.288 43.1826 17.432L43.1346 17.48H42.8946C42.9266 17.496 42.9506 17.544 42.9666 17.624C42.9986 17.688 43.0146 17.736 43.0146 17.768C42.9506 17.784 42.9026 17.816 42.8706 17.864C42.8386 17.912 42.7906 17.944 42.7266 17.96C42.7906 17.96 42.8466 18.008 42.8946 18.104C42.8306 18.2 42.7426 18.392 42.6306 18.68C42.5186 18.952 42.3986 19.112 42.2706 19.16L42.1026 18.944C42.0866 19.056 42.0146 19.12 41.8866 19.136C41.7586 19.152 41.6466 19.16 41.5506 19.16C41.4226 19 41.2786 18.888 41.1186 18.824C40.9746 18.76 40.8546 18.68 40.7586 18.584C40.6626 18.472 40.6146 18.28 40.6146 18.008C40.6466 17.976 40.6706 17.872 40.6866 17.696C40.7026 17.52 40.7106 17.328 40.7106 17.12C40.7106 16.88 40.7026 16.64 40.6866 16.4C40.6866 16.16 40.6866 15.992 40.6866 15.896H40.7106C40.7906 15.896 40.8306 15.832 40.8306 15.704C40.8306 15.624 40.8226 15.52 40.8066 15.392C40.7906 15.264 40.7826 15.144 40.7826 15.032C40.7826 14.904 40.7986 14.792 40.8306 14.696C40.8626 14.584 40.9266 14.496 41.0226 14.432L40.9266 14.216L41.0466 13.784L40.9746 13.616L41.2146 12.44C41.1506 12.392 41.1186 12.352 41.1186 12.32C41.1186 12.288 41.1266 12.256 41.1426 12.224C41.1586 12.192 41.1666 12.152 41.1666 12.104L41.3106 12.032L41.1666 11.936C41.2626 11.84 41.3106 11.632 41.3106 11.312C41.3106 11.072 41.2786 10.832 41.2146 10.592C41.1666 10.336 41.0866 10.176 40.9746 10.112C40.7986 10.016 40.5906 9.96 40.3506 9.944C40.1266 9.912 39.9026 9.888 39.6786 9.872C39.6786 9.808 39.6946 9.768 39.7266 9.752C39.7586 9.72 39.7426 9.704 39.6786 9.704C39.7746 9.608 39.8946 9.544 40.0386 9.512C40.1346 9.416 40.2706 9.368 40.4466 9.368C40.5746 9.368 40.6946 9.384 40.8066 9.416C40.9346 9.448 41.0306 9.48 41.0946 9.512C41.1266 9.32 41.2546 9.224 41.4786 9.224C41.7026 9.224 41.8866 9.224 42.0306 9.224C42.0626 9.32 42.1346 9.376 42.2466 9.392C42.3746 9.408 42.4786 9.408 42.5586 9.392C42.5746 9.552 42.6066 9.672 42.6546 9.752C42.7026 9.816 42.7266 9.888 42.7266 9.968C42.7266 10.048 42.6706 10.192 42.5586 10.4L42.6546 10.472L42.5586 11L42.4386 11.048H42.5586C42.5586 11.208 42.5266 11.368 42.4626 11.528C42.4146 11.672 42.3906 11.808 42.3906 11.936L42.4866 12.104L42.4386 12.464C42.4226 12.48 42.3906 12.48 42.3426 12.464C42.2946 12.432 42.2706 12.408 42.2706 12.392V12.512L42.3906 12.68L42.2466 12.728L42.3906 12.8L42.1026 13.904L42.2466 13.952L42.1986 14.432L41.9106 14.384C41.8946 14.432 41.8946 14.472 41.9106 14.504C41.9426 14.536 41.9666 14.552 41.9826 14.552H42.0066C42.0546 14.552 42.0786 14.592 42.0786 14.672C42.0946 14.736 42.1026 14.792 42.1026 14.84C42.0866 14.888 42.0706 14.936 42.0546 14.984C42.0546 15.032 42.0546 15.08 42.0546 15.128C42.0546 15.192 42.0546 15.264 42.0546 15.344C42.0706 15.424 42.0786 15.504 42.0786 15.584C42.0786 15.664 42.0626 15.752 42.0306 15.848L41.9586 15.896L41.9826 16.088C41.8546 16.184 41.7906 16.312 41.7906 16.472C41.8706 16.488 41.9106 16.544 41.9106 16.64C41.9106 16.704 41.8946 16.768 41.8626 16.832C41.8466 16.896 41.8226 16.952 41.7906 17C41.8706 17.144 41.9186 17.296 41.9346 17.456C41.9666 17.6 41.9986 17.76 42.0306 17.936C42.0626 17.936 42.1026 17.936 42.1506 17.936C42.2146 17.92 42.2546 17.888 42.2706 17.84C42.3026 17.776 42.3826 17.624 42.5106 17.384C42.6386 17.144 42.7666 16.912 42.8946 16.688C43.0386 16.464 43.1346 16.352 43.1826 16.352L43.0866 16.208H43.3266L43.0866 16.064L43.3746 15.824C43.3586 15.744 43.3506 15.68 43.3506 15.632C43.3506 15.584 43.3506 15.544 43.3506 15.512C43.3506 15.336 43.3826 15.216 43.4466 15.152C43.5106 15.088 43.5586 14.952 43.5906 14.744H43.7346C43.8146 14.648 43.8466 14.496 43.8306 14.288C43.8306 14.08 43.8466 13.864 43.8786 13.64C43.9106 13.4 44.0306 13.216 44.2386 13.088L44.1906 12.728H44.3826L44.2386 12.608L44.3346 12.536C44.3186 12.536 44.3186 12.52 44.3346 12.488C44.3666 12.44 44.3826 12.432 44.3826 12.464L44.4786 12.344C44.4466 12.328 44.4466 12.224 44.4786 12.032C44.5106 11.824 44.5586 11.592 44.6226 11.336C44.6866 11.064 44.7426 10.816 44.7906 10.592C44.8386 10.352 44.8706 10.192 44.8866 10.112L44.9586 10.064C45.2466 10.08 45.4306 10.12 45.5106 10.184C45.5906 10.232 45.6386 10.288 45.6546 10.352C45.6866 10.4 45.7586 10.432 45.8706 10.448C45.9346 10.512 45.9986 10.592 46.0626 10.688C46.1266 10.768 46.1826 10.864 46.2306 10.976C46.1506 11.04 46.1106 11.128 46.1106 11.24C46.1106 11.304 46.1106 11.368 46.1106 11.432C46.1266 11.48 46.1346 11.536 46.1346 11.6C46.1346 11.68 46.1266 11.744 46.1106 11.792L45.9906 11.816C46.0226 11.912 46.0386 11.984 46.0386 12.032C46.0386 12.096 46.0306 12.16 46.0146 12.224C46.0146 12.272 46.0066 12.328 45.9906 12.392L45.8706 12.44H45.8226C45.8226 12.456 45.8466 12.472 45.8946 12.488C45.9586 12.504 45.9906 12.512 45.9906 12.512C45.9586 12.576 45.9346 12.64 45.9186 12.704C45.9186 12.768 45.9186 12.832 45.9186 12.896V13.136C45.9186 13.2 45.9186 13.264 45.9186 13.328C45.9186 13.376 45.9026 13.432 45.8706 13.496L45.7266 13.616C45.7426 13.648 45.7506 13.752 45.7506 13.928C45.7506 14.136 45.7346 14.4 45.7026 14.72C45.6866 15.04 45.6626 15.368 45.6306 15.704C45.5986 16.024 45.5586 16.312 45.5106 16.568C45.4786 16.808 45.4466 16.952 45.4146 17C45.5266 17.16 45.5826 17.344 45.5826 17.552C45.5826 17.616 45.5746 17.688 45.5586 17.768C45.5586 17.848 45.5506 17.928 45.5346 18.008C45.6786 18.088 45.7586 18.168 45.7746 18.248C45.8066 18.312 45.9266 18.344 46.1346 18.344V18.584C46.2146 18.584 46.2546 18.552 46.2546 18.488C46.2546 18.456 46.2306 18.424 46.1826 18.392C46.1506 18.344 46.1266 18.296 46.1106 18.248L46.5186 18.128C46.5346 18.032 46.5666 17.92 46.6146 17.792C46.6786 17.664 46.7106 17.56 46.7106 17.48L46.8786 17.432L46.9266 17.072L47.0706 17.168C47.0546 17.072 47.0466 16.976 47.0466 16.88C47.2226 16.736 47.3506 16.544 47.4306 16.304C47.5106 16.064 47.6386 15.872 47.8146 15.728L47.7666 15.536H47.9346L48.1746 15.272C48.1426 15.256 48.1106 15.224 48.0786 15.176C48.0466 15.128 48.0386 15.096 48.0546 15.08L48.3906 15.032V15.128C48.4546 15.192 48.4226 15.312 48.2946 15.488C48.1666 15.664 48.0866 15.776 48.0546 15.824C48.1026 15.888 48.1266 15.952 48.1266 16.016C48.1266 16.08 48.1026 16.128 48.0546 16.16C48.0066 16.192 47.9426 16.24 47.8626 16.304L47.9346 16.376C47.9186 16.424 47.8626 16.544 47.7666 16.736C47.6706 16.928 47.5586 17.144 47.4306 17.384C47.3186 17.624 47.2146 17.832 47.1186 18.008C47.0386 18.184 46.9986 18.28 46.9986 18.296H46.8066V18.656C46.8066 18.8 46.7266 18.976 46.5666 19.184C46.4066 19.392 46.2146 19.576 45.9906 19.736C45.7666 19.896 45.5506 19.976 45.3426 19.976ZM56.8847 20.36C56.7887 20.456 56.6207 20.496 56.3807 20.48C56.1567 20.48 55.9727 20.48 55.8287 20.48L55.8767 20.36H55.7807C55.7487 20.36 55.7167 20.352 55.6847 20.336C55.6527 20.336 55.6127 20.328 55.5647 20.312V20.384C55.4527 20.384 55.3407 20.36 55.2287 20.312C55.1327 20.28 55.0287 20.256 54.9167 20.24L54.9887 20.168L54.7967 20.12C54.8127 20.136 54.7967 20.128 54.7487 20.096C54.7167 20.08 54.7247 20.08 54.7727 20.096C54.6927 20.064 54.5967 20.024 54.4847 19.976C54.3727 19.912 54.2927 19.832 54.2447 19.736L54.2687 19.664L54.1487 19.712L53.9807 19.448H53.8847C53.9007 19.384 53.8527 19.32 53.7407 19.256C53.6447 19.176 53.6447 19.112 53.7407 19.064C53.5807 18.984 53.4847 18.856 53.4527 18.68C53.4207 18.488 53.4047 18.296 53.4047 18.104C53.4207 17.896 53.4047 17.72 53.3567 17.576L53.4767 17.336L53.5487 17.312C53.5167 17.216 53.4927 17.12 53.4767 17.024C53.4767 16.928 53.4767 16.832 53.4767 16.736L53.7407 16.568C53.6767 16.504 53.6447 16.424 53.6447 16.328C53.6447 16.248 53.6527 16.168 53.6687 16.088C53.7007 15.992 53.7247 15.912 53.7407 15.848H53.8607V15.56L53.9087 15.608L53.9327 15.344C53.9647 15.36 53.9967 15.344 54.0287 15.296C54.0607 15.248 54.0607 15.216 54.0287 15.2C54.0607 15.104 54.1087 15 54.1727 14.888C54.2367 14.76 54.3167 14.68 54.4127 14.648C54.3647 14.648 54.3327 14.624 54.3167 14.576C54.3007 14.528 54.3247 14.496 54.3887 14.48L54.4607 14.528L54.5567 14.36C54.5247 14.424 54.4927 14.44 54.4607 14.408C54.4447 14.36 54.4527 14.328 54.4847 14.312H54.6527V14.24C54.6687 14.24 54.6927 14.248 54.7247 14.264C54.7567 14.264 54.7727 14.256 54.7727 14.24C54.7567 14.16 54.7087 14.128 54.6287 14.144C54.5487 14.16 54.5727 14.136 54.7007 14.072L54.7967 13.88C54.8287 13.88 54.8447 13.896 54.8447 13.928C54.8447 13.944 54.8527 13.96 54.8687 13.976C54.8687 13.992 54.8767 13.992 54.8927 13.976C54.9247 13.944 54.9407 13.92 54.9407 13.904L54.8927 13.832H54.7967V13.808C54.8607 13.776 54.9087 13.72 54.9407 13.64C54.9887 13.56 55.0367 13.488 55.0847 13.424L55.2287 13.52L55.2527 13.424C55.2527 13.408 55.2447 13.4 55.2287 13.4C55.2287 13.384 55.2287 13.368 55.2287 13.352C55.2287 13.24 55.2927 13.2 55.4207 13.232C55.4367 13.216 55.4287 13.2 55.3967 13.184C55.3647 13.168 55.3487 13.152 55.3487 13.136C55.4927 12.96 55.6847 12.8 55.9247 12.656L55.8287 12.608C55.8607 12.464 55.9407 12.376 56.0687 12.344C56.1967 12.312 56.3087 12.272 56.4047 12.224L56.3327 12.2L56.4527 11.96C56.5007 12.008 56.5407 12.016 56.5727 11.984C56.6207 11.952 56.6207 11.904 56.5727 11.84L56.7647 11.672L56.9087 11.744C56.9247 11.616 57.0047 11.488 57.1487 11.36C57.3087 11.232 57.4767 11.128 57.6527 11.048C57.8447 10.952 57.9967 10.896 58.1087 10.88V10.712H58.1807L58.2047 10.808L58.4207 10.592L58.5887 10.664L59.0207 10.28L59.0447 10.376C59.0607 10.296 59.1407 10.232 59.2847 10.184C59.4287 10.12 59.5887 10.072 59.7647 10.04C59.9407 10.008 60.0607 9.992 60.1247 9.992L60.1487 10.04C60.1807 9.912 60.2767 9.84 60.4367 9.824C60.6127 9.792 60.7567 9.776 60.8687 9.776C60.8527 9.792 60.8447 9.808 60.8447 9.824C60.8447 9.856 60.8767 9.88 60.9407 9.896C61.0047 9.896 61.0367 9.856 61.0367 9.776L61.1807 9.752L61.2527 9.848L61.5167 9.752C61.5487 9.8 61.5727 9.824 61.5887 9.824C61.6367 9.824 61.6847 9.808 61.7327 9.776C61.7967 9.728 61.8607 9.728 61.9247 9.776C61.8927 9.776 61.8767 9.8 61.8767 9.848C61.8767 9.896 61.9007 9.92 61.9487 9.92L62.0927 9.8L62.1407 9.824L62.2127 9.992L62.3807 9.872C62.3487 9.904 62.3567 9.936 62.4047 9.968C62.4527 9.984 62.4767 9.968 62.4767 9.92C62.4927 10.016 62.5487 10.08 62.6447 10.112C62.7567 10.144 62.8447 10.184 62.9087 10.232C62.9887 10.264 62.9887 10.36 62.9087 10.52L62.6927 10.952L62.6207 10.904L62.6687 11.144L62.4527 11.408L62.5007 11.576L62.3327 11.6L62.4047 11.72L62.4287 11.6V11.768L62.3087 11.84L62.2847 11.792L62.2127 12.032L62.2607 12.176C62.2447 12.176 62.2047 12.264 62.1407 12.44C62.0767 12.6 62.0127 12.712 61.9487 12.776L62.0447 12.92C61.9967 13 61.9487 13.072 61.9007 13.136C61.8527 13.2 61.8207 13.28 61.8047 13.376L61.9247 13.4L61.8047 14.072L61.7087 14.168L61.3967 14.024C61.3487 13.928 61.3487 13.856 61.3967 13.808C61.1567 13.744 61.0527 13.576 61.0847 13.304L61.0367 13.352C61.0687 13.256 61.0847 13.184 61.0847 13.136C61.0847 13.104 61.0687 13.04 61.0367 12.944L60.9647 13.016C60.9647 12.92 60.9647 12.784 60.9647 12.608C60.9807 12.416 61.0047 12.24 61.0367 12.08C61.0687 11.904 61.1167 11.792 61.1807 11.744C61.2127 11.76 61.2527 11.76 61.3007 11.744C61.3647 11.728 61.3887 11.696 61.3727 11.648L61.2527 11.504L61.3967 11.36L61.3007 11.312C61.3007 11.328 61.3327 11.336 61.3967 11.336C61.3967 11.144 61.4447 10.968 61.5407 10.808C61.6367 10.648 61.6927 10.472 61.7087 10.28H61.3247C61.3407 10.248 61.3247 10.208 61.2767 10.16C61.2447 10.112 61.2127 10.112 61.1807 10.16V10.304C61.0687 10.304 60.9567 10.328 60.8447 10.376C60.7487 10.408 60.6607 10.44 60.5807 10.472V10.424L60.7007 10.328C60.5727 10.392 60.4527 10.464 60.3407 10.544C60.2447 10.624 60.1167 10.648 59.9567 10.616C59.9407 10.632 59.9407 10.656 59.9567 10.688C59.9727 10.704 59.9887 10.704 60.0047 10.688L59.7167 10.856V10.952L58.6847 11.528L58.8287 11.552L58.8047 11.6C58.6447 11.616 58.4847 11.704 58.3247 11.864C58.1807 12.008 58.0367 12.168 57.8927 12.344C57.7647 12.504 57.6127 12.616 57.4367 12.68C57.2287 12.92 57.0207 13.176 56.8127 13.448C56.6207 13.72 56.4367 13.992 56.2607 14.264L56.3327 14.336L56.2127 14.504C56.1807 14.472 56.1567 14.464 56.1407 14.48C56.1247 14.496 56.1407 14.512 56.1887 14.528C56.1727 14.688 56.0767 14.768 55.9007 14.768C55.9327 14.928 55.9087 15.072 55.8287 15.2C55.7487 15.328 55.6527 15.424 55.5407 15.488C55.5727 15.488 55.5967 15.52 55.6127 15.584C55.6287 15.632 55.6127 15.672 55.5647 15.704H55.4207C55.4207 15.848 55.3967 15.976 55.3487 16.088C55.3167 16.2 55.2847 16.32 55.2527 16.448C55.2367 16.448 55.2127 16.448 55.1807 16.448C55.1487 16.448 55.1247 16.464 55.1087 16.496L55.0127 17.192L54.8687 17.24L55.0127 17.456L54.9167 17.648H54.8927V17.552H54.8447C54.8127 17.616 54.8127 17.656 54.8447 17.672C54.8927 17.688 54.9247 17.688 54.9407 17.672V17.84L54.7967 17.888L54.8207 18.272C54.8207 18.272 54.8287 18.28 54.8447 18.296H54.8207V18.44C54.8207 18.472 54.8287 18.568 54.8447 18.728C54.8767 18.872 54.9087 19.008 54.9407 19.136C54.9887 19.248 55.0447 19.264 55.1087 19.184L55.2527 19.376V19.568L55.3007 19.472C55.3967 19.552 55.5007 19.632 55.6127 19.712C55.7247 19.776 55.8447 19.824 55.9727 19.856L55.9007 20C55.9327 20.016 55.9567 20.008 55.9727 19.976C56.0047 19.928 56.0207 19.896 56.0207 19.88H56.3327C56.3647 19.944 56.4287 19.984 56.5247 20C56.6367 20.032 56.7247 20.048 56.7887 20.048V19.904C56.9007 19.904 56.9967 19.904 57.0767 19.904C57.1727 19.888 57.2767 19.88 57.3887 19.88C57.4367 19.88 57.4847 19.88 57.5327 19.88C57.5967 19.88 57.6607 19.888 57.7247 19.904V19.832L57.8927 19.856C57.8287 19.856 57.7967 19.864 57.7967 19.88L58.1087 19.832V19.688H58.2047C58.2687 19.688 58.3327 19.68 58.3967 19.664C58.4607 19.632 58.5327 19.608 58.6127 19.592L58.6607 19.664C58.7087 19.536 58.8287 19.472 59.0207 19.472L58.9727 19.448H59.0447L59.0927 19.544V19.424L59.3327 19.568C59.3647 19.52 59.3807 19.472 59.3807 19.424C59.3807 19.376 59.3887 19.32 59.4047 19.256L59.6207 19.328V19.232C59.7327 19.12 59.8847 19.048 60.0767 19.016V18.992C60.1567 18.944 60.2447 18.896 60.3407 18.848C60.4367 18.8 60.5327 18.784 60.6287 18.8L60.6527 18.608C60.7327 18.608 60.7887 18.592 60.8207 18.56C60.8687 18.512 60.9247 18.488 60.9887 18.488V18.56C61.0207 18.544 61.0447 18.512 61.0607 18.464C61.0927 18.416 61.1407 18.408 61.2047 18.44L61.0367 18.368L61.3247 18.272L61.5167 18.056H61.7087L61.6607 17.888H61.7567L61.7327 17.84L61.9727 17.792L61.9487 17.696L62.1647 17.672C62.1967 17.592 62.2287 17.52 62.2607 17.456C62.2927 17.376 62.3407 17.304 62.4047 17.24L62.5007 17.264L62.5247 17.048H62.6927L62.8127 16.784L62.9327 16.856C62.9487 16.792 62.9327 16.736 62.8847 16.688L63.0767 16.448C63.1087 16.448 63.1247 16.472 63.1247 16.52L63.1007 16.568C63.1327 16.568 63.1727 16.56 63.2207 16.544C63.2687 16.528 63.2687 16.568 63.2207 16.664C63.2207 16.68 63.1807 16.712 63.1007 16.76C63.0367 16.792 63.0287 16.832 63.0767 16.88C63.1087 16.912 63.1407 16.896 63.1727 16.832V16.808C63.1727 16.808 63.1727 16.816 63.1727 16.832L63.0527 17.168H62.8607V17.408C62.8447 17.44 62.7887 17.464 62.6927 17.48C62.6127 17.48 62.6207 17.52 62.7167 17.6C62.6207 17.648 62.5647 17.704 62.5487 17.768C62.5327 17.832 62.5007 17.888 62.4527 17.936C62.4207 17.984 62.3167 18.024 62.1407 18.056L62.2367 18.152C62.2367 18.168 62.2207 18.2 62.1887 18.248C62.1567 18.28 62.1407 18.288 62.1407 18.272L62.0927 18.152L62.0687 18.224L62.0447 18.368C61.9327 18.368 61.8287 18.44 61.7327 18.584C61.6367 18.728 61.5487 18.792 61.4687 18.776L61.2527 19.016C61.2047 19.016 61.1327 19.056 61.0367 19.136C60.9407 19.216 60.8207 19.264 60.6767 19.28L60.4847 19.472L60.2927 19.424L60.2207 19.592L59.7887 19.784L59.6207 19.712L59.5727 19.88L59.0927 20.072L59.0447 19.952C58.9167 20.016 58.7967 20.08 58.6847 20.144C58.5727 20.224 58.4367 20.272 58.2767 20.288C58.2607 20.272 58.2687 20.248 58.3007 20.216C58.3487 20.2 58.3647 20.184 58.3487 20.168L58.2287 20.12L58.1807 20.336L57.7727 20.312L57.7967 20.384C57.6687 20.416 57.5567 20.432 57.4607 20.432C57.3487 20.432 57.2527 20.4 57.1727 20.336L57.2207 20.48H56.9087L56.8847 20.36ZM54.8687 18.44C54.8527 18.44 54.8527 18.4 54.8687 18.32C54.8527 18.304 54.8447 18.296 54.8447 18.296C54.8607 18.28 54.8687 18.288 54.8687 18.32C54.9007 18.352 54.9007 18.392 54.8687 18.44ZM65.8359 19.568L65.7879 19.664L65.7159 19.592C65.4119 19.592 65.1559 19.488 64.9479 19.28L64.8999 19.352C64.7239 19.192 64.5559 18.984 64.3959 18.728L64.4919 18.656L64.4439 18.536L64.3719 18.56L64.1799 18.224L64.2279 18.08C64.1159 17.92 64.0519 17.76 64.0359 17.6H64.0599L64.1319 17.696L64.1799 17.552L64.0839 17.432C64.0679 17.352 64.0359 17.184 63.9879 16.928C63.9399 16.656 63.9159 16.432 63.9159 16.256C63.9159 16.112 63.9319 16.024 63.9639 15.992L63.8919 15.752H64.0599C64.0599 15.736 64.0519 15.656 64.0359 15.512C64.0199 15.368 64.0039 15.224 63.9879 15.08C63.9879 14.92 63.9879 14.808 63.9879 14.744L64.1319 14.792V14.72L64.0119 14.576L64.0599 14.336L64.1319 14.36V14.24L64.0599 14.096H64.1799C64.1639 14.016 64.1479 13.936 64.1319 13.856C64.1319 13.776 64.1319 13.704 64.1319 13.64L64.2279 13.568L64.1319 13.496L64.2519 12.92L64.2039 12.896C64.2679 12.816 64.2999 12.736 64.2999 12.656C64.3159 12.56 64.3319 12.472 64.3479 12.392L64.4439 12.368L64.4199 12.128H64.4919L64.5639 11.912C64.5159 11.944 64.4919 11.928 64.4919 11.864C64.4919 11.784 64.4759 11.752 64.4439 11.768C64.5079 11.656 64.5479 11.536 64.5639 11.408C64.5959 11.28 64.6519 11.16 64.7319 11.048L64.6599 10.904L64.7559 10.616L64.8759 10.64L64.9479 10.568H64.7559L64.7799 10.472L65.0199 10.424V10.304L64.8279 10.28C64.8439 10.248 64.8599 10.216 64.8759 10.184C64.8919 10.136 64.8919 10.104 64.8759 10.088L64.9719 9.968L64.9479 9.872L65.1159 9.608L65.4759 9.704L65.4279 9.536H65.4519C65.5959 9.648 65.7399 9.736 65.8839 9.8C66.0279 9.864 66.1079 10 66.1239 10.208H66.2919C66.3239 10.384 66.4279 10.488 66.6039 10.52C66.7799 10.536 66.9159 10.608 67.0119 10.736L67.1319 10.64L67.3959 10.808L67.3479 10.928C67.5559 10.912 67.7559 10.936 67.9479 11C68.1559 11.064 68.2679 11.232 68.2839 11.504L68.4279 11.384C68.6039 11.512 68.6919 11.704 68.6919 11.96L68.5959 11.984L68.6439 12.248C68.4999 12.312 68.4359 12.424 68.4519 12.584C68.4839 12.744 68.4519 12.864 68.3559 12.944H68.2839C68.2359 13.152 68.1079 13.312 67.8999 13.424C67.7079 13.52 67.5479 13.656 67.4199 13.832L67.3719 13.712H67.3479L67.3239 13.904L67.0839 14.072V14.144L66.9159 14.216L66.9399 14.24H66.7959C66.7319 14.304 66.6519 14.368 66.5559 14.432C66.4599 14.48 66.3719 14.52 66.2919 14.552L66.3159 14.48C66.2519 14.528 66.1879 14.592 66.1239 14.672C66.0759 14.736 66.0119 14.784 65.9319 14.816L65.9079 14.744L65.7399 14.84L65.8119 14.888L65.4039 14.936L65.3799 14.96L65.4039 15.2L65.2119 15.224C65.3239 15.24 65.3799 15.384 65.3799 15.656C65.3799 15.816 65.3559 15.984 65.3079 16.16C65.2759 16.32 65.2439 16.424 65.2119 16.472H65.3559V16.592L65.3079 16.568C65.3079 16.76 65.3319 16.952 65.3799 17.144C65.4439 17.32 65.4919 17.504 65.5239 17.696L65.4759 17.672C65.4759 17.736 65.5079 17.832 65.5719 17.96C65.6359 18.072 65.6999 18.144 65.7639 18.176L65.7159 18.392H65.7399L65.8119 18.296L66.0519 18.464V18.608C66.2279 18.608 66.3959 18.608 66.5559 18.608C66.7319 18.592 66.8999 18.568 67.0599 18.536L67.0119 18.368L67.2519 18.248L67.2759 18.392L67.3479 18.128H67.3959V18.272H67.4199V18.08H67.4439L67.4679 18.224L67.6599 18.032L67.5879 17.984L68.0439 17.456H68.1399L68.3079 17.144L68.4039 17.168L68.3079 17.096C68.3399 17.016 68.3879 16.944 68.4519 16.88C68.5159 16.8 68.5719 16.728 68.6199 16.664L68.6919 16.688L68.7639 16.472L68.8359 16.52C68.8359 16.44 68.8519 16.36 68.8839 16.28C68.9319 16.184 68.9639 16.104 68.9799 16.04L69.0759 16.064C69.0759 15.776 69.2119 15.552 69.4839 15.392L69.3639 15.296L69.4839 15.176L69.7239 15.128V15.512H69.6279L69.6759 15.656L69.5319 15.728L69.6279 15.824L69.5559 16.04H69.5319C69.4679 16.04 69.4359 16.064 69.4359 16.112C69.4359 16.16 69.4279 16.216 69.4119 16.28L69.3159 16.136V16.232C69.3159 16.344 69.2919 16.464 69.2439 16.592L69.0279 16.52C69.0599 16.552 69.0759 16.6 69.0759 16.664C69.0759 16.76 69.0359 16.848 68.9559 16.928L69.0519 17C69.0039 17.064 68.9799 17.08 68.9799 17.048C68.9799 17 68.9799 16.968 68.9799 16.952L68.9319 17L68.9559 17.12H68.8359L68.6919 17.264L68.7879 17.408L68.6919 17.384C68.6599 17.48 68.5719 17.64 68.4279 17.864C68.2999 18.088 68.1799 18.208 68.0679 18.224C68.0679 18.368 68.0279 18.496 67.9479 18.608C67.8679 18.704 67.7639 18.792 67.6359 18.872V18.68L67.4439 18.848C67.4439 18.912 67.4679 18.928 67.5159 18.896C67.5639 18.864 67.5959 18.824 67.6119 18.776L67.6359 18.944C67.5399 18.96 67.4599 19 67.3959 19.064C67.3319 19.128 67.2519 19.16 67.1559 19.16C67.1079 19.368 66.9719 19.496 66.7479 19.544C66.5399 19.592 66.3479 19.608 66.1719 19.592L66.1479 19.64L66.0039 19.664V19.592L65.8359 19.568ZM65.4999 14.12C65.4999 14.232 65.5079 14.304 65.5239 14.336L65.9319 14.24C65.9319 14.16 65.9479 14.104 65.9799 14.072C66.0119 14.072 66.0359 14.048 66.0519 14L66.1719 14.096C66.2039 13.968 66.2679 13.896 66.3639 13.88L66.2919 13.832C66.3719 13.768 66.4519 13.704 66.5319 13.64C66.6279 13.576 66.7079 13.512 66.7719 13.448L66.8199 13.472L66.8439 13.544C66.8759 13.512 66.8919 13.496 66.8919 13.496C66.9079 13.48 66.9239 13.464 66.9399 13.448C66.9079 13.384 66.8919 13.344 66.8919 13.328C66.9879 13.28 67.0519 13.2 67.0839 13.088L67.2039 13.112L67.1559 12.992C67.1879 12.992 67.2199 12.984 67.2519 12.968C67.2839 12.952 67.3079 12.936 67.3239 12.92L67.2519 12.872C67.2999 12.872 67.3479 12.848 67.3959 12.8C67.3799 12.768 67.3719 12.712 67.3719 12.632L67.3959 12.608C67.4279 12.608 67.4519 12.616 67.4679 12.632C67.4999 12.632 67.5319 12.632 67.5639 12.632C67.4999 12.568 67.4679 12.496 67.4679 12.416C67.5639 12.416 67.6199 12.408 67.6359 12.392C67.6199 12.28 67.6119 12.192 67.6119 12.128C67.6279 12.048 67.6359 11.952 67.6359 11.84C67.5719 11.808 67.5399 11.768 67.5399 11.72C67.5399 11.656 67.5159 11.6 67.4679 11.552L67.4199 11.6L67.2999 11.528L67.3239 11.432C67.2599 11.416 67.1959 11.392 67.1319 11.36C67.0679 11.312 67.0039 11.288 66.9399 11.288V11.192C66.8599 11.192 66.7879 11.176 66.7239 11.144C66.6759 11.112 66.6199 11.096 66.5559 11.096C66.5559 10.952 66.4839 10.896 66.3399 10.928C66.3399 11.008 66.3079 11.072 66.2439 11.12C66.1959 11.168 66.1799 11.256 66.1959 11.384C66.1639 11.384 66.1399 11.392 66.1239 11.408C66.1079 11.424 66.0839 11.44 66.0519 11.456C66.0839 11.504 66.0759 11.632 66.0279 11.84C65.9799 12.048 65.9159 12.256 65.8359 12.464C65.7559 12.656 65.6919 12.776 65.6439 12.824H65.7639C65.7479 12.968 65.6999 13.176 65.6199 13.448C65.5399 13.704 65.4999 13.928 65.4999 14.12ZM72.3786 8.408C72.2986 8.408 72.2186 8.4 72.1386 8.384C72.0746 8.368 72.0106 8.368 71.9466 8.384C71.9466 8.32 71.9386 8.28 71.9226 8.264C71.9066 8.28 71.8986 8.296 71.8986 8.312C71.8986 8.328 71.8906 8.352 71.8746 8.384C71.7626 8.304 71.6266 8.256 71.4666 8.24C71.3226 8.224 71.2026 8.168 71.1066 8.072C71.1546 8.04 71.1706 8.032 71.1546 8.048C71.1546 8.048 71.1626 8.016 71.1786 7.952H71.1306C71.0826 8.016 71.0586 8.048 71.0586 8.048C71.0586 8.032 71.0186 8.016 70.9386 8C70.8906 7.92 70.8426 7.848 70.7946 7.784C70.7626 7.72 70.7146 7.656 70.6506 7.592L70.4586 7.52C70.3946 7.44 70.3546 7.312 70.3386 7.136C70.3226 6.96 70.2986 6.816 70.2666 6.704C70.2986 6.656 70.3386 6.624 70.3866 6.608C70.4506 6.576 70.4986 6.6 70.5306 6.68L70.5546 6.824C70.6506 6.84 70.7546 6.912 70.8666 7.04C70.9786 7.168 71.0586 7.288 71.1066 7.4C71.0586 7.384 71.0986 7.408 71.2266 7.472C71.3706 7.536 71.4266 7.584 71.3946 7.616C71.5066 7.68 71.5946 7.712 71.6586 7.712C71.6906 7.712 71.7306 7.712 71.7786 7.712C71.8266 7.696 71.8826 7.704 71.9466 7.736C72.0266 7.752 72.0586 7.768 72.0426 7.784C72.0426 7.8 72.0746 7.824 72.1386 7.856C72.1706 7.808 72.1946 7.8 72.2106 7.832C72.2426 7.848 72.2906 7.832 72.3546 7.784C72.3866 7.816 72.3866 7.848 72.3546 7.88C72.3386 7.912 72.3706 7.928 72.4506 7.928H72.6186C72.6346 7.848 72.6986 7.792 72.8106 7.76C72.9386 7.712 73.0266 7.704 73.0746 7.736C73.1066 7.752 73.1306 7.72 73.1466 7.64C73.1786 7.56 73.2266 7.552 73.2906 7.616C73.3066 7.536 73.3226 7.504 73.3386 7.52C73.3706 7.536 73.4026 7.512 73.4346 7.448C73.4826 7.448 73.5226 7.456 73.5546 7.472C73.5866 7.488 73.6106 7.464 73.6266 7.4C73.6906 7.352 73.7386 7.288 73.7706 7.208L73.8666 7.256C73.8666 7.096 73.9306 7.032 74.0586 7.064C74.0586 6.952 74.1306 6.816 74.2746 6.656C74.4186 6.496 74.5546 6.384 74.6826 6.32C74.7306 6.304 74.7866 6.296 74.8506 6.296V6.44L74.7546 6.704L74.6346 6.848L74.5626 7.04L74.5146 7.088H74.3946C74.3786 7.152 74.3546 7.216 74.3226 7.28C74.3066 7.328 74.2906 7.376 74.2746 7.424H74.0826V7.64H73.9386L73.8906 7.808H73.8426C73.8266 7.728 73.8186 7.704 73.8186 7.736C73.8346 7.752 73.8026 7.752 73.7226 7.736C73.7226 7.816 73.7306 7.84 73.7466 7.808C73.8426 7.904 73.8426 7.976 73.7466 8.024C73.5866 8.056 73.4666 8.104 73.3866 8.168C73.3226 8.216 73.2346 8.256 73.1226 8.288C73.0586 8.304 73.0026 8.304 72.9546 8.288C72.9226 8.256 72.8666 8.256 72.7866 8.288V8.384C72.7226 8.416 72.6826 8.424 72.6666 8.408C72.6666 8.376 72.6586 8.336 72.6426 8.288H72.5466V8.384C72.5146 8.4 72.4586 8.408 72.3786 8.408ZM73.8426 19.976C73.7466 19.976 73.6106 19.928 73.4346 19.832C73.2586 19.72 73.0986 19.576 72.9546 19.4C72.8266 19.224 72.7626 19.04 72.7626 18.848C72.7626 18.704 72.8026 18.584 72.8826 18.488C72.8666 18.392 72.8346 18.248 72.7866 18.056C72.7386 17.864 72.7466 17.728 72.8106 17.648C72.8426 17.648 72.8746 17.624 72.9066 17.576C72.9546 17.528 72.9626 17.48 72.9306 17.432L72.8106 17.312L72.8586 16.664H72.9306C72.9626 16.6 72.9786 16.536 72.9786 16.472C72.9786 16.392 72.9626 16.312 72.9306 16.232C72.9146 16.152 72.8906 16.08 72.8586 16.016H72.8826V15.896C72.8826 15.752 72.8826 15.616 72.8826 15.488C72.8986 15.36 72.9146 15.224 72.9306 15.08C72.9946 15.112 73.0106 15.096 72.9786 15.032C72.9466 14.968 72.9306 14.968 72.9306 15.032C72.8826 14.856 72.8986 14.656 72.9786 14.432C73.0586 14.208 73.0986 14.008 73.0986 13.832C73.0986 13.72 73.0746 13.632 73.0266 13.568C73.0266 13.648 73.0026 13.736 72.9546 13.832C72.9226 13.928 72.8906 14.016 72.8586 14.096V13.976H72.8106C72.8106 14.088 72.7866 14.168 72.7386 14.216L72.8826 14.264C72.7066 14.456 72.6186 14.712 72.6186 15.032H72.4506L72.5226 15.248L72.2346 15.272L72.5226 15.32C72.4586 15.4 72.4106 15.488 72.3786 15.584C72.3626 15.68 72.3466 15.768 72.3306 15.848L72.0906 15.896C72.1386 15.944 72.1626 16.016 72.1626 16.112C72.1626 16.288 72.0906 16.488 71.9466 16.712C71.8026 16.936 71.6826 17.088 71.5866 17.168C71.6506 17.2 71.6826 17.288 71.6826 17.432L71.6346 17.48H71.3946C71.4266 17.496 71.4506 17.544 71.4666 17.624C71.4986 17.688 71.5146 17.736 71.5146 17.768C71.4506 17.784 71.4026 17.816 71.3706 17.864C71.3386 17.912 71.2906 17.944 71.2266 17.96C71.2906 17.96 71.3466 18.008 71.3946 18.104C71.3306 18.2 71.2426 18.392 71.1306 18.68C71.0186 18.952 70.8986 19.112 70.7706 19.16L70.6026 18.944C70.5866 19.056 70.5146 19.12 70.3866 19.136C70.2586 19.152 70.1466 19.16 70.0506 19.16C69.9226 19 69.7786 18.888 69.6186 18.824C69.4746 18.76 69.3546 18.68 69.2586 18.584C69.1626 18.472 69.1146 18.28 69.1146 18.008C69.1466 17.976 69.1706 17.872 69.1866 17.696C69.2026 17.52 69.2106 17.328 69.2106 17.12C69.2106 16.88 69.2026 16.64 69.1866 16.4C69.1866 16.16 69.1866 15.992 69.1866 15.896H69.2106C69.2906 15.896 69.3306 15.832 69.3306 15.704C69.3306 15.624 69.3226 15.52 69.3066 15.392C69.2906 15.264 69.2826 15.144 69.2826 15.032C69.2826 14.904 69.2986 14.792 69.3306 14.696C69.3626 14.584 69.4266 14.496 69.5226 14.432L69.4266 14.216L69.5466 13.784L69.4746 13.616L69.7146 12.44C69.6506 12.392 69.6186 12.352 69.6186 12.32C69.6186 12.288 69.6266 12.256 69.6426 12.224C69.6586 12.192 69.6666 12.152 69.6666 12.104L69.8106 12.032L69.6666 11.936C69.7626 11.84 69.8106 11.632 69.8106 11.312C69.8106 11.072 69.7786 10.832 69.7146 10.592C69.6666 10.336 69.5866 10.176 69.4746 10.112C69.2986 10.016 69.0906 9.96 68.8506 9.944C68.6266 9.912 68.4026 9.888 68.1786 9.872C68.1786 9.808 68.1946 9.768 68.2266 9.752C68.2586 9.72 68.2426 9.704 68.1786 9.704C68.2746 9.608 68.3946 9.544 68.5386 9.512C68.6346 9.416 68.7706 9.368 68.9466 9.368C69.0746 9.368 69.1946 9.384 69.3066 9.416C69.4346 9.448 69.5306 9.48 69.5946 9.512C69.6266 9.32 69.7546 9.224 69.9786 9.224C70.2026 9.224 70.3866 9.224 70.5306 9.224C70.5626 9.32 70.6346 9.376 70.7466 9.392C70.8746 9.408 70.9786 9.408 71.0586 9.392C71.0746 9.552 71.1066 9.672 71.1546 9.752C71.2026 9.816 71.2266 9.888 71.2266 9.968C71.2266 10.048 71.1706 10.192 71.0586 10.4L71.1546 10.472L71.0586 11L70.9386 11.048H71.0586C71.0586 11.208 71.0266 11.368 70.9626 11.528C70.9146 11.672 70.8906 11.808 70.8906 11.936L70.9866 12.104L70.9386 12.464C70.9226 12.48 70.8906 12.48 70.8426 12.464C70.7946 12.432 70.7706 12.408 70.7706 12.392V12.512L70.8906 12.68L70.7466 12.728L70.8906 12.8L70.6026 13.904L70.7466 13.952L70.6986 14.432L70.4106 14.384C70.3946 14.432 70.3946 14.472 70.4106 14.504C70.4426 14.536 70.4666 14.552 70.4826 14.552H70.5066C70.5546 14.552 70.5786 14.592 70.5786 14.672C70.5946 14.736 70.6026 14.792 70.6026 14.84C70.5866 14.888 70.5706 14.936 70.5546 14.984C70.5546 15.032 70.5546 15.08 70.5546 15.128C70.5546 15.192 70.5546 15.264 70.5546 15.344C70.5706 15.424 70.5786 15.504 70.5786 15.584C70.5786 15.664 70.5626 15.752 70.5306 15.848L70.4586 15.896L70.4826 16.088C70.3546 16.184 70.2906 16.312 70.2906 16.472C70.3706 16.488 70.4106 16.544 70.4106 16.64C70.4106 16.704 70.3946 16.768 70.3626 16.832C70.3466 16.896 70.3226 16.952 70.2906 17C70.3706 17.144 70.4186 17.296 70.4346 17.456C70.4666 17.6 70.4986 17.76 70.5306 17.936C70.5626 17.936 70.6026 17.936 70.6506 17.936C70.7146 17.92 70.7546 17.888 70.7706 17.84C70.8026 17.776 70.8826 17.624 71.0106 17.384C71.1386 17.144 71.2666 16.912 71.3946 16.688C71.5386 16.464 71.6346 16.352 71.6826 16.352L71.5866 16.208H71.8266L71.5866 16.064L71.8746 15.824C71.8586 15.744 71.8506 15.68 71.8506 15.632C71.8506 15.584 71.8506 15.544 71.8506 15.512C71.8506 15.336 71.8826 15.216 71.9466 15.152C72.0106 15.088 72.0586 14.952 72.0906 14.744H72.2346C72.3146 14.648 72.3466 14.496 72.3306 14.288C72.3306 14.08 72.3466 13.864 72.3786 13.64C72.4106 13.4 72.5306 13.216 72.7386 13.088L72.6906 12.728H72.8826L72.7386 12.608L72.8346 12.536C72.8186 12.536 72.8186 12.52 72.8346 12.488C72.8666 12.44 72.8826 12.432 72.8826 12.464L72.9786 12.344C72.9466 12.328 72.9466 12.224 72.9786 12.032C73.0106 11.824 73.0586 11.592 73.1226 11.336C73.1866 11.064 73.2426 10.816 73.2906 10.592C73.3386 10.352 73.3706 10.192 73.3866 10.112L73.4586 10.064C73.7466 10.08 73.9306 10.12 74.0106 10.184C74.0906 10.232 74.1386 10.288 74.1546 10.352C74.1866 10.4 74.2586 10.432 74.3706 10.448C74.4346 10.512 74.4986 10.592 74.5626 10.688C74.6266 10.768 74.6826 10.864 74.7306 10.976C74.6506 11.04 74.6106 11.128 74.6106 11.24C74.6106 11.304 74.6106 11.368 74.6106 11.432C74.6266 11.48 74.6346 11.536 74.6346 11.6C74.6346 11.68 74.6266 11.744 74.6106 11.792L74.4906 11.816C74.5226 11.912 74.5386 11.984 74.5386 12.032C74.5386 12.096 74.5306 12.16 74.5146 12.224C74.5146 12.272 74.5066 12.328 74.4906 12.392L74.3706 12.44H74.3226C74.3226 12.456 74.3466 12.472 74.3946 12.488C74.4586 12.504 74.4906 12.512 74.4906 12.512C74.4586 12.576 74.4346 12.64 74.4186 12.704C74.4186 12.768 74.4186 12.832 74.4186 12.896V13.136C74.4186 13.2 74.4186 13.264 74.4186 13.328C74.4186 13.376 74.4026 13.432 74.3706 13.496L74.2266 13.616C74.2426 13.648 74.2506 13.752 74.2506 13.928C74.2506 14.136 74.2346 14.4 74.2026 14.72C74.1866 15.04 74.1626 15.368 74.1306 15.704C74.0986 16.024 74.0586 16.312 74.0106 16.568C73.9786 16.808 73.9466 16.952 73.9146 17C74.0266 17.16 74.0826 17.344 74.0826 17.552C74.0826 17.616 74.0746 17.688 74.0586 17.768C74.0586 17.848 74.0506 17.928 74.0346 18.008C74.1786 18.088 74.2586 18.168 74.2746 18.248C74.3066 18.312 74.4266 18.344 74.6346 18.344V18.584C74.7146 18.584 74.7546 18.552 74.7546 18.488C74.7546 18.456 74.7306 18.424 74.6826 18.392C74.6506 18.344 74.6266 18.296 74.6106 18.248L75.0186 18.128C75.0346 18.032 75.0666 17.92 75.1146 17.792C75.1786 17.664 75.2106 17.56 75.2106 17.48L75.3786 17.432L75.4266 17.072L75.5706 17.168C75.5546 17.072 75.5466 16.976 75.5466 16.88C75.7226 16.736 75.8506 16.544 75.9306 16.304C76.0106 16.064 76.1386 15.872 76.3146 15.728L76.2666 15.536H76.4346L76.6746 15.272C76.6426 15.256 76.6106 15.224 76.5786 15.176C76.5466 15.128 76.5386 15.096 76.5546 15.08L76.8906 15.032V15.128C76.9546 15.192 76.9226 15.312 76.7946 15.488C76.6666 15.664 76.5866 15.776 76.5546 15.824C76.6026 15.888 76.6266 15.952 76.6266 16.016C76.6266 16.08 76.6026 16.128 76.5546 16.16C76.5066 16.192 76.4426 16.24 76.3626 16.304L76.4346 16.376C76.4186 16.424 76.3626 16.544 76.2666 16.736C76.1706 16.928 76.0586 17.144 75.9306 17.384C75.8186 17.624 75.7146 17.832 75.6186 18.008C75.5386 18.184 75.4986 18.28 75.4986 18.296H75.3066V18.656C75.3066 18.8 75.2266 18.976 75.0666 19.184C74.9066 19.392 74.7146 19.576 74.4906 19.736C74.2666 19.896 74.0506 19.976 73.8426 19.976ZM81.0647 18.704H80.5367L80.4887 18.56C80.4087 18.56 80.3207 18.568 80.2247 18.584C80.1287 18.584 80.0407 18.576 79.9607 18.56C79.8807 18.368 79.7687 18.216 79.6247 18.104C79.4967 17.976 79.4167 17.792 79.3847 17.552L79.4807 17.6C79.4007 17.392 79.3447 17.184 79.3127 16.976C79.2807 16.768 79.2567 16.56 79.2407 16.352C79.1927 16.304 79.1607 16.248 79.1447 16.184C79.1447 16.104 79.1447 16.032 79.1447 15.968C79.1447 15.952 79.1367 15.944 79.1207 15.944C79.1207 15.944 79.1207 15.936 79.1207 15.92C79.1207 15.856 79.1447 15.784 79.1927 15.704C79.2407 15.608 79.2407 15.504 79.1927 15.392H79.0967C79.0967 15.344 79.0887 15.272 79.0727 15.176C79.0727 15.064 79.0727 14.952 79.0727 14.84C79.0727 14.712 79.0807 14.584 79.0967 14.456C79.1127 14.312 79.1287 14.208 79.1447 14.144L79.2887 14.048V14.024C79.2887 13.96 79.2487 13.912 79.1687 13.88C79.1047 13.848 79.0967 13.776 79.1447 13.664C79.1767 13.6 79.1927 13.48 79.1927 13.304C79.2087 13.128 79.2167 12.96 79.2167 12.8C79.2167 12.704 79.2167 12.616 79.2167 12.536C79.2167 12.456 79.2087 12.4 79.1927 12.368C79.0007 12.416 78.8007 12.4 78.5927 12.32C78.4007 12.224 78.2167 12.16 78.0407 12.128C78.0247 12.24 77.9847 12.312 77.9207 12.344C77.8567 12.36 77.7847 12.4 77.7047 12.464H77.8007L77.7527 12.752H77.8007L77.8487 12.896C77.7847 12.944 77.7207 12.992 77.6567 13.04C77.5927 13.088 77.6087 13.152 77.7047 13.232L77.5607 13.424L77.6087 13.52C77.5607 13.6 77.5127 13.664 77.4647 13.712C77.4327 13.744 77.4167 13.792 77.4167 13.856C77.4167 13.936 77.4327 14 77.4647 14.048C77.4487 14.064 77.4167 14.064 77.3687 14.048C77.3367 14.016 77.3207 13.984 77.3207 13.952C77.3047 14.064 77.2887 14.168 77.2727 14.264C77.2567 14.36 77.2567 14.464 77.2727 14.576L77.1287 14.624L77.1767 14.72L76.8887 14.912C76.9367 15.056 76.9607 15.152 76.9607 15.2C76.9607 15.28 76.9367 15.392 76.8887 15.536L76.6487 15.584L76.7447 15.776L76.5527 15.92L76.6007 16.064C76.5527 16.176 76.5047 16.272 76.4567 16.352H76.3607L76.3127 16.16H76.2647V16.256L76.3127 16.448C76.2967 16.464 76.2647 16.48 76.2167 16.496C76.1687 16.496 76.1527 16.512 76.1687 16.544L76.3127 16.592C76.2167 16.608 76.1607 16.632 76.1447 16.664C76.1447 16.696 76.1047 16.72 76.0247 16.736C76.0247 16.656 76.0087 16.6 75.9767 16.568C75.9447 16.52 75.9127 16.464 75.8807 16.4C75.9127 16.368 75.9607 16.28 76.0247 16.136C76.1047 15.992 76.1687 15.84 76.2167 15.68C76.2807 15.504 76.3127 15.392 76.3127 15.344L76.5047 15.248V14.912H76.6487L76.5527 14.84C76.6327 14.808 76.6887 14.688 76.7207 14.48C76.7527 14.272 76.8247 14.112 76.9367 14L76.9847 14.144C76.9847 13.616 77.1287 13.152 77.4167 12.752L77.3207 12.656C77.4007 12.576 77.4567 12.456 77.4887 12.296C77.5207 12.136 77.5447 12 77.5607 11.888C77.4167 11.84 77.3527 11.784 77.3687 11.72C77.3847 11.656 77.3687 11.568 77.3207 11.456L77.2727 11.504C77.1607 11.344 77.1047 11.2 77.1047 11.072C77.1047 10.992 77.1207 10.912 77.1527 10.832C77.1847 10.736 77.2167 10.632 77.2487 10.52C77.2007 10.44 77.1767 10.352 77.1767 10.256C77.1767 10.16 77.1927 10.064 77.2247 9.968H77.3207L77.3687 9.584C77.4007 9.552 77.4247 9.544 77.4407 9.56C77.4567 9.56 77.4807 9.536 77.5127 9.488V9.416C77.6727 8.968 77.8087 8.728 77.9207 8.696C78.0327 8.664 78.1047 8.624 78.1367 8.576C78.1527 8.592 78.1847 8.6 78.2327 8.6C78.2647 8.6 78.2887 8.592 78.3047 8.576C78.3367 8.544 78.3847 8.52 78.4487 8.504L78.5207 8.48C78.5527 8.464 78.5527 8.488 78.5207 8.552C78.5047 8.6 78.5047 8.624 78.5207 8.624L78.6167 8.48L78.7607 8.672C78.6967 8.752 78.6647 8.848 78.6647 8.96H78.8087L78.7127 9.56L78.5687 9.584C78.6487 9.616 78.6887 9.664 78.6887 9.728C78.6887 9.792 78.6647 9.856 78.6167 9.92C78.5687 9.984 78.5207 10.032 78.4727 10.064L78.5687 10.16L78.3287 10.208V10.256L78.5207 10.304H78.4247L78.3287 10.4L78.2327 10.88C78.1847 10.864 78.1687 10.896 78.1847 10.976C78.2167 11.056 78.1687 11.2 78.0407 11.408V11.504L78.0887 11.6C78.1207 11.68 78.1927 11.712 78.3047 11.696C78.4327 11.68 78.5367 11.68 78.6167 11.696C78.8887 11.424 79.1127 11.2 79.2887 11.024C79.4647 10.848 79.6567 10.72 79.8647 10.64C80.0887 10.544 80.4087 10.496 80.8247 10.496V10.52C80.8247 10.552 80.8167 10.592 80.8007 10.64C80.7847 10.672 80.7767 10.704 80.7767 10.736H81.0647V10.832L80.9207 10.88C80.9367 10.912 80.9447 10.952 80.9447 11C80.9447 11.048 80.9527 11.088 80.9687 11.12L80.8247 11.168C80.8567 11.2 80.8727 11.248 80.8727 11.312C80.8727 11.36 80.8567 11.408 80.8247 11.456C80.8087 11.504 80.8087 11.552 80.8247 11.6L80.6807 11.648C80.7607 11.712 80.7927 11.768 80.7767 11.816C80.7767 11.864 80.7767 11.944 80.7767 12.056L80.6327 12.08C80.6647 12.128 80.6967 12.216 80.7287 12.344L80.5367 12.368V12.512H80.6807V12.8L80.5367 12.848L80.6327 12.944L80.4887 12.992C80.5047 13.008 80.5447 13.04 80.6087 13.088C80.6727 13.12 80.6647 13.136 80.5847 13.136C80.5367 13.184 80.5287 13.208 80.5607 13.208C80.5927 13.208 80.6167 13.248 80.6327 13.328L80.4407 13.472C80.5527 13.504 80.6007 13.552 80.5847 13.616C80.5847 13.68 80.5847 13.76 80.5847 13.856L80.3927 13.904C80.5047 13.968 80.5607 14.04 80.5607 14.12C80.5607 14.2 80.5367 14.288 80.4887 14.384C80.4407 14.464 80.4087 14.544 80.3927 14.624C80.4407 14.624 80.4647 14.664 80.4647 14.744C80.4807 14.808 80.4887 14.848 80.4887 14.864C80.5527 14.928 80.5847 15.024 80.5847 15.152H80.3927C80.4087 15.184 80.4407 15.216 80.4887 15.248C80.5527 15.264 80.6007 15.28 80.6327 15.296C80.6327 15.376 80.6327 15.464 80.6327 15.56C80.6487 15.656 80.6567 15.744 80.6567 15.824C80.6567 15.952 80.6407 16.08 80.6087 16.208C80.5767 16.336 80.5207 16.464 80.4407 16.592H80.7767C80.7767 16.704 80.8007 16.824 80.8487 16.952C80.9127 17.064 80.9687 17.168 81.0167 17.264L80.8727 17.36C80.9527 17.36 81.0007 17.368 81.0167 17.384C81.0487 17.4 81.0967 17.432 81.1607 17.48L81.0167 17.6C81.0967 17.6 81.1607 17.608 81.2087 17.624C81.2567 17.624 81.3207 17.616 81.4007 17.6L81.3527 17.744H81.4967V17.6C81.5287 17.6 81.5847 17.608 81.6647 17.624C81.7447 17.624 81.7847 17.6 81.7847 17.552C81.7207 17.552 81.6807 17.544 81.6647 17.528C81.6487 17.512 81.6727 17.504 81.7367 17.504C81.9127 17.232 82.1047 16.984 82.3127 16.76C82.5207 16.536 82.6647 16.256 82.7447 15.92L82.9847 15.968C82.9527 15.824 82.9607 15.648 83.0087 15.44C83.0727 15.232 83.1687 15.048 83.2967 14.888C83.4407 14.728 83.5927 14.64 83.7527 14.624C83.7527 14.624 83.7607 14.632 83.7767 14.648C83.8087 14.664 83.8247 14.696 83.8247 14.744C83.8247 14.792 83.8007 14.864 83.7527 14.96C83.7047 14.976 83.6727 14.992 83.6567 15.008C83.6407 15.024 83.6167 15.048 83.5847 15.08C83.5847 15.128 83.5847 15.176 83.5847 15.224C83.5847 15.272 83.5927 15.312 83.6087 15.344L83.4647 15.392L83.5127 15.488C83.4487 15.552 83.4087 15.576 83.3927 15.56C83.3927 15.544 83.3847 15.6 83.3687 15.728C83.3527 16.048 83.2327 16.352 83.0087 16.64C82.7847 16.928 82.6167 17.168 82.5047 17.36V17.504C82.4407 17.616 82.3447 17.696 82.2167 17.744V17.936C82.1687 17.952 82.1127 17.968 82.0487 17.984C82.0007 18 82.0087 18.032 82.0727 18.08C81.9447 18.08 81.8487 18.104 81.7847 18.152C81.7367 18.184 81.6727 18.24 81.5927 18.32L81.6887 18.416C81.6247 18.432 81.5527 18.448 81.4727 18.464C81.4087 18.464 81.3367 18.464 81.2567 18.464L81.0647 18.704ZM88.2953 19.016C88.1833 19.032 88.0473 18.984 87.8873 18.872C87.7273 18.744 87.6153 18.64 87.5513 18.56L87.5753 18.344C87.5593 18.344 87.5433 18.352 87.5273 18.368C87.5113 18.384 87.4953 18.392 87.4793 18.392L87.5753 17.792C87.6073 17.792 87.6153 17.752 87.5993 17.672C87.5993 17.592 87.5993 17.544 87.5993 17.528L87.5753 17.504L87.5993 17.096H87.6953L87.5753 16.976L87.6233 16.616L87.6713 16.592L87.6233 16.52L87.6713 16.256L87.7673 16.208C87.7673 16.176 87.7513 16.144 87.7193 16.112C87.7033 16.064 87.6953 16.024 87.6953 15.992C87.6953 15.928 87.7513 15.84 87.8633 15.728L87.7673 15.68L87.9113 15.56L87.7913 15.512C87.8713 15.448 87.8953 15.392 87.8633 15.344C87.8313 15.28 87.8313 15.216 87.8633 15.152L88.0312 14.912L87.9113 14.792L87.9353 14.648C88.0153 14.648 88.0553 14.624 88.0553 14.576C88.0553 14.544 88.0473 14.504 88.0312 14.456C88.0153 14.408 88.0073 14.36 88.0073 14.312H88.0312L88.0553 14.36L88.1273 13.88L88.1753 13.856V13.496H88.2953L88.2233 13.232L88.1992 13.256L87.6953 14.072L87.5513 14.096L87.3593 14.36L87.4793 14.408L87.4073 14.528H87.2153C87.2473 14.592 87.2633 14.64 87.2633 14.672C87.2633 14.736 87.2233 14.792 87.1433 14.84C87.0633 14.872 87.0073 14.896 86.9753 14.912L87.0233 15.056L86.8313 15.368L86.7113 15.32C86.7113 15.32 86.7033 15.336 86.6873 15.368C86.6873 15.4 86.6713 15.416 86.6393 15.416L86.5193 15.368L86.4713 15.56L86.5913 15.584C86.5273 15.648 86.4793 15.704 86.4473 15.752C86.4153 15.8 86.3353 15.824 86.2073 15.824C86.1913 15.872 86.2073 15.92 86.2553 15.968C86.1273 16.144 85.9833 16.32 85.8233 16.496C85.6793 16.672 85.5193 16.824 85.3433 16.952H85.2713L85.0793 17.144L84.9833 17.096L84.9353 17.264L84.4793 17.456L84.4313 17.576L84.2633 17.528L84.1673 17.672H84.0713C83.6873 17.672 83.3673 17.568 83.1113 17.36C83.0633 17.264 83.0393 17.152 83.0393 17.024C83.0073 17.024 82.9833 17.04 82.9673 17.072C82.9513 17.088 82.9353 17.104 82.9193 17.12L82.7753 16.52L82.8473 16.376L82.7993 16.328L82.8232 16.136H82.8953L83.0873 15.272C83.1033 15.272 83.1113 15.28 83.1113 15.296C83.1273 15.312 83.1433 15.32 83.1593 15.32C83.1913 15.32 83.2073 15.296 83.2073 15.248C83.2073 15.2 83.1993 15.168 83.1833 15.152L83.1353 15.176C83.1673 14.936 83.2873 14.76 83.4953 14.648C83.4633 14.616 83.4473 14.576 83.4473 14.528C83.4473 14.48 83.4553 14.44 83.4713 14.408C83.5033 14.36 83.5273 14.312 83.5433 14.264L83.6152 14.288V14.264L83.5913 14.216L83.6873 14.168C83.7033 14.168 83.6953 14.144 83.6633 14.096C83.6473 14.048 83.6713 14.056 83.7353 14.12V13.952H83.8793C83.9273 13.888 83.9673 13.816 83.9993 13.736C84.0313 13.656 84.0633 13.576 84.0953 13.496H84.3353L84.2633 13.328L84.3833 13.184L84.5273 13.232L84.5993 12.92L84.9833 12.632L84.8633 12.56L85.0073 12.512L85.0312 12.656C85.0312 12.48 85.1033 12.352 85.2473 12.272H85.2713L85.2953 12.392L85.3193 12.344L85.2953 12.224L85.5592 12.032L85.5833 12.128C85.5993 11.968 85.6873 11.848 85.8473 11.768C86.0073 11.672 86.1753 11.584 86.3513 11.504C86.5273 11.424 86.6233 11.336 86.6393 11.24L86.8313 11.264C86.8473 11.248 86.8553 11.224 86.8553 11.192C86.8713 11.144 86.8633 11.12 86.8313 11.12C86.9913 11.104 87.1753 11.048 87.3833 10.952H87.6233L87.5033 10.88L87.5273 10.856C87.8153 10.776 88.1113 10.736 88.4153 10.736C88.6233 10.736 88.8153 10.8 88.9913 10.928L89.4713 11.12C89.4873 11.136 89.4713 11.144 89.4233 11.144C89.3913 11.144 89.3753 11.16 89.3753 11.192C89.3753 11.208 89.3993 11.232 89.4473 11.264C89.4953 11.28 89.5353 11.288 89.5673 11.288L89.5913 11.216C89.6073 11.216 89.6153 11.248 89.6153 11.312C89.6313 11.36 89.6473 11.368 89.6633 11.336L89.8553 11.528H89.7593L89.7113 12.224H89.6153L89.5673 12.344L89.6393 12.512C89.6393 12.528 89.6313 12.56 89.6153 12.608C89.6153 12.64 89.6073 12.632 89.5913 12.584V12.536L89.5193 12.56C89.5353 12.592 89.5433 12.64 89.5433 12.704C89.5433 12.752 89.5353 12.808 89.5193 12.872C89.5193 12.92 89.5113 12.976 89.4953 13.04C89.4313 13.04 89.3913 13.048 89.3753 13.064L89.3033 13.256C89.2873 13.32 89.2953 13.36 89.3273 13.376C89.3593 13.376 89.3753 13.384 89.3753 13.4L89.3273 13.496C89.3273 13.56 89.3273 13.624 89.3273 13.688C89.3433 13.752 89.3433 13.824 89.3273 13.904H89.1353L88.8713 13.928C88.9353 14.024 89.0073 14.104 89.0872 14.168C89.1673 14.216 89.2073 14.24 89.2073 14.24C89.2393 14.272 89.2473 14.304 89.2313 14.336C89.1993 14.416 89.1673 14.496 89.1353 14.576C89.1033 14.656 89.0713 14.736 89.0393 14.816L89.1113 14.84C89.1273 14.856 89.1193 14.864 89.0872 14.864C89.0713 14.864 89.0713 14.872 89.0872 14.888L89.1113 14.912C89.1273 14.928 89.1353 14.952 89.1353 14.984C89.1353 15.048 89.1113 15.112 89.0633 15.176C89.0153 15.24 88.9753 15.312 88.9433 15.392H89.0153C89.0153 15.52 89.0073 15.696 88.9913 15.92C88.9753 16.128 88.9273 16.28 88.8473 16.376H88.8233V16.256H88.7033L88.8713 16.496C88.8073 16.704 88.7673 16.928 88.7513 17.168C88.7353 17.392 88.7113 17.616 88.6793 17.84L88.8473 18.056H88.8713V17.888L89.0153 17.792H89.1353L89.1833 17.96L89.2313 17.672C89.2313 17.688 89.2313 17.688 89.2313 17.672C89.2473 17.656 89.2553 17.648 89.2553 17.648H89.3033C89.3353 17.536 89.3433 17.456 89.3273 17.408C89.4233 17.28 89.5353 17.112 89.6633 16.904C89.8073 16.68 89.9433 16.464 90.0713 16.256C90.1993 16.032 90.2793 15.856 90.3113 15.728C90.3433 15.728 90.3673 15.744 90.3833 15.776C90.3993 15.808 90.4153 15.824 90.4313 15.824C90.4473 15.824 90.4473 15.792 90.4313 15.728C90.4313 15.648 90.4153 15.616 90.3833 15.632C90.4313 15.568 90.4633 15.496 90.4793 15.416C90.4953 15.32 90.5353 15.272 90.5993 15.272C90.6793 15.272 90.7193 15.296 90.7193 15.344C90.7193 15.376 90.7113 15.416 90.6953 15.464C90.6793 15.496 90.6713 15.528 90.6713 15.56L90.6473 16.064L90.5033 16.184L90.5513 16.208H90.5753L90.5033 16.256L90.5753 16.328H90.5033C90.5033 16.408 90.4873 16.488 90.4553 16.568C90.4393 16.648 90.4153 16.728 90.3833 16.808L90.2393 16.856L90.2873 16.952L90.1673 17.12L90.0233 17.144L89.7113 17.936L89.5673 17.912L89.5913 18.104L88.9673 18.824L88.8473 18.8L88.8233 18.944L88.7273 19.016H88.2953ZM83.9513 16.856H83.9993L84.5273 16.592C84.5593 16.624 84.5673 16.64 84.5513 16.64C84.5353 16.64 84.5273 16.64 84.5273 16.64C84.5273 16.688 84.5433 16.728 84.5753 16.76C84.6073 16.776 84.6313 16.784 84.6473 16.784L84.5993 16.544C84.6313 16.448 84.6953 16.424 84.7913 16.472L84.7673 16.52L84.9353 16.448H84.8153C84.7993 16.4 84.8153 16.376 84.8633 16.376L85.2473 16.28C85.2633 16.264 85.2393 16.256 85.1753 16.256C85.1113 16.24 85.0793 16.224 85.0793 16.208L85.2233 16.136C85.3353 16.056 85.4313 15.984 85.5113 15.92C85.6073 15.84 85.6553 15.8 85.6553 15.8C85.6873 15.848 85.7353 15.872 85.7993 15.872H85.8233V15.56L85.9913 15.392L86.0873 15.416L86.0633 15.296L86.2553 15.224C86.2873 15.08 86.3593 14.976 86.4713 14.912C86.5833 14.832 86.6713 14.744 86.7353 14.648H86.6873C86.7193 14.568 86.7833 14.52 86.8793 14.504C86.9753 14.472 87.0313 14.408 87.0473 14.312L86.9993 14.216L87.2633 14L87.2153 13.976C87.2473 13.944 87.2633 13.912 87.2633 13.88C87.2793 13.832 87.3193 13.816 87.3833 13.832L87.5033 13.856V13.616L87.5993 13.448H87.7913C87.8233 13.352 87.7913 13.304 87.6953 13.304L88.0312 12.848L88.1753 12.92V12.872L88.0312 12.824L88.1273 12.68L88.2233 12.656L88.2473 12.632C88.1993 12.632 88.1833 12.616 88.1992 12.584C88.2153 12.536 88.2473 12.52 88.2953 12.536L88.3193 12.344L88.4393 12.296H88.3913L88.4393 12.176H88.6073L88.5593 11.816L88.6073 11.768L88.5353 11.696C88.5033 11.808 88.4233 11.872 88.2953 11.888C88.1673 11.904 88.0553 11.912 87.9593 11.912C87.9913 11.928 87.9993 11.96 87.9833 12.008C87.9673 12.04 87.9433 12.048 87.9113 12.032L87.7673 11.96H87.6953L87.7673 12.128L87.5513 12.08L87.5993 12.176H87.4793V12.272L87.2633 12.416C87.2473 12.416 87.1753 12.408 87.0473 12.392C86.9353 12.376 86.9113 12.4 86.9753 12.464H87.0233C87.0233 12.544 86.9993 12.576 86.9513 12.56C86.9033 12.544 86.8713 12.536 86.8553 12.536L86.9033 12.56C86.5993 12.704 86.3273 12.912 86.0873 13.184C86.1193 13.2 86.1113 13.224 86.0633 13.256C86.0313 13.288 85.9993 13.28 85.9673 13.232V13.376L85.9193 13.328C85.9193 13.408 85.8713 13.48 85.7753 13.544C85.6793 13.592 85.5913 13.632 85.5113 13.664C85.4633 13.76 85.4073 13.856 85.3433 13.952C85.2793 14.048 85.2073 14.12 85.1273 14.168L85.0793 14.144L84.8153 14.312V14.384C84.8473 14.544 84.8073 14.688 84.6953 14.816C84.5993 14.928 84.5033 15.048 84.4073 15.176L84.3353 15.104L84.2633 15.416H84.0953V15.728H83.8793C83.9433 15.728 83.9833 15.768 83.9993 15.848V15.872C83.9993 15.872 83.9993 15.864 83.9993 15.848L83.9513 15.824C83.9513 15.952 83.9193 16.08 83.8553 16.208C83.7913 16.336 83.7513 16.464 83.7353 16.592H83.8553C83.8233 16.72 83.8713 16.776 83.9993 16.76L83.9513 16.856ZM93.0253 20.36C92.9293 20.456 92.7613 20.496 92.5213 20.48C92.2973 20.48 92.1133 20.48 91.9693 20.48L92.0173 20.36H91.9213C91.8893 20.36 91.8573 20.352 91.8253 20.336C91.7933 20.336 91.7533 20.328 91.7053 20.312V20.384C91.5933 20.384 91.4813 20.36 91.3693 20.312C91.2733 20.28 91.1693 20.256 91.0573 20.24L91.1293 20.168L90.9373 20.12C90.9533 20.136 90.9373 20.128 90.8893 20.096C90.8573 20.08 90.8653 20.08 90.9133 20.096C90.8333 20.064 90.7373 20.024 90.6253 19.976C90.5133 19.912 90.4333 19.832 90.3853 19.736L90.4093 19.664L90.2893 19.712L90.1213 19.448H90.0253C90.0413 19.384 89.9933 19.32 89.8813 19.256C89.7853 19.176 89.7853 19.112 89.8813 19.064C89.7213 18.984 89.6253 18.856 89.5933 18.68C89.5613 18.488 89.5453 18.296 89.5453 18.104C89.5613 17.896 89.5453 17.72 89.4973 17.576L89.6173 17.336L89.6893 17.312C89.6573 17.216 89.6333 17.12 89.6173 17.024C89.6173 16.928 89.6173 16.832 89.6173 16.736L89.8813 16.568C89.8173 16.504 89.7853 16.424 89.7853 16.328C89.7853 16.248 89.7933 16.168 89.8093 16.088C89.8413 15.992 89.8653 15.912 89.8813 15.848H90.0013V15.56L90.0493 15.608L90.0733 15.344C90.1053 15.36 90.1373 15.344 90.1693 15.296C90.2013 15.248 90.2013 15.216 90.1693 15.2C90.2013 15.104 90.2493 15 90.3133 14.888C90.3773 14.76 90.4573 14.68 90.5533 14.648C90.5053 14.648 90.4733 14.624 90.4573 14.576C90.4413 14.528 90.4653 14.496 90.5293 14.48L90.6013 14.528L90.6973 14.36C90.6653 14.424 90.6333 14.44 90.6013 14.408C90.5853 14.36 90.5933 14.328 90.6253 14.312H90.7933V14.24C90.8093 14.24 90.8333 14.248 90.8653 14.264C90.8973 14.264 90.9133 14.256 90.9133 14.24C90.8973 14.16 90.8493 14.128 90.7693 14.144C90.6893 14.16 90.7133 14.136 90.8413 14.072L90.9373 13.88C90.9693 13.88 90.9853 13.896 90.9853 13.928C90.9853 13.944 90.9933 13.96 91.0093 13.976C91.0093 13.992 91.0173 13.992 91.0333 13.976C91.0653 13.944 91.0813 13.92 91.0813 13.904L91.0333 13.832H90.9373V13.808C91.0013 13.776 91.0493 13.72 91.0813 13.64C91.1293 13.56 91.1773 13.488 91.2253 13.424L91.3693 13.52L91.3933 13.424C91.3933 13.408 91.3853 13.4 91.3693 13.4C91.3693 13.384 91.3693 13.368 91.3693 13.352C91.3693 13.24 91.4333 13.2 91.5613 13.232C91.5773 13.216 91.5693 13.2 91.5373 13.184C91.5053 13.168 91.4893 13.152 91.4893 13.136C91.6333 12.96 91.8253 12.8 92.0653 12.656L91.9693 12.608C92.0013 12.464 92.0813 12.376 92.2093 12.344C92.3373 12.312 92.4493 12.272 92.5453 12.224L92.4733 12.2L92.5933 11.96C92.6413 12.008 92.6813 12.016 92.7133 11.984C92.7613 11.952 92.7613 11.904 92.7133 11.84L92.9053 11.672L93.0493 11.744C93.0653 11.616 93.1453 11.488 93.2893 11.36C93.4493 11.232 93.6173 11.128 93.7933 11.048C93.9853 10.952 94.1373 10.896 94.2493 10.88V10.712H94.3213L94.3453 10.808L94.5613 10.592L94.7293 10.664L95.1613 10.28L95.1853 10.376C95.2013 10.296 95.2813 10.232 95.4253 10.184C95.5693 10.12 95.7293 10.072 95.9053 10.04C96.0813 10.008 96.2013 9.992 96.2653 9.992L96.2893 10.04C96.3213 9.912 96.4173 9.84 96.5773 9.824C96.7533 9.792 96.8973 9.776 97.0093 9.776C96.9933 9.792 96.9853 9.808 96.9853 9.824C96.9853 9.856 97.0173 9.88 97.0813 9.896C97.1453 9.896 97.1773 9.856 97.1773 9.776L97.3213 9.752L97.3933 9.848L97.6573 9.752C97.6893 9.8 97.7133 9.824 97.7293 9.824C97.7773 9.824 97.8253 9.808 97.8733 9.776C97.9373 9.728 98.0013 9.728 98.0653 9.776C98.0333 9.776 98.0173 9.8 98.0173 9.848C98.0173 9.896 98.0413 9.92 98.0893 9.92L98.2333 9.8L98.2813 9.824L98.3533 9.992L98.5213 9.872C98.4893 9.904 98.4973 9.936 98.5453 9.968C98.5933 9.984 98.6173 9.968 98.6173 9.92C98.6333 10.016 98.6893 10.08 98.7853 10.112C98.8973 10.144 98.9853 10.184 99.0493 10.232C99.1293 10.264 99.1293 10.36 99.0493 10.52L98.8333 10.952L98.7613 10.904L98.8093 11.144L98.5933 11.408L98.6413 11.576L98.4733 11.6L98.5453 11.72L98.5693 11.6V11.768L98.4493 11.84L98.4253 11.792L98.3533 12.032L98.4013 12.176C98.3853 12.176 98.3453 12.264 98.2813 12.44C98.2173 12.6 98.1533 12.712 98.0893 12.776L98.1853 12.92C98.1373 13 98.0893 13.072 98.0413 13.136C97.9933 13.2 97.9613 13.28 97.9453 13.376L98.0653 13.4L97.9453 14.072L97.8493 14.168L97.5373 14.024C97.4893 13.928 97.4893 13.856 97.5373 13.808C97.2973 13.744 97.1933 13.576 97.2253 13.304L97.1773 13.352C97.2093 13.256 97.2253 13.184 97.2253 13.136C97.2253 13.104 97.2093 13.04 97.1773 12.944L97.1053 13.016C97.1053 12.92 97.1053 12.784 97.1053 12.608C97.1213 12.416 97.1453 12.24 97.1773 12.08C97.2093 11.904 97.2573 11.792 97.3213 11.744C97.3533 11.76 97.3933 11.76 97.4413 11.744C97.5053 11.728 97.5293 11.696 97.5133 11.648L97.3933 11.504L97.5373 11.36L97.4413 11.312C97.4413 11.328 97.4733 11.336 97.5373 11.336C97.5373 11.144 97.5853 10.968 97.6813 10.808C97.7773 10.648 97.8333 10.472 97.8493 10.28H97.4653C97.4813 10.248 97.4653 10.208 97.4173 10.16C97.3853 10.112 97.3533 10.112 97.3213 10.16V10.304C97.2093 10.304 97.0973 10.328 96.9853 10.376C96.8893 10.408 96.8013 10.44 96.7213 10.472V10.424L96.8413 10.328C96.7133 10.392 96.5933 10.464 96.4813 10.544C96.3853 10.624 96.2573 10.648 96.0973 10.616C96.0813 10.632 96.0813 10.656 96.0973 10.688C96.1133 10.704 96.1293 10.704 96.1453 10.688L95.8573 10.856V10.952L94.8253 11.528L94.9693 11.552L94.9453 11.6C94.7853 11.616 94.6253 11.704 94.4653 11.864C94.3213 12.008 94.1773 12.168 94.0333 12.344C93.9053 12.504 93.7533 12.616 93.5773 12.68C93.3693 12.92 93.1613 13.176 92.9533 13.448C92.7613 13.72 92.5773 13.992 92.4013 14.264L92.4733 14.336L92.3533 14.504C92.3213 14.472 92.2973 14.464 92.2813 14.48C92.2653 14.496 92.2813 14.512 92.3293 14.528C92.3133 14.688 92.2173 14.768 92.0413 14.768C92.0733 14.928 92.0493 15.072 91.9693 15.2C91.8893 15.328 91.7933 15.424 91.6813 15.488C91.7133 15.488 91.7373 15.52 91.7533 15.584C91.7693 15.632 91.7533 15.672 91.7053 15.704H91.5613C91.5613 15.848 91.5373 15.976 91.4893 16.088C91.4573 16.2 91.4253 16.32 91.3933 16.448C91.3773 16.448 91.3533 16.448 91.3213 16.448C91.2893 16.448 91.2653 16.464 91.2493 16.496L91.1533 17.192L91.0093 17.24L91.1533 17.456L91.0573 17.648H91.0333V17.552H90.9853C90.9533 17.616 90.9533 17.656 90.9853 17.672C91.0333 17.688 91.0653 17.688 91.0813 17.672V17.84L90.9373 17.888L90.9613 18.272C90.9613 18.272 90.9693 18.28 90.9853 18.296H90.9613V18.44C90.9613 18.472 90.9693 18.568 90.9853 18.728C91.0173 18.872 91.0493 19.008 91.0813 19.136C91.1293 19.248 91.1853 19.264 91.2493 19.184L91.3933 19.376V19.568L91.4413 19.472C91.5373 19.552 91.6413 19.632 91.7533 19.712C91.8653 19.776 91.9853 19.824 92.1133 19.856L92.0413 20C92.0733 20.016 92.0973 20.008 92.1133 19.976C92.1453 19.928 92.1613 19.896 92.1613 19.88H92.4733C92.5053 19.944 92.5693 19.984 92.6653 20C92.7773 20.032 92.8653 20.048 92.9293 20.048V19.904C93.0413 19.904 93.1373 19.904 93.2173 19.904C93.3133 19.888 93.4173 19.88 93.5293 19.88C93.5773 19.88 93.6253 19.88 93.6733 19.88C93.7373 19.88 93.8013 19.888 93.8653 19.904V19.832L94.0333 19.856C93.9693 19.856 93.9373 19.864 93.9373 19.88L94.2493 19.832V19.688H94.3453C94.4093 19.688 94.4733 19.68 94.5373 19.664C94.6013 19.632 94.6733 19.608 94.7533 19.592L94.8013 19.664C94.8493 19.536 94.9693 19.472 95.1613 19.472L95.1133 19.448H95.1853L95.2333 19.544V19.424L95.4733 19.568C95.5053 19.52 95.5213 19.472 95.5213 19.424C95.5213 19.376 95.5293 19.32 95.5453 19.256L95.7613 19.328V19.232C95.8733 19.12 96.0253 19.048 96.2173 19.016V18.992C96.2973 18.944 96.3853 18.896 96.4813 18.848C96.5773 18.8 96.6733 18.784 96.7693 18.8L96.7933 18.608C96.8733 18.608 96.9293 18.592 96.9613 18.56C97.0093 18.512 97.0653 18.488 97.1293 18.488V18.56C97.1613 18.544 97.1853 18.512 97.2013 18.464C97.2333 18.416 97.2813 18.408 97.3453 18.44L97.1773 18.368L97.4653 18.272L97.6573 18.056H97.8493L97.8013 17.888H97.8973L97.8733 17.84L98.1133 17.792L98.0893 17.696L98.3053 17.672C98.3373 17.592 98.3693 17.52 98.4013 17.456C98.4333 17.376 98.4813 17.304 98.5453 17.24L98.6413 17.264L98.6653 17.048H98.8333L98.9533 16.784L99.0733 16.856C99.0893 16.792 99.0733 16.736 99.0253 16.688L99.2173 16.448C99.2493 16.448 99.2653 16.472 99.2653 16.52L99.2413 16.568C99.2733 16.568 99.3133 16.56 99.3613 16.544C99.4093 16.528 99.4093 16.568 99.3613 16.664C99.3613 16.68 99.3213 16.712 99.2413 16.76C99.1773 16.792 99.1693 16.832 99.2173 16.88C99.2493 16.912 99.2813 16.896 99.3133 16.832V16.808C99.3133 16.808 99.3133 16.816 99.3133 16.832L99.1933 17.168H99.0013V17.408C98.9853 17.44 98.9293 17.464 98.8333 17.48C98.7533 17.48 98.7613 17.52 98.8573 17.6C98.7613 17.648 98.7053 17.704 98.6893 17.768C98.6733 17.832 98.6413 17.888 98.5933 17.936C98.5613 17.984 98.4573 18.024 98.2813 18.056L98.3773 18.152C98.3773 18.168 98.3613 18.2 98.3293 18.248C98.2973 18.28 98.2813 18.288 98.2813 18.272L98.2333 18.152L98.2093 18.224L98.1853 18.368C98.0733 18.368 97.9693 18.44 97.8733 18.584C97.7773 18.728 97.6893 18.792 97.6093 18.776L97.3933 19.016C97.3453 19.016 97.2733 19.056 97.1773 19.136C97.0813 19.216 96.9613 19.264 96.8173 19.28L96.6253 19.472L96.4333 19.424L96.3613 19.592L95.9293 19.784L95.7613 19.712L95.7133 19.88L95.2333 20.072L95.1853 19.952C95.0573 20.016 94.9373 20.08 94.8253 20.144C94.7133 20.224 94.5773 20.272 94.4173 20.288C94.4013 20.272 94.4093 20.248 94.4413 20.216C94.4893 20.2 94.5053 20.184 94.4893 20.168L94.3693 20.12L94.3213 20.336L93.9133 20.312L93.9373 20.384C93.8093 20.416 93.6973 20.432 93.6013 20.432C93.4893 20.432 93.3933 20.4 93.3133 20.336L93.3613 20.48H93.0493L93.0253 20.36ZM91.0093 18.44C90.9933 18.44 90.9933 18.4 91.0093 18.32C90.9933 18.304 90.9853 18.296 90.9853 18.296C91.0013 18.28 91.0093 18.288 91.0093 18.32C91.0413 18.352 91.0413 18.392 91.0093 18.44ZM102.841 15.92C102.809 15.856 102.785 15.832 102.769 15.848C102.769 15.848 102.737 15.84 102.673 15.824C102.673 15.744 102.681 15.656 102.697 15.56C102.713 15.464 102.721 15.376 102.721 15.296L102.577 15.248C102.561 15.216 102.553 15.168 102.553 15.104C102.553 15.024 102.569 14.952 102.601 14.888C102.633 14.808 102.625 14.736 102.577 14.672C102.625 14.624 102.649 14.568 102.649 14.504C102.665 14.424 102.673 14.352 102.673 14.288C102.657 14.256 102.633 14.264 102.601 14.312C102.585 14.344 102.577 14.36 102.577 14.36C102.577 14.232 102.569 14.104 102.553 13.976C102.553 13.832 102.553 13.688 102.553 13.544C102.553 13.368 102.561 13.192 102.577 13.016C102.609 12.84 102.657 12.68 102.721 12.536C102.705 12.504 102.689 12.384 102.673 12.176C102.657 11.952 102.649 11.728 102.649 11.504C102.649 11.328 102.649 11.176 102.649 11.048C102.649 10.92 102.657 10.84 102.673 10.808H102.793V10.76C102.793 10.712 102.769 10.664 102.721 10.616C102.673 10.568 102.657 10.504 102.673 10.424H102.793C102.825 10.328 102.785 10.28 102.673 10.28L102.793 10.184C102.729 10.12 102.697 9.968 102.697 9.728C102.697 9.392 102.745 9.128 102.841 8.936C102.825 8.904 102.801 8.816 102.769 8.672C102.753 8.528 102.745 8.4 102.745 8.288C102.745 8.144 102.777 8.072 102.841 8.072C102.841 7.944 102.817 7.84 102.769 7.76C102.737 7.664 102.721 7.576 102.721 7.496C102.721 7.4 102.777 7.288 102.889 7.16C102.841 7.128 102.801 7.088 102.769 7.04C102.737 6.992 102.705 6.944 102.673 6.896H102.841L102.889 6.68H102.673C102.673 6.552 102.673 6.432 102.673 6.32C102.689 6.192 102.705 6.072 102.721 5.96C102.705 5.928 102.681 5.928 102.649 5.96C102.633 5.992 102.625 6.024 102.625 6.056V5.888H102.841V5.84C102.697 5.76 102.625 5.672 102.625 5.576C102.625 5.528 102.641 5.48 102.673 5.432C102.705 5.384 102.705 5.336 102.673 5.288C102.609 5.24 102.561 5.152 102.529 5.024C102.833 5.072 103.057 5.136 103.201 5.216C103.361 5.28 103.577 5.344 103.849 5.408V5.672L103.897 5.696H104.161C104.209 5.824 104.257 5.992 104.305 6.2C104.369 6.392 104.401 6.584 104.401 6.776C104.401 7.032 104.345 7.224 104.233 7.352C104.345 7.448 104.401 7.52 104.401 7.568C104.401 7.6 104.377 7.64 104.329 7.688C104.281 7.736 104.249 7.8 104.233 7.88H104.257C104.289 7.88 104.305 7.912 104.305 7.976C104.321 8.024 104.329 8.056 104.329 8.072C104.265 8.136 104.233 8.216 104.233 8.312C104.233 8.408 104.249 8.52 104.281 8.648L104.113 8.696C104.161 8.712 104.185 8.808 104.185 8.984C104.185 9.112 104.177 9.256 104.161 9.416C104.145 9.56 104.129 9.656 104.113 9.704C104.049 9.608 104.001 9.664 103.969 9.872C103.937 10.08 103.913 10.32 103.897 10.592C103.881 10.848 103.865 11.016 103.849 11.096C103.849 11.064 103.841 11.04 103.825 11.024C103.825 11.008 103.825 11 103.825 11C103.809 11 103.793 11.032 103.777 11.096C103.761 11.144 103.729 11.16 103.681 11.144C103.713 11.24 103.729 11.336 103.729 11.432C103.729 11.544 103.721 11.664 103.705 11.792C103.689 11.92 103.681 12.024 103.681 12.104C103.617 12.104 103.593 12.104 103.609 12.104C103.625 12.088 103.609 12.048 103.561 11.984L103.657 11.912H103.513V12.152H103.657V12.296H103.513C103.529 12.344 103.537 12.392 103.537 12.44C103.537 12.488 103.537 12.536 103.537 12.584C103.537 12.84 103.489 13.08 103.393 13.304H103.225L103.345 13.472L103.393 13.352V13.472C103.393 13.568 103.377 13.68 103.345 13.808C103.281 13.824 103.233 13.96 103.201 14.216C103.169 14.456 103.105 14.656 103.009 14.816C103.057 14.864 103.081 14.92 103.081 14.984C103.097 15.032 103.113 15.08 103.129 15.128H103.057C103.057 15.272 103.041 15.408 103.009 15.536C102.977 15.664 102.945 15.792 102.913 15.92H102.841ZM102.673 20.336C102.497 20.304 102.313 20.288 102.121 20.288C101.929 20.288 101.769 20.24 101.641 20.144C101.529 20.064 101.473 19.888 101.473 19.616C101.585 19.504 101.681 19.376 101.761 19.232C101.841 19.072 101.969 18.992 102.145 18.992L102.073 18.896H102.145C102.369 18.752 102.585 18.672 102.793 18.656C103.017 18.624 103.257 18.608 103.513 18.608C103.529 18.656 103.553 18.696 103.585 18.728C103.617 18.76 103.641 18.8 103.657 18.848C103.497 18.944 103.337 19.128 103.177 19.4C103.033 19.656 102.945 19.872 102.913 20.048H102.793C102.793 20.128 102.777 20.176 102.745 20.192C102.729 20.224 102.705 20.272 102.673 20.336Z" fill="#C0242A"/>
</svg>
