<svg width="295" height="112" viewBox="0 0 295 112" fill="none" xmlns="http://www.w3.org/2000/svg">
<path d="M294.466 58.6196L294.61 57.4751C294.618 57.413 294.601 57.3508 294.562 57.2924C294.523 57.234 294.462 57.1804 294.381 57.135C294.301 57.0895 294.204 57.053 294.096 57.0276C293.987 57.0023 293.87 56.9887 293.751 56.9875C293.632 56.9843 293.512 56.9937 293.399 57.0151C293.287 57.0364 293.183 57.0692 293.094 57.1116C293.006 57.154 292.934 57.2052 292.884 57.262C292.833 57.3188 292.805 57.3801 292.801 57.4423C292.683 58.3839 292.567 59.3111 292.452 60.2238C292.429 60.348 292.5 60.4713 292.649 60.5675C292.798 60.6637 293.015 60.7252 293.252 60.7389C293.493 60.7454 293.732 60.7036 293.918 60.622C294.105 60.5404 294.225 60.4252 294.255 60.3001L294.466 58.6196ZM294.676 54.7297C294.794 53.7881 294.606 52.8385 294.502 51.891C294.496 51.8295 294.467 51.7695 294.415 51.7144C294.364 51.6593 294.292 51.6103 294.204 51.5701C294.116 51.5299 294.012 51.4994 293.901 51.4804C293.789 51.4613 293.67 51.4541 293.552 51.4592C293.434 51.4632 293.319 51.4795 293.212 51.507C293.106 51.5345 293.01 51.5727 292.932 51.6193C292.853 51.666 292.793 51.7201 292.755 51.7787C292.716 51.8372 292.701 51.8989 292.709 51.9603C292.815 52.8933 292.865 53.8248 292.862 54.7404C292.867 54.8653 292.967 54.9833 293.138 55.0692C293.31 55.1552 293.54 55.2023 293.78 55.2005C293.897 55.1999 294.014 55.1872 294.122 55.1632C294.231 55.1391 294.329 55.1043 294.413 55.0605C294.496 55.0168 294.562 54.9651 294.607 54.9083C294.652 54.8515 294.675 54.7908 294.676 54.7297ZM293.619 63.1467C293.635 63.0294 293.569 62.9137 293.431 62.8216C293.293 62.7296 293.095 62.6676 292.873 62.6475C292.635 62.6332 292.395 62.668 292.203 62.7445C292.011 62.8209 291.883 62.933 291.846 63.0567C291.614 63.7919 291.358 64.4974 291.041 65.2449L290.833 65.7918C290.806 65.8522 290.802 65.9147 290.821 65.9756C290.841 66.0365 290.884 66.0946 290.948 66.1463C291.011 66.1981 291.094 66.2426 291.192 66.2771C291.29 66.3116 291.4 66.3356 291.516 66.3474C291.746 66.3701 291.985 66.3445 292.182 66.2761C292.378 66.2078 292.516 66.1023 292.566 65.9825L292.802 65.4363C293.117 64.7033 293.373 63.9978 293.614 63.1902L293.619 63.1467ZM294.208 49.1217L294.217 49.0493C294.026 48.1286 293.811 47.1782 293.538 46.2409C293.5 46.12 293.374 46.0121 293.185 45.9396C292.997 45.867 292.762 45.8353 292.527 45.8511C292.408 45.8599 292.292 45.8813 292.188 45.9139C292.084 45.9465 291.994 45.9897 291.922 46.0408C291.851 46.0919 291.799 46.1499 291.772 46.2113C291.744 46.2727 291.741 46.3361 291.762 46.3978C292.008 47.32 292.255 48.2421 292.419 49.1621C292.444 49.2841 292.562 49.3952 292.746 49.4708C292.93 49.5465 293.165 49.5806 293.4 49.5656C293.589 49.5388 293.757 49.4805 293.878 49.3997C293.999 49.3188 294.066 49.2199 294.069 49.1181L294.208 49.1217ZM291.285 68.6378C291.295 68.5309 291.235 68.426 291.113 68.3408C290.992 68.2555 290.817 68.1951 290.618 68.1698C290.505 68.152 290.385 68.1466 290.267 68.154C290.149 68.1614 290.034 68.1815 289.931 68.2129C289.827 68.2443 289.737 68.2864 289.666 68.3365C289.595 68.3867 289.544 68.4438 289.517 68.5043C289.044 69.3786 288.513 70.2803 287.926 71.1806C287.889 71.2389 287.875 71.3001 287.884 71.3609C287.892 71.4216 287.924 71.4807 287.977 71.5347C288.03 71.5887 288.102 71.6367 288.191 71.6757C288.28 71.7148 288.383 71.7442 288.494 71.7624C288.722 71.7997 288.971 71.7887 289.187 71.7319C289.402 71.675 289.568 71.5768 289.648 71.4583C290.235 70.558 290.768 69.6417 291.244 68.7385L291.285 68.6378ZM292.646 43.5722L292.661 43.4563C292.301 42.5458 291.943 41.6207 291.502 40.6935C291.446 40.5746 291.302 40.4727 291.1 40.4102C290.899 40.3478 290.657 40.3297 290.428 40.3601C290.313 40.3736 290.203 40.3992 290.107 40.4353C290.011 40.4714 289.929 40.5173 289.868 40.5702C289.806 40.623 289.766 40.6817 289.749 40.7426C289.733 40.8036 289.74 40.8654 289.772 40.9244C290.159 41.8357 290.547 42.7469 290.881 43.6423C290.899 43.703 290.941 43.7609 291.004 43.8124C291.067 43.864 291.15 43.9081 291.248 43.942C291.345 43.9759 291.456 43.9989 291.572 44.0095C291.688 44.0202 291.807 44.0182 291.923 44.0038C292.095 43.9719 292.244 43.9126 292.349 43.8345C292.454 43.7563 292.509 43.6632 292.507 43.5686L292.646 43.5722ZM287.855 73.9695C287.865 73.869 287.814 73.77 287.709 73.6864C287.605 73.6028 287.452 73.5388 287.272 73.5036C287.052 73.4615 286.807 73.4667 286.591 73.5183C286.376 73.5699 286.207 73.6635 286.122 73.7787C285.483 74.6486 284.788 75.5171 284.04 76.3696C283.95 76.4851 283.947 76.6132 284.031 76.7285C284.115 76.8438 284.279 76.9378 284.492 76.9918C284.715 77.0396 284.967 77.0392 285.192 76.9907C285.418 76.9421 285.599 76.8494 285.695 76.7326C286.444 75.8802 287.142 74.9828 287.781 74.1129L287.855 73.9695ZM290.154 38.1001L290.174 37.9408C289.673 37.0411 289.145 36.1406 288.587 35.2539C288.552 35.1954 288.494 35.1412 288.417 35.0948C288.341 35.0483 288.247 35.0104 288.141 34.9833C288.035 34.9561 287.92 34.9403 287.802 34.9368C287.684 34.9332 287.565 34.942 287.453 34.9626C287.34 34.9821 287.235 35.013 287.144 35.0536C287.054 35.0942 286.98 35.1437 286.926 35.1991C286.872 35.2545 286.84 35.3148 286.832 35.3765C286.823 35.4381 286.838 35.4998 286.876 35.558C287.436 36.4302 287.966 37.3161 288.439 38.2151C288.506 38.3324 288.659 38.4303 288.867 38.4875C289.074 38.5447 289.317 38.5564 289.544 38.5202C289.682 38.4819 289.799 38.425 289.881 38.3556C289.963 38.2861 290.008 38.2066 290.011 38.1254L290.154 38.1001ZM283.442 79.13C283.451 79.0392 283.412 78.9492 283.328 78.8701C283.245 78.7909 283.12 78.7257 282.969 78.6816C282.851 78.6337 282.712 78.6019 282.563 78.5889C282.415 78.576 282.262 78.5822 282.119 78.6072C281.975 78.6322 281.845 78.675 281.74 78.7321C281.634 78.7891 281.557 78.8585 281.515 78.9342C280.715 79.7563 279.885 80.5921 279.001 81.412C278.942 81.4657 278.905 81.5248 278.89 81.5859C278.875 81.647 278.884 81.7088 278.915 81.7678C278.947 81.8267 279 81.8817 279.073 81.9294C279.146 81.9772 279.237 82.0167 279.34 82.0458C279.548 82.1022 279.791 82.1143 280.019 82.0797C280.247 82.0451 280.441 81.9663 280.562 81.8598C281.448 81.0254 282.307 80.1759 283.137 79.34L283.442 79.13ZM286.779 32.7793C286.813 32.718 286.821 32.6537 286.802 32.591C286.159 31.7166 285.488 30.8415 284.787 29.9802C284.744 29.9234 284.679 29.8719 284.597 29.8286C284.514 29.7853 284.416 29.7511 284.307 29.728C284.198 29.7049 284.082 29.6933 283.964 29.6939C283.846 29.6945 283.729 29.7073 283.62 29.7316C283.396 29.782 283.218 29.8761 283.125 29.9935C283.032 30.1108 283.031 30.2419 283.123 30.3581C283.825 31.2049 284.498 32.0656 285.115 32.9247C285.154 32.9821 285.213 33.0348 285.291 33.0797C285.369 33.1247 285.464 33.1611 285.569 33.1868C285.675 33.2125 285.79 33.2271 285.907 33.2296C286.024 33.2321 286.141 33.2226 286.251 33.2016C286.372 33.1559 286.469 33.0959 286.536 33.0269C286.603 32.9578 286.637 32.8816 286.636 32.8047L286.779 32.7793ZM278.111 84.063C278.122 83.981 278.092 83.8991 278.023 83.8258C277.954 83.7525 277.848 83.6904 277.717 83.6458C277.617 83.6127 277.505 83.5905 277.388 83.5804C277.271 83.5704 277.15 83.5727 277.034 83.5873C276.918 83.6019 276.808 83.6284 276.711 83.6653C276.615 83.7022 276.533 83.7487 276.47 83.8021C275.507 84.5908 274.516 85.3788 273.389 86.1342C273.259 86.2398 273.21 86.3666 273.251 86.489C273.293 86.6115 273.422 86.7204 273.613 86.7941C273.709 86.8282 273.818 86.8521 273.933 86.8641C274.047 86.8762 274.166 86.8763 274.281 86.8645C274.397 86.8527 274.507 86.8291 274.606 86.7952C274.704 86.7612 274.789 86.7176 274.856 86.6668C275.901 85.8947 276.894 85.0922 277.944 84.2767C278.011 84.2196 278.057 84.1567 278.079 84.0913L278.111 84.063ZM282.599 27.641C282.651 27.5663 282.661 27.486 282.628 27.4092C281.843 26.5601 281.055 25.7256 280.156 24.8881C280.038 24.7806 279.846 24.7011 279.617 24.6654C279.389 24.6298 279.142 24.6407 278.926 24.696C278.717 24.7592 278.562 24.8608 278.49 24.9802C278.418 25.0997 278.435 25.2282 278.538 25.3399C279.383 26.1614 280.172 26.9815 281.016 27.8175C281.064 27.8738 281.134 27.9243 281.221 27.966C281.308 28.0077 281.41 28.0398 281.522 28.0603C281.634 28.0809 281.753 28.0895 281.872 28.0856C281.991 28.0818 282.107 28.0655 282.215 28.0379C282.291 27.9846 282.344 27.9237 282.371 27.8592C282.398 27.7948 282.399 27.7283 282.373 27.6641L282.599 27.641ZM271.95 88.7127C271.957 88.6347 271.927 88.5572 271.863 88.4872C271.799 88.4171 271.702 88.3565 271.582 88.3107C271.388 88.2418 271.15 88.2136 270.916 88.2316C270.681 88.2497 270.467 88.3128 270.315 88.4083C269.246 89.1507 268.093 89.8908 266.945 90.602C266.797 90.6994 266.727 90.822 266.748 90.9443C266.769 91.0666 266.88 91.1793 267.057 91.259C267.145 91.2987 267.248 91.3289 267.36 91.3477C267.471 91.3664 267.588 91.3735 267.706 91.3685C267.823 91.3634 267.938 91.3464 268.043 91.3183C268.148 91.2902 268.242 91.2517 268.319 91.2048C269.497 90.4799 270.652 89.7252 271.751 88.9691C271.85 88.9034 271.908 88.8239 271.919 88.741L271.95 88.7127ZM277.45 22.6807C277.458 22.5869 277.411 22.4944 277.316 22.4156C276.413 21.6071 275.453 20.8116 274.492 20.0307C274.429 19.977 274.346 19.9306 274.248 19.8945C274.149 19.8584 274.037 19.8333 273.919 19.8207C273.8 19.808 273.678 19.8082 273.559 19.8211C273.44 19.834 273.326 19.8594 273.226 19.8958C273.128 19.9303 273.044 19.9745 272.978 20.0258C272.913 20.0771 272.867 20.1345 272.844 20.1947C272.821 20.2548 272.821 20.3166 272.844 20.3765C272.866 20.4363 272.912 20.493 272.977 20.5433C273.939 21.3243 274.88 22.0466 275.747 22.9123C275.874 23.0157 276.074 23.0889 276.304 23.1166C276.535 23.1443 276.778 23.1244 276.984 23.0609C277.105 23.0244 277.207 22.9733 277.283 22.912C277.359 22.8507 277.405 22.7811 277.418 22.709L277.45 22.6807ZM264.797 93.0458C264.804 92.9764 264.782 92.9073 264.732 92.8432C264.682 92.7792 264.606 92.7217 264.509 92.6749C264.423 92.6344 264.322 92.6034 264.212 92.5834C264.101 92.5635 263.985 92.5552 263.868 92.5589C263.751 92.5626 263.636 92.5782 263.53 92.6049C263.424 92.6317 263.328 92.6689 263.249 92.7146C262.05 93.3808 260.761 94.1029 259.484 94.7235C259.306 94.8084 259.198 94.9255 259.182 95.0499C259.167 95.1744 259.245 95.2963 259.4 95.3899C259.477 95.4368 259.572 95.4749 259.679 95.5021C259.786 95.5292 259.902 95.5448 260.022 95.5479C260.141 95.551 260.261 95.5416 260.373 95.5202C260.486 95.4988 260.59 95.4659 260.679 95.4234C261.989 94.76 263.279 94.038 264.504 93.3869C264.597 93.3412 264.672 93.2859 264.723 93.2247C264.774 93.1635 264.8 93.0976 264.799 93.0313L264.797 93.0458ZM271.597 17.9927C271.612 17.8873 271.556 17.7829 271.438 17.6978C270.392 16.9292 269.286 16.1881 268.207 15.4476C268.13 15.4008 268.035 15.3627 267.928 15.3355C267.822 15.3084 267.705 15.2928 267.586 15.2896C267.466 15.2865 267.347 15.296 267.234 15.3173C267.121 15.3387 267.017 15.3717 266.929 15.4142C266.753 15.4966 266.646 15.6114 266.631 15.7334C266.616 15.8555 266.693 15.975 266.847 16.0661C267.927 16.792 269 17.5759 270.052 18.3011C270.208 18.3913 270.426 18.4453 270.661 18.4514C270.895 18.4575 271.126 18.4153 271.303 18.3338C271.389 18.2945 271.459 18.2465 271.509 18.1929C271.559 18.1392 271.588 18.0809 271.593 18.0217L271.597 17.9927ZM256.934 97.0405C256.934 96.9155 256.851 96.7951 256.698 96.7C256.534 96.612 256.312 96.5597 256.075 96.5535C255.838 96.5473 255.604 96.5876 255.42 96.6666C254.087 97.2857 252.699 97.9034 251.314 98.4922C251.139 98.5747 251.032 98.6894 251.016 98.8114C251.001 98.9335 251.079 99.053 251.233 99.1441C251.392 99.2311 251.61 99.2828 251.842 99.2888C252.074 99.2949 252.303 99.2549 252.483 99.1769C253.925 98.5751 255.424 97.9603 256.675 97.3244C256.818 97.2464 256.909 97.1467 256.934 97.0405ZM264.866 13.6306C264.879 13.5073 264.805 13.3865 264.658 13.2908C263.465 12.5765 262.242 11.8759 261.016 11.2042C260.855 11.113 260.632 11.0585 260.393 11.0523C260.155 11.046 259.919 11.0885 259.737 11.1708C259.562 11.2532 259.455 11.368 259.439 11.49C259.424 11.6121 259.502 11.7316 259.655 11.8227C260.854 12.4936 262.051 13.179 263.218 13.8781C263.378 13.9693 263.601 14.0239 263.84 14.0301C264.079 14.0363 264.314 13.9938 264.496 13.9116C264.61 13.8863 264.713 13.8482 264.796 13.8002C264.879 13.7521 264.941 13.6951 264.977 13.6335L264.866 13.6306ZM248.373 100.595C248.391 100.485 248.336 100.376 248.217 100.286C248.057 100.195 247.833 100.14 247.595 100.134C247.356 100.128 247.121 100.17 246.938 100.253C245.504 100.796 244.014 101.339 242.501 101.837C242.305 101.907 242.167 102.013 242.115 102.134C242.064 102.254 242.103 102.379 242.225 102.484C242.285 102.537 242.365 102.583 242.461 102.619C242.557 102.655 242.667 102.68 242.783 102.692C242.9 102.705 243.02 102.705 243.137 102.692C243.254 102.679 243.365 102.654 243.463 102.618C245.005 102.106 246.384 101.561 247.987 101.007C248.146 100.973 248.284 100.917 248.387 100.846C248.49 100.774 248.552 100.689 248.568 100.6L248.373 100.595ZM257.371 9.58273C257.387 9.51426 257.372 9.445 257.327 9.38064C257.282 9.31629 257.208 9.25868 257.111 9.21255C255.797 8.56772 254.482 7.93737 253.11 7.32006C253.022 7.28034 252.919 7.25025 252.807 7.23146C252.696 7.21268 252.579 7.20561 252.461 7.21065C252.344 7.21568 252.229 7.23274 252.124 7.26082C252.019 7.2889 251.925 7.32742 251.848 7.37424C251.69 7.47059 251.609 7.59507 251.625 7.72063C251.64 7.84619 251.75 7.96276 251.931 8.04504C253.252 8.63192 254.567 9.26223 255.854 9.89185C256.015 9.98306 256.238 10.0376 256.477 10.0438C256.715 10.0501 256.951 10.0076 257.133 9.92531C257.245 9.88707 257.341 9.83742 257.416 9.77937C257.49 9.72133 257.541 9.65614 257.566 9.58782L257.371 9.58273ZM239.259 103.671C239.281 103.583 239.243 103.495 239.151 103.421C239.033 103.313 238.838 103.234 238.608 103.201C238.378 103.168 238.13 103.183 237.919 103.243C236.382 103.712 234.791 104.164 233.206 104.573C233.1 104.601 233.004 104.639 232.926 104.685C232.847 104.732 232.787 104.786 232.748 104.845C232.71 104.903 232.694 104.965 232.701 105.026C232.709 105.088 232.74 105.147 232.793 105.202C232.901 105.311 233.087 105.393 233.311 105.431C233.534 105.469 233.779 105.461 233.994 105.408C235.61 104.971 237.229 104.519 238.817 104.081C238.973 104.046 239.108 103.99 239.206 103.918C239.304 103.846 239.361 103.761 239.37 103.674L239.259 103.671ZM249.267 5.94044C249.28 5.8636 249.255 5.7867 249.195 5.71664C249.136 5.64658 249.044 5.58557 248.927 5.53912C247.522 4.96455 246.058 4.40299 244.592 3.87042C244.401 3.80025 244.163 3.77275 243.93 3.7939C243.698 3.81504 243.489 3.88313 243.35 3.98329C243.211 4.08607 243.154 4.21256 243.19 4.33572C243.227 4.45889 243.355 4.56899 243.547 4.6425C244.987 5.15985 246.423 5.72065 247.83 6.28074C247.922 6.31906 248.028 6.34736 248.142 6.36394C248.256 6.38052 248.375 6.38508 248.493 6.37734C248.61 6.36959 248.724 6.34969 248.828 6.31883C248.932 6.28797 249.023 6.24676 249.096 6.1976C249.258 6.13184 249.385 6.04476 249.462 5.94553L249.267 5.94044ZM229.596 106.238C229.642 106.167 229.652 106.092 229.623 106.02C229.53 105.908 229.354 105.82 229.135 105.776C228.915 105.732 228.67 105.736 228.453 105.786C226.788 106.164 225.125 106.527 223.468 106.847C223.357 106.868 223.255 106.9 223.168 106.942C223.082 106.983 223.012 107.034 222.963 107.09C222.914 107.145 222.888 107.206 222.885 107.267C222.882 107.328 222.903 107.388 222.947 107.444C222.985 107.502 223.045 107.554 223.123 107.599C223.201 107.644 223.296 107.681 223.401 107.706C223.507 107.732 223.621 107.747 223.738 107.749C223.855 107.752 223.973 107.742 224.083 107.721C225.77 107.387 227.461 107.025 229.154 106.647C229.322 106.618 229.472 106.565 229.585 106.493C229.698 106.421 229.769 106.334 229.79 106.243L229.596 106.238ZM240.496 2.73128C240.505 2.64945 240.473 2.5681 240.404 2.49504C240.335 2.42198 240.231 2.35971 240.102 2.31405C238.564 1.82808 237.007 1.35124 235.43 0.883606C235.327 0.853807 235.214 0.834926 235.097 0.828155C234.98 0.821384 234.861 0.826893 234.748 0.844198C234.634 0.861502 234.528 0.890277 234.435 0.928981C234.342 0.967685 234.265 1.01555 234.207 1.06966C234.148 1.12341 234.111 1.18247 234.096 1.24355C234.081 1.30463 234.09 1.36649 234.121 1.42545C234.153 1.48442 234.206 1.53933 234.279 1.58706C234.352 1.63479 234.443 1.67439 234.546 1.70351C236.079 2.15061 237.637 2.62735 239.109 3.11645C239.209 3.14953 239.321 3.1718 239.438 3.18184C239.555 3.19188 239.676 3.18953 239.792 3.17495C239.908 3.16038 240.018 3.13389 240.115 3.097C240.212 3.06011 240.294 3.01352 240.356 2.96013C240.513 2.90739 240.631 2.8284 240.691 2.73637L240.496 2.73128ZM219.44 108.283L219.46 108.123C219.387 108.005 219.228 107.907 219.016 107.849C218.805 107.792 218.557 107.781 218.327 107.818C217.045 108.031 215.738 108.229 214.434 108.399L213.157 108.569C212.928 108.6 212.73 108.676 212.607 108.782C212.484 108.888 212.446 109.014 212.501 109.133C212.525 109.193 212.573 109.25 212.64 109.3C212.707 109.35 212.794 109.393 212.893 109.425C212.993 109.457 213.105 109.479 213.221 109.489C213.338 109.498 213.457 109.496 213.573 109.481L214.849 109.311C216.21 109.128 217.518 108.93 218.855 108.718C219.079 108.696 219.282 108.634 219.426 108.542C219.571 108.449 219.648 108.334 219.643 108.215L219.44 108.283ZM208.923 109.65L208.937 109.534C208.893 109.413 208.76 109.306 208.566 109.235C208.372 109.165 208.132 109.138 207.897 109.158C206.174 109.331 204.398 109.488 202.597 109.615C202.481 109.622 202.37 109.642 202.268 109.672C202.167 109.702 202.078 109.743 202.007 109.791C201.936 109.84 201.884 109.895 201.854 109.953C201.825 110.012 201.818 110.073 201.835 110.133C201.86 110.255 201.978 110.366 202.162 110.442C202.346 110.517 202.581 110.551 202.816 110.536C204.644 110.41 206.449 110.254 208.199 110.081C208.323 110.081 208.445 110.068 208.559 110.042C208.673 110.017 208.777 109.98 208.863 109.933C208.95 109.886 209.018 109.831 209.063 109.771C209.108 109.711 209.13 109.647 209.126 109.582L208.923 109.65ZM198.202 110.416L198.211 110.343C198.192 110.222 198.081 110.11 197.903 110.031C197.725 109.953 197.494 109.915 197.26 109.926C195.391 110.003 193.598 110.072 191.88 110.134C191.763 110.136 191.648 110.151 191.542 110.177C191.436 110.203 191.34 110.24 191.262 110.285C191.183 110.331 191.123 110.384 191.084 110.441C191.046 110.499 191.03 110.56 191.038 110.621C191.041 110.682 191.067 110.742 191.114 110.798C191.162 110.853 191.231 110.903 191.316 110.945C191.402 110.986 191.503 111.018 191.613 111.039C191.723 111.06 191.84 111.069 191.958 111.066C193.777 111.012 195.57 110.943 197.393 110.86C197.528 110.872 197.666 110.867 197.797 110.845C197.928 110.824 198.048 110.787 198.147 110.737C198.245 110.687 198.32 110.626 198.365 110.558C198.41 110.491 198.424 110.419 198.406 110.348L198.202 110.416ZM187.427 110.73C187.424 110.668 187.398 110.608 187.35 110.553C187.302 110.497 187.234 110.447 187.148 110.406C187.063 110.364 186.962 110.332 186.852 110.311C186.742 110.29 186.624 110.281 186.507 110.284C184.728 110.237 182.935 110.307 181.15 110.304C181.031 110.302 180.912 110.314 180.8 110.337C180.688 110.36 180.586 110.394 180.5 110.438C180.414 110.482 180.345 110.534 180.298 110.592C180.252 110.65 180.227 110.711 180.227 110.774C180.223 110.836 180.242 110.898 180.285 110.956C180.328 111.014 180.392 111.066 180.475 111.11C180.558 111.154 180.658 111.189 180.768 111.213C180.878 111.237 180.996 111.248 181.116 111.248C182.922 111.295 184.741 111.241 186.529 111.215C186.676 111.234 186.831 111.233 186.978 111.212C187.126 111.192 187.261 111.152 187.372 111.096C187.482 111.041 187.564 110.972 187.609 110.896C187.654 110.82 187.662 110.74 187.63 110.662L187.427 110.73ZM176.636 110.723C176.644 110.662 176.628 110.6 176.588 110.543C176.548 110.485 176.486 110.432 176.406 110.388C176.325 110.344 176.227 110.308 176.119 110.285C176.01 110.261 175.893 110.249 175.775 110.25C173.969 110.203 172.19 110.156 170.411 110.11C170.175 110.104 169.943 110.147 169.765 110.229C169.587 110.312 169.479 110.427 169.463 110.55C169.459 110.611 169.478 110.672 169.519 110.729C169.561 110.785 169.623 110.837 169.703 110.881C169.783 110.925 169.879 110.96 169.985 110.985C170.092 111.009 170.207 111.022 170.324 111.023C172.103 111.07 173.91 111.117 175.716 111.164C175.857 111.183 176.005 111.184 176.147 111.167C176.289 111.149 176.422 111.114 176.533 111.064C176.644 111.013 176.73 110.95 176.783 110.879C176.837 110.808 176.856 110.731 176.84 110.656L176.636 110.723ZM165.841 110.528C165.857 110.406 165.783 110.286 165.634 110.193C165.485 110.1 165.272 110.041 165.039 110.027C163.344 109.983 161.565 109.936 159.721 109.743C159.483 109.729 159.243 109.763 159.051 109.84C158.859 109.916 158.731 110.028 158.694 110.152C158.67 110.275 158.736 110.398 158.878 110.496C159.021 110.594 159.23 110.66 159.464 110.681C161.343 110.817 163.172 110.909 165.005 110.971C165.241 110.977 165.473 110.934 165.651 110.852C165.828 110.769 165.937 110.654 165.952 110.531L165.841 110.528ZM155.171 109.784C155.187 109.67 155.122 109.558 154.989 109.469C154.857 109.38 154.665 109.319 154.451 109.3C152.744 109.124 151.011 108.933 149.226 108.712C148.993 108.685 148.748 108.706 148.542 108.771C148.336 108.836 148.185 108.94 148.123 109.061C148.066 109.183 148.103 109.311 148.225 109.417C148.347 109.523 148.545 109.6 148.776 109.631C150.589 109.853 152.35 110.044 154.084 110.22C154.321 110.243 154.568 110.216 154.77 110.145C154.972 110.074 155.113 109.965 155.163 109.842L155.171 109.784ZM144.679 108.506C144.695 108.399 144.637 108.292 144.515 108.206C144.392 108.12 144.214 108.061 144.013 108.038C142.343 107.791 140.619 107.528 138.897 107.25C138.665 107.213 138.413 107.226 138.196 107.286C137.98 107.346 137.816 107.447 137.742 107.569C137.676 107.688 137.701 107.816 137.812 107.924C137.923 108.033 138.112 108.114 138.338 108.151C140.087 108.43 141.811 108.693 143.537 108.941C143.766 108.969 144.008 108.95 144.213 108.888C144.418 108.825 144.57 108.725 144.638 108.607L144.679 108.506ZM134.401 106.856C134.409 106.754 134.355 106.653 134.245 106.57C134.135 106.486 133.976 106.423 133.79 106.39C132.126 106.099 130.437 105.779 128.749 105.458C128.64 105.435 128.523 105.424 128.405 105.426C128.287 105.427 128.171 105.442 128.063 105.467C127.955 105.493 127.859 105.53 127.779 105.576C127.699 105.622 127.637 105.675 127.599 105.733C127.553 105.79 127.53 105.851 127.531 105.913C127.532 105.974 127.558 106.035 127.605 106.09C127.653 106.146 127.723 106.196 127.809 106.237C127.896 106.278 127.998 106.309 128.11 106.328C129.796 106.663 131.485 106.983 133.177 107.275C133.288 107.296 133.406 107.304 133.525 107.301C133.643 107.298 133.759 107.282 133.866 107.255C133.973 107.228 134.07 107.19 134.149 107.144C134.229 107.098 134.29 107.044 134.329 106.985L134.401 106.856ZM124.33 104.892C124.346 104.793 124.301 104.695 124.201 104.611C124.101 104.527 123.952 104.463 123.775 104.427C122.118 104.078 120.49 103.716 118.864 103.339C118.758 103.313 118.642 103.298 118.524 103.295C118.405 103.293 118.287 103.302 118.175 103.324C118.063 103.345 117.961 103.378 117.873 103.42C117.785 103.462 117.714 103.513 117.664 103.569C117.568 103.685 117.561 103.814 117.645 103.93C117.73 104.047 117.899 104.14 118.116 104.192C119.742 104.569 121.395 104.946 123.08 105.295C123.296 105.343 123.541 105.344 123.761 105.298C123.981 105.252 124.159 105.163 124.255 105.05L124.33 104.892ZM114.523 102.601C114.533 102.508 114.491 102.416 114.402 102.336C114.313 102.256 114.181 102.192 114.022 102.151C112.4 101.746 110.807 101.326 109.272 100.893C109.169 100.862 109.054 100.842 108.935 100.835C108.815 100.828 108.694 100.834 108.579 100.853C108.464 100.872 108.357 100.903 108.265 100.945C108.174 100.986 108.1 101.037 108.048 101.094C107.99 101.147 107.952 101.205 107.938 101.265C107.924 101.325 107.933 101.385 107.965 101.443C107.996 101.501 108.05 101.555 108.123 101.601C108.196 101.648 108.286 101.686 108.388 101.713C109.977 102.162 111.57 102.581 113.218 103.002C113.323 103.029 113.437 103.045 113.554 103.048C113.67 103.052 113.788 103.043 113.899 103.023C114.011 103.003 114.114 102.972 114.202 102.932C114.291 102.891 114.364 102.842 114.416 102.787L114.523 102.601ZM108.962 89.81C109.08 88.8683 108.95 87.9056 108.844 86.9727C108.842 86.9105 108.815 86.8495 108.765 86.7934C108.715 86.7373 108.644 86.6874 108.554 86.6468C108.465 86.6062 108.36 86.5759 108.247 86.5576C108.133 86.5394 108.013 86.5336 107.895 86.5408C107.777 86.5449 107.661 86.5612 107.554 86.5887C107.448 86.6162 107.352 86.6543 107.274 86.7009C107.195 86.7476 107.135 86.8017 107.097 86.8603C107.059 86.9188 107.043 86.9806 107.051 87.042C107.161 87.946 107.181 88.8913 107.15 89.8061C107.146 89.8684 107.166 89.9303 107.208 89.9881C107.251 90.0459 107.316 90.0985 107.399 90.1427C107.481 90.187 107.581 90.2219 107.691 90.2454C107.801 90.269 107.919 90.2808 108.039 90.28C108.184 90.2971 108.335 90.2955 108.48 90.2752C108.625 90.255 108.759 90.2168 108.87 90.1639C108.981 90.1109 109.066 90.0449 109.117 89.9715C109.169 89.8981 109.186 89.8196 109.166 89.7426L108.962 89.81ZM108.609 92.6204C108.632 92.5001 108.564 92.3805 108.42 92.2872C108.275 92.1939 108.066 92.1341 107.836 92.1206C107.597 92.1103 107.36 92.1489 107.173 92.2282C106.986 92.3074 106.864 92.4211 106.834 92.5449C106.716 93.4866 106.349 94.4072 105.988 95.2844C105.948 95.4078 105.999 95.5339 106.131 95.6372C106.263 95.7404 106.466 95.8132 106.699 95.8407C106.815 95.8519 106.935 95.8509 107.051 95.8378C107.166 95.8247 107.277 95.7998 107.374 95.7645C107.472 95.7292 107.556 95.6842 107.621 95.6321C107.685 95.5801 107.729 95.522 107.751 95.4613C108.116 94.5552 108.402 93.6034 108.615 92.577L108.609 92.6204ZM108.299 84.2113L108.311 84.1099C108.044 83.1677 107.667 82.2357 107.184 81.3188C107.122 81.1987 106.973 81.0965 106.767 81.0341C106.561 80.9717 106.315 80.954 106.082 80.9848C105.968 81.0014 105.861 81.0297 105.767 81.0679C105.673 81.1061 105.595 81.1536 105.536 81.2075C105.477 81.2614 105.44 81.3208 105.425 81.382C105.411 81.4432 105.42 81.5052 105.452 81.5642C105.917 82.4522 106.279 83.3547 106.535 84.2669C106.553 84.3279 106.595 84.3861 106.658 84.4382C106.72 84.4903 106.803 84.5352 106.899 84.5703C106.996 84.6053 107.106 84.6298 107.222 84.6423C107.338 84.6548 107.458 84.655 107.575 84.6429C107.698 84.6427 107.819 84.6293 107.932 84.6035C108.045 84.5778 108.146 84.5404 108.231 84.4935C108.315 84.4466 108.38 84.3913 108.422 84.331C108.464 84.2708 108.482 84.2069 108.474 84.1433L108.299 84.2113ZM106.358 98.1138C106.371 98.0109 106.318 97.9093 106.208 97.8248C106.097 97.7404 105.935 97.6779 105.748 97.6472C105.523 97.6142 105.281 97.6275 105.072 97.6841C104.863 97.7408 104.702 97.8366 104.622 97.952C104.343 98.3953 104.009 98.8371 103.678 99.25C102.471 98.8695 101.266 98.4746 100.116 98.0812C99.9138 98.0125 99.6664 97.9889 99.4279 98.0153C99.1894 98.0417 98.9793 98.1162 98.8436 98.2223C98.7241 98.3284 98.6838 98.4533 98.7307 98.5727C98.7775 98.6921 98.9081 98.7975 99.0971 98.8684C100.328 99.2786 101.613 99.7046 102.956 100.118L102.575 100.486C102.467 100.599 102.448 100.728 102.521 100.847C102.595 100.966 102.756 101.064 102.969 101.121C103.074 101.148 103.188 101.163 103.305 101.167C103.422 101.17 103.539 101.162 103.651 101.142C103.762 101.122 103.865 101.091 103.954 101.05C104.042 101.009 104.115 100.96 104.168 100.905L104.774 100.296L104.927 100.184C104.976 100.104 104.987 100.019 104.958 99.9375C105.416 99.3972 105.823 98.8265 106.203 98.2405L106.358 98.1138ZM105.405 78.8304C105.442 78.7595 105.451 78.6856 105.432 78.6132C104.687 77.7182 103.714 76.8812 102.537 76.1246C102.377 76.0334 102.154 75.9789 101.915 75.9727C101.676 75.9664 101.441 76.0089 101.259 76.0912C101.168 76.1322 101.093 76.1821 101.039 76.2382C100.986 76.2942 100.954 76.3551 100.946 76.4173C100.938 76.4794 100.955 76.5416 100.994 76.6001C101.033 76.6585 101.095 76.7121 101.175 76.7576C102.235 77.4558 103.123 78.2211 103.817 79.036C103.863 79.0917 103.93 79.1418 104.015 79.1833C104.099 79.2248 104.199 79.2568 104.309 79.2773C104.418 79.2979 104.535 79.3066 104.652 79.3028C104.769 79.2991 104.883 79.283 104.989 79.2556C105.179 79.2195 105.341 79.151 105.448 79.0614C105.556 78.9719 105.602 78.8665 105.58 78.7624L105.405 78.8304ZM101.301 103.083C101.311 103.01 101.288 102.937 101.233 102.87C101.179 102.802 101.094 102.743 100.987 102.697C100.802 102.622 100.568 102.587 100.333 102.6C100.097 102.612 99.8791 102.672 99.7234 102.766C98.9091 103.281 97.9802 103.745 96.9566 104.147C96.6049 104.283 96.2514 104.433 95.8719 104.569C95.7026 104.653 95.6 104.767 95.5848 104.888C95.5696 105.009 95.6429 105.128 95.7901 105.221C95.8674 105.268 95.9623 105.306 96.0691 105.333C96.1758 105.36 96.2923 105.376 96.4116 105.379C96.5309 105.382 96.6505 105.372 96.7634 105.351C96.8763 105.33 96.98 105.297 97.0686 105.254C97.4481 105.119 97.8016 104.968 98.183 104.818C99.2738 104.36 100.273 103.846 101.164 103.283C101.318 103.212 101.427 103.118 101.477 103.015L101.301 103.083ZM96.0798 96.9145C96.0919 96.8376 96.0672 96.7607 96.0078 96.6907C95.9484 96.6206 95.8563 96.5596 95.7397 96.5132C94.2505 95.9364 92.8448 95.3618 91.5779 94.7909C91.3889 94.7147 91.1502 94.6794 90.9104 94.692C90.6705 94.7046 90.4475 94.7643 90.2867 94.8588C90.2104 94.9063 90.1528 94.9611 90.1171 95.0199C90.0815 95.0788 90.0685 95.1406 90.079 95.2017C90.0895 95.2628 90.1232 95.322 90.1782 95.376C90.2332 95.4299 90.3084 95.4775 90.3994 95.5159C91.6922 96.102 93.0406 96.6896 94.641 97.2693C94.8362 97.3403 95.0783 97.3684 95.3153 97.3474C95.5524 97.3264 95.7658 97.2582 95.9099 97.1572C96.0118 97.1239 96.0968 97.0781 96.1571 97.0239C96.2174 96.9696 96.2513 96.9087 96.2556 96.8464L96.0798 96.9145ZM98.3489 74.8377C98.3619 74.7349 98.3089 74.6332 98.1984 74.5488C98.0878 74.4643 97.9259 74.4019 97.7381 74.3712C97.1046 74.2673 96.4469 74.2061 95.7811 74.1891C94.4404 74.1635 93.1008 74.2922 91.8578 74.5661C91.7481 74.5896 91.6482 74.6242 91.5638 74.6678C91.4794 74.7114 91.4122 74.7632 91.3662 74.8201C91.3201 74.8771 91.2961 74.938 91.2955 74.9995C91.2949 75.0609 91.3177 75.1216 91.3627 75.1781C91.4035 75.2343 91.4657 75.2854 91.5457 75.3285C91.6256 75.3716 91.7216 75.4057 91.828 75.4289C91.9344 75.452 92.049 75.4636 92.1649 75.4631C92.2808 75.4626 92.3957 75.45 92.5027 75.4259C93.508 75.2134 94.5848 75.1128 95.6629 75.1308C96.1795 75.1409 96.6897 75.1885 97.1789 75.2722C97.2901 75.2904 97.4075 75.297 97.5243 75.2915C97.6411 75.286 97.755 75.2687 97.8596 75.2403C97.9641 75.212 98.0573 75.1734 98.1336 75.1265C98.21 75.0797 98.2681 75.0256 98.3047 74.9674L98.3489 74.8377ZM92.8289 106.597C92.8414 106.498 92.7952 106.4 92.6967 106.317C92.6363 106.264 92.5562 106.219 92.461 106.183C92.3659 106.147 92.2575 106.121 92.1424 106.107C92.0273 106.093 91.9077 106.091 91.7906 106.102C91.6735 106.113 91.5613 106.135 91.4605 106.168C89.9479 106.667 88.3834 107.134 86.8038 107.5C86.6993 107.529 86.6064 107.568 86.5304 107.615C86.4544 107.662 86.3968 107.716 86.361 107.775C86.3251 107.833 86.3117 107.895 86.3215 107.956C86.3313 108.017 86.3641 108.076 86.4181 108.129C86.4715 108.183 86.5451 108.231 86.6346 108.27C86.724 108.309 86.8276 108.338 86.9394 108.356C87.0512 108.374 87.1689 108.38 87.2859 108.374C87.4028 108.368 87.5167 108.35 87.621 108.321C89.2356 107.898 90.8298 107.416 92.3997 106.905C92.5585 106.879 92.7001 106.829 92.8074 106.762C92.9147 106.696 92.9832 106.614 93.0047 106.529L92.8289 106.597ZM87.9465 93.286C87.9542 93.22 87.9348 93.1541 87.8896 93.0928C87.8444 93.0315 87.7745 92.9761 87.6844 92.9303C86.4612 92.28 85.3185 91.5899 84.2629 90.8641C84.1026 90.7728 83.8794 90.7183 83.6407 90.7121C83.4019 90.7058 83.1665 90.7483 82.9844 90.8306C82.8089 90.9131 82.7018 91.0277 82.6865 91.1498C82.6712 91.2718 82.7488 91.3914 82.9026 91.4825C84.0103 92.2388 85.2049 92.9593 86.4799 93.64C86.5573 93.6869 86.6521 93.725 86.7589 93.7522C86.8657 93.7793 86.9822 93.7949 87.1015 93.798C87.2207 93.8012 87.3404 93.7917 87.4532 93.7703C87.5661 93.7489 87.6699 93.716 87.7584 93.6735C87.8943 93.6222 88.0004 93.5523 88.0648 93.4718C88.1291 93.3913 88.149 93.3033 88.1224 93.2179L87.9465 93.286ZM88.5144 76.5424C88.5273 76.426 88.4629 76.3114 88.3321 76.2179C88.1682 76.1299 87.9459 76.0776 87.7091 76.0714C87.4724 76.0652 87.2384 76.1055 87.0536 76.1844C85.5883 76.7882 84.218 77.4523 82.9561 78.1702C82.8771 78.2158 82.8159 78.269 82.776 78.3267C82.7361 78.3843 82.7183 78.4453 82.7236 78.5062C82.7289 78.5671 82.7572 78.6267 82.807 78.6815C82.8567 78.7363 82.9268 78.7853 83.0133 78.8258C83.1923 78.9084 83.4276 78.9507 83.6684 78.9434C83.9093 78.9361 84.1364 78.8799 84.3009 78.7868C85.4835 78.1105 86.7746 77.4878 88.1596 76.9256C88.318 76.8822 88.4511 76.8171 88.5447 76.7376C88.6382 76.6581 88.6886 76.567 88.6903 76.4744L88.5144 76.5424ZM83.1911 109.179C83.2257 109.112 83.2344 109.043 83.2165 108.976C83.173 108.919 83.1081 108.868 83.0256 108.824C82.9431 108.781 82.8447 108.747 82.7361 108.724C82.6274 108.7 82.5107 108.689 82.3927 108.69C82.2747 108.69 82.1578 108.703 82.0487 108.727C80.3875 109.076 78.704 109.381 76.9964 109.656C76.7701 109.693 76.5797 109.774 76.4667 109.883C76.3537 109.992 76.3275 110.119 76.3938 110.236C76.424 110.295 76.4766 110.351 76.5486 110.399C76.6206 110.447 76.7106 110.488 76.8133 110.517C76.916 110.547 77.0293 110.566 77.1466 110.572C77.264 110.579 77.3831 110.573 77.4969 110.556C79.262 110.268 81.0029 109.95 82.6936 109.587C82.8957 109.562 83.0749 109.5 83.1985 109.413C83.3221 109.325 83.3819 109.218 83.3669 109.111L83.1911 109.179ZM81.5955 88.7884C81.5985 88.706 81.5607 88.625 81.4856 88.553C80.7114 87.7635 80.1418 86.9227 79.7917 86.0523C79.77 85.9926 79.7258 85.9358 79.6617 85.8853C79.5975 85.8348 79.5147 85.7915 79.4179 85.7579C79.3211 85.7243 79.2123 85.7011 79.0976 85.6896C78.9829 85.6781 78.8647 85.6785 78.7496 85.6907C78.6328 85.7011 78.5209 85.7238 78.421 85.7575C78.321 85.7912 78.235 85.835 78.1684 85.8865C78.1019 85.9378 78.056 85.9957 78.0339 86.0563C78.0117 86.117 78.0136 86.1792 78.0394 86.239C78.416 87.1955 79.0311 88.1203 79.8692 88.9903C79.9823 89.1005 80.1748 89.1824 80.4051 89.2184C80.6354 89.2543 80.8849 89.2414 81.0999 89.1824C81.2823 89.1543 81.4444 89.0975 81.564 89.02C81.6835 88.9424 81.7547 88.8479 81.7677 88.7494L81.5955 88.7884ZM81.3799 80.7306C81.3887 80.6398 81.3491 80.5499 81.2655 80.4707C81.182 80.3916 81.0577 80.3264 80.9064 80.2822C80.6986 80.2275 80.4565 80.218 80.2326 80.2556C80.0087 80.2933 79.8209 80.3752 79.7099 80.4835C78.786 81.3763 78.1645 82.3437 77.8732 83.3423C77.8541 83.4029 77.8581 83.4647 77.8852 83.5242C77.9122 83.5836 77.9617 83.6395 78.0307 83.6886C78.0997 83.7377 78.1869 83.7791 78.2873 83.8103C78.3877 83.8415 78.4993 83.8619 78.6156 83.8704C78.7322 83.8816 78.8523 83.88 78.9684 83.8659C79.0845 83.8518 79.1941 83.8254 79.2903 83.7883C79.3866 83.7513 79.4674 83.7044 79.5278 83.6506C79.5882 83.5968 79.6267 83.5373 79.6411 83.4758C79.9211 82.5992 80.4703 81.7498 81.2675 80.9603C81.4191 80.8902 81.5198 80.7952 81.5521 80.6915L81.3799 80.7306ZM72.8395 110.783L72.8541 110.667C72.8041 110.545 72.6642 110.439 72.4642 110.371C72.2642 110.303 72.0201 110.279 71.7841 110.304C70.0596 110.492 68.2849 110.634 66.5435 110.734C66.425 110.74 66.3095 110.758 66.2039 110.787C66.0982 110.816 66.0045 110.856 65.9283 110.904C65.8521 110.952 65.795 111.008 65.7602 111.067C65.7254 111.127 65.7137 111.189 65.7258 111.251C65.7515 111.373 65.8678 111.486 66.0505 111.564C66.2331 111.642 66.4677 111.679 66.7051 111.669C68.5021 111.57 70.3341 111.415 72.1143 111.229C72.3541 111.224 72.5822 111.17 72.7499 111.08C72.9176 110.989 73.0115 110.869 73.0117 110.744L72.8395 110.783ZM62.0835 111.388C62.0878 111.325 62.068 111.264 62.0253 111.206C61.9826 111.148 61.9179 111.095 61.835 111.051C61.7521 111.007 61.6527 110.972 61.5427 110.948C61.4327 110.925 61.3144 110.913 61.1948 110.914C60.0553 110.884 58.9436 110.855 57.804 110.825C57.1647 110.808 56.5255 110.792 55.8862 110.775C55.7696 110.77 55.652 110.777 55.5399 110.796C55.4279 110.814 55.3237 110.844 55.2333 110.884C55.1429 110.923 55.068 110.971 55.013 111.026C54.958 111.08 54.9239 111.139 54.9126 111.2C54.8973 111.262 54.9061 111.325 54.9383 111.384C54.9705 111.444 55.0256 111.5 55.1002 111.548C55.1748 111.596 55.2675 111.635 55.3727 111.664C55.4778 111.693 55.5934 111.71 55.7124 111.715C56.3795 111.733 57.0188 111.749 57.6858 111.767C58.8532 111.797 60.0205 111.828 61.1878 111.858C61.325 111.872 61.4669 111.869 61.602 111.849C61.7372 111.829 61.8618 111.792 61.9659 111.743C62.0699 111.693 62.1503 111.631 62.2006 111.563C62.251 111.495 62.2699 111.421 62.2557 111.349L62.0835 111.388ZM51.3508 110.918C51.3668 110.804 51.3023 110.692 51.1696 110.603C51.0369 110.514 50.8451 110.454 50.6308 110.434C48.9221 110.273 47.1911 110.068 45.4655 109.819C45.3521 109.803 45.2335 109.8 45.1166 109.808C44.9996 109.816 44.8866 109.837 44.7841 109.868C44.6817 109.899 44.5919 109.94 44.5197 109.989C44.4476 110.038 44.3946 110.094 44.3639 110.154C44.299 110.271 44.3254 110.397 44.4373 110.503C44.5492 110.61 44.7377 110.688 44.9619 110.722C46.743 110.972 48.5278 111.193 50.2921 111.355C50.408 111.366 50.5274 111.365 50.6432 111.352C50.7591 111.339 50.8692 111.314 50.9671 111.279C51.0649 111.244 51.1486 111.199 51.2133 111.147C51.2779 111.095 51.3222 111.037 51.3436 110.976L51.3508 110.918ZM40.9956 109.44C41.0441 109.356 41.0439 109.266 40.9949 109.182C40.946 109.098 40.8505 109.023 40.7203 108.968C39.0872 108.649 37.4318 108.286 35.8356 107.896C35.731 107.869 35.6169 107.853 35.5 107.85C35.383 107.846 35.2656 107.855 35.1543 107.875C35.043 107.895 34.94 107.926 34.8513 107.966C34.7626 108.007 34.6899 108.056 34.6373 108.111C34.538 108.227 34.5264 108.357 34.6048 108.475C34.6832 108.593 34.8458 108.691 35.0594 108.747C36.6816 109.153 38.3926 109.518 40.0516 109.852C40.2793 109.894 40.5312 109.887 40.7522 109.833C40.9732 109.779 41.1454 109.682 41.2312 109.563L40.9956 109.44ZM31.3145 107.036C31.3268 106.952 31.2938 106.869 31.2193 106.795C31.1448 106.721 31.0317 106.66 30.8929 106.618C29.3614 106.156 27.8909 105.653 26.4519 105.121C26.2531 105.051 26.0084 105.025 25.7706 105.049C25.5329 105.073 25.3211 105.144 25.1812 105.248C25.1103 105.298 25.0597 105.355 25.0326 105.415C25.0055 105.475 25.0025 105.537 25.0237 105.598C25.0448 105.659 25.0898 105.716 25.1558 105.767C25.2217 105.817 25.3071 105.86 25.4069 105.893C26.8719 106.44 28.398 106.945 29.95 107.465C30.1572 107.527 30.4039 107.544 30.6373 107.512C30.8707 107.48 31.0721 107.402 31.1984 107.295L31.3145 107.036ZM22.5709 103.828C22.5745 103.757 22.5481 103.687 22.4935 103.623C22.4388 103.558 22.3574 103.501 22.255 103.456C20.9066 102.868 19.6192 102.239 18.3615 101.595C18.2012 101.504 17.978 101.45 17.7393 101.443C17.5005 101.437 17.2651 101.48 17.083 101.562C16.9918 101.603 16.9171 101.653 16.8634 101.709C16.8096 101.765 16.778 101.826 16.7702 101.888C16.7624 101.95 16.7786 102.012 16.8179 102.071C16.8573 102.129 16.919 102.183 16.9993 102.228C18.2831 102.887 19.626 103.518 21.0003 104.121C21.183 104.202 21.4208 104.242 21.6622 104.232C21.9036 104.222 22.1291 104.163 22.2898 104.067C22.4992 104.005 22.66 103.906 22.7431 103.788L22.5709 103.828ZM14.9761 99.9079C14.9841 99.8488 14.9696 99.7896 14.9336 99.7338C14.8975 99.678 14.8405 99.6266 14.7659 99.5826C13.6266 98.8842 12.5188 98.1575 11.4962 97.4186C11.4292 97.3691 11.3439 97.3271 11.2452 97.295C11.1465 97.2629 11.0364 97.2414 10.9211 97.2316C10.8058 97.2219 10.6876 97.2241 10.5732 97.2381C10.4588 97.2521 10.3505 97.2777 10.2545 97.3134C10.1584 97.349 10.0765 97.3941 10.0134 97.446C9.95034 97.4979 9.90728 97.5555 9.88677 97.6157C9.86627 97.6759 9.8687 97.7375 9.89391 97.7969C9.91912 97.8562 9.96663 97.9122 10.0337 97.9617C11.0805 98.7304 12.2143 99.4722 13.3778 100.2C13.5381 100.292 13.7614 100.346 14.0001 100.352C14.2388 100.359 14.4743 100.316 14.6564 100.234C14.783 100.194 14.8924 100.141 14.9772 100.078C15.0621 100.015 15.1204 99.944 15.1484 99.8688L14.9761 99.9079ZM8.73992 95.3843C8.74417 95.2928 8.70777 95.2022 8.63363 95.1198C7.72942 94.3258 6.88262 93.5188 6.14881 92.7002C6.10035 92.6439 6.03062 92.5935 5.94363 92.5517C5.85665 92.51 5.7542 92.478 5.64239 92.4574C5.53059 92.4369 5.41166 92.4283 5.29266 92.4322C5.17365 92.436 5.05695 92.4522 4.9495 92.4799C4.73475 92.5355 4.56871 92.6321 4.48636 92.7493C4.40401 92.8665 4.4118 92.995 4.50816 93.1078C5.29392 93.9569 6.13709 94.7929 6.98389 95.5999C7.04191 95.6537 7.12022 95.7007 7.21419 95.7381C7.30815 95.7755 7.41587 95.8026 7.53096 95.8178C7.64604 95.8331 7.76615 95.836 7.88421 95.8266C8.00227 95.8172 8.11588 95.7956 8.21829 95.763C8.41731 95.7453 8.59993 95.693 8.73635 95.6148C8.87277 95.5365 8.95494 95.4369 8.96951 95.3321L8.73992 95.3843ZM4.1588 90.3371L4.18062 90.1633C3.56766 89.2985 3.04542 88.4163 2.61614 87.5206C2.5488 87.403 2.3965 87.3041 2.19099 87.2446C1.98549 87.1851 1.74262 87.1695 1.51294 87.2011C1.28129 87.235 1.08288 87.3144 0.959918 87.4225C0.836958 87.5306 0.799195 87.6588 0.854737 87.7798C1.32749 88.6788 1.85405 89.5937 2.46759 90.4818C2.5508 90.5989 2.71937 90.6935 2.9371 90.7454C3.15482 90.7973 3.40428 90.8024 3.6318 90.7594C3.836 90.7346 4.01808 90.6734 4.14623 90.5864C4.27438 90.4995 4.3404 90.3922 4.33283 90.2835L4.1588 90.3371Z" fill="url(#paint0_linear_2_4999)"/>
<defs>
<linearGradient id="paint0_linear_2_4999" x1="5.22898" y1="52.6045" x2="290.723" y2="88.4391" gradientUnits="userSpaceOnUse">
<stop stop-color="#0D0CB5"/>
<stop offset="1" stop-color="#C0242A"/>
</linearGradient>
</defs>
</svg>
